{
.appVersion = "922";
classes = (
{
automatic = 1;

glyphs = (
{
glyphname = A;
lastChange = "2016-09-21 13:15:46 +0000";
layers = (
{
anchors = (
{
name = bottom;
position = "{369, 0}";
},
{
name = ogonek;
position = "{710, 10}";
},
{
name = top;
position = "{425, 728}";
}
);
layerId = "E3EC4F6D-0AFB-4C34-B4C6-20524166427F";
paths = (
{
closed = 1;
nodes = (
"438 600 LINE",
"400 600 LINE",
"612 0 LINE",
"769 0 LINE",
"491 728 LINE",
"360 728 LINE",
"-31 0 LINE",
"134 0 LINE"
);
},
{
closed = 1;
nodes = (
"620 160 LINE",
"569 284 LINE",
"205 284 LINE",
"133 160 LINE"
);
}
);
width = 777;
},
{
anchors = (
{
name = bottom;
position = "{351, 0}";
},
{
name = ogonek;
position = "{686, 10}";
},
{
name = top;
position = "{408, 728}";
}
);
layerId = "EADB5E4A-85D8-40DB-A3FC-C2FF30FE6B12";
paths = (
{
closed = 1;
nodes = (
"419 694 LINE",
"392 694 LINE",
"634 0 LINE",
"689 0 LINE",
"432 728 LINE",
"382 728 LINE",
"11 0 LINE",
"68 0 LINE"
);
},
{
closed = 1;
nodes = (
"580 198 LINE",
"567 246 LINE",
"176 246 LINE",
"156 198 LINE"
);
}
);
width = 741;
}
);
leftKerningGroup = A;
rightKerningGroup = A;
unicode = 0041;
userData = {
anchors = (
);
b = {
};
com.typemytype.robofont.layerData = {
b = {
anchors = (
);
components = (
);
contours = (
{
points = (
{
segmentType = line;
smooth = 0;
x = 403;
y = 502;
},
{
segmentType = line;
smooth = 0;
x = 703;
y = 1275;
},
{
segmentType = line;
smooth = 0;
x = 705;
y = 1275;
},
{
segmentType = line;
smooth = 0;
x = 1004;
y = 502;
}
);
},
{
points = (
{
segmentType = curve;
smooth = 1;
x = 150;
y = 0;
},
{
smooth = 0;
x = 181;
y = 0;
},
{
smooth = 0;
x = 214;
y = 15;
},
{
segmentType = curve;
smooth = 1;
x = 229;
y = 53;
},
{
segmentType = line;
smooth = 0;
x = 356;
y = 373;
},
{
segmentType = line;
smooth = 0;
x = 1051;
y = 373;
},
{
segmentType = line;
smooth = 1;
x = 1179;
y = 53;
},
{
smooth = 0;
x = 1193;
y = 17;
},
{
smooth = 0;
x = 1228;
y = 0;
},
{
segmentType = curve;
smooth = 1;
x = 1260;
y = 0;
},
{
smooth = 0;
x = 1306;
y = 0;
},
{
smooth = 0;
x = 1354;
y = 31;
},
{
segmentType = curve;
smooth = 1;
x = 1354;
y = 80;
},
{
smooth = 0;
x = 1354;
y = 87;
},
{
smooth = 0;
x = 1352;
y = 97;
},
{
segmentType = curve;
smooth = 0;
x = 1349;
y = 108;
},
{
segmentType = line;
smooth = 1;
x = 871;
y = 1288;
},
{
smooth = 0;
x = 817;
y = 1420;
},
{
smooth = 0;
x = 777;
y = 1430;
},
{
segmentType = curve;
smooth = 1;
x = 710;
y = 1430;
},
{
smooth = 0;
x = 644;
y = 1430;
},
{
smooth = 0;
x = 596;
y = 1413;
},
{
segmentType = curve;
smooth = 1;
x = 542;
y = 1280;
},
{
segmentType = line;
smooth = 1;
x = 66;
y = 108;
},
{
smooth = 0;
x = 62;
y = 97;
},
{
smooth = 0;
x = 60;
y = 87;
},
{
segmentType = curve;
smooth = 1;
x = 60;
y = 78;
},
{
smooth = 0;
x = 60;
y = 32;
},
{
smooth = 0;
x = 106;
y = 0;
}
);
}
);
lib = {
};
name = A;
unicodes = (
);
width = 1414;
};
};
components = (
);
contours = {
};
lib = {
};
name = A;
points = {
};
segmentType = line;
unicodes = (
);
width = 1445;
x = 718;
y = 1232;
};
},
{
glyphname = Aogonek;
lastChange = "2016-09-21 13:15:46 +0000";
layers = (
{
layerId = "E3EC4F6D-0AFB-4C34-B4C6-20524166427F";
paths = (
{
closed = 1;
nodes = (
"620 160 LINE",
"569 284 LINE",
"205 284 LINE",
"133 160 LINE"
);
},
{
closed = 1;
nodes = (
"725 -118 OFFCURVE",
"706 -122 OFFCURVE",
"688 -122 CURVE SMOOTH",
"655 -122 OFFCURVE",
"633 -103 OFFCURVE",
"633 -70 CURVE SMOOTH",
"633 -32 OFFCURVE",
"668 0 OFFCURVE",
"716 0 CURVE SMOOTH",
"769 0 LINE",
"491 728 LINE",
"360 728 LINE",
"-31 0 LINE",
"134 0 LINE",
"438 600 LINE",
"400 600 LINE",
"612 0 LINE",
"633 34 LINE",
"571 11 OFFCURVE",
"531 -30 OFFCURVE",
"531 -94 CURVE SMOOTH",
"531 -158 OFFCURVE",
"582 -204 OFFCURVE",
"661 -204 CURVE SMOOTH",
"694 -204 OFFCURVE",
"727 -196 OFFCURVE",
"759 -183 CURVE",
"748 -109 LINE"
);
}
);
width = 777;
},
{
layerId = "EADB5E4A-85D8-40DB-A3FC-C2FF30FE6B12";
paths = (
{
closed = 1;
nodes = (
"580 198 LINE",
"567 246 LINE",
"176 246 LINE",
"156 198 LINE"
);
},
{
closed = 1;
nodes = (
"687 -148 OFFCURVE",
"663 -154 OFFCURVE",
"646 -154 CURVE SMOOTH",
"606 -154 OFFCURVE",
"583 -132 OFFCURVE",
"583 -89 CURVE SMOOTH",
"583 -48 OFFCURVE",
"607 0 OFFCURVE",
"684 0 CURVE SMOOTH",
"689 0 LINE",
"432 728 LINE",
"382 728 LINE",
"11 0 LINE",
"68 0 LINE",
"419 694 LINE",
"392 694 LINE",
"634 0 LINE",
"663 39 LINE",
"571 24 OFFCURVE",
"531 -31.01 OFFCURVE",
"531 -95.01 CURVE SMOOTH",
"531 -156.99 OFFCURVE",
"573 -197 OFFCURVE",
"641 -197 CURVE SMOOTH",
"674 -197 OFFCURVE",
"706 -186 OFFCURVE",
"723 -174 CURVE",
"710 -133 LINE"
);
}
);
width = 741;
}
);
leftKerningGroup = A;
leftMetricsKey = A;
widthMetricsKey = A;
rightKerningGroup = A;
unicode = 0104;
},
{
glyphname = Aring;
lastChange = "2016-09-21 13:15:46 +0000";
layers = (
{
layerId = "E3EC4F6D-0AFB-4C34-B4C6-20524166427F";
paths = (
{
closed = 1;
nodes = (
"425 573 LINE",
"401 600 LINE",
"603 26 LINE",
"767 0 LINE",
"501 700 LINE",
"362 728 LINE",
"-17 28 LINE",
"132 0 LINE"
);
},
{
closed = 1;
nodes = (
"620 160 LINE",
"569 284 LINE",
"205 284 LINE",
"133 160 LINE"
);
},
{
closed = 1;
nodes = (
"495 692 OFFCURVE",
"545 741 OFFCURVE",
"545 804 CURVE SMOOTH",
"545 866 OFFCURVE",
"495 914 OFFCURVE",
"432 914 CURVE SMOOTH",
"369 914 OFFCURVE",
"319 866 OFFCURVE",
"319 804 CURVE SMOOTH",
"319 741 OFFCURVE",
"369 692 OFFCURVE",
"432 692 CURVE SMOOTH"
);
},
{
closed = 1;
nodes = (
"406 756 OFFCURVE",
"387 778 OFFCURVE",
"387 804 CURVE SMOOTH",
"387 829 OFFCURVE",
"406 850 OFFCURVE",
"432 850 CURVE SMOOTH",
"458 850 OFFCURVE",
"476 829 OFFCURVE",
"476 804 CURVE SMOOTH",
"476 778 OFFCURVE",
"458 756 OFFCURVE",
"432 756 CURVE SMOOTH"
);
}
);
width = 777;
},
{
layerId = "EADB5E4A-85D8-40DB-A3FC-C2FF30FE6B12";
paths = (
{
closed = 1;
nodes = (
"59 -17 LINE",
"419 694 LINE",
"386 711 LINE",
"630 0 LINE",
"698 -21 LINE",
"436 728 LINE",
"394 749 LINE",
"7 0 LINE"
);
},
{
closed = 1;
nodes = (
"580 198 LINE",
"567 246 LINE",
"176 246 LINE",
"156 198 LINE"
);
},
{
closed = 1;
nodes = (
"466 697 OFFCURVE",
"511 741 OFFCURVE",
"511 796 CURVE SMOOTH",
"511 852 OFFCURVE",
"466 896 OFFCURVE",
"411 896 CURVE SMOOTH",
"355 896 OFFCURVE",
"310 852 OFFCURVE",
"310 796 CURVE SMOOTH",
"310 741 OFFCURVE",
"355 697 OFFCURVE",
"411 697 CURVE SMOOTH"
);
},
{
closed = 1;
nodes = (
"381 743 OFFCURVE",
"358 766 OFFCURVE",
"358 796 CURVE SMOOTH",
"358 826 OFFCURVE",
"381 850 OFFCURVE",
"411 850 CURVE SMOOTH",
"441 850 OFFCURVE",
"463 826 OFFCURVE",
"463 796 CURVE SMOOTH",
"463 766 OFFCURVE",
"441 743 OFFCURVE",
"411 743 CURVE SMOOTH"
);
}
);
width = 741;
}
);
leftKerningGroup = A;
leftMetricsKey = A;
widthMetricsKey = A;
rightKerningGroup = A;
unicode = 00C5;
},
{
glyphname = Aringacute;
lastChange = "2016-09-21 13:15:46 +0000";
layers = (
{
layerId = "E3EC4F6D-0AFB-4C34-B4C6-20524166427F";
paths = (
{
closed = 1;
nodes = (
"134 0 LINE",
"438 600 LINE",
"400 600 LINE",
"612 0 LINE",
"769 0 LINE",
"491 728 LINE",
"360 728 LINE",
"-31 0 LINE"
);
},
{
closed = 1;
nodes = (
"620 160 LINE",
"569 284 LINE",
"205 284 LINE",
"133 160 LINE"
);
},
{
closed = 1;
nodes = (
"495 692 OFFCURVE",
"545 741 OFFCURVE",
"545 804 CURVE SMOOTH",
"545 866 OFFCURVE",
"495 914 OFFCURVE",
"432 914 CURVE SMOOTH",
"369 914 OFFCURVE",
"319 866 OFFCURVE",
"319 804 CURVE SMOOTH",
"319 741 OFFCURVE",
"369 692 OFFCURVE",
"432 692 CURVE SMOOTH"
);
},
{
closed = 1;
nodes = (
"406 756 OFFCURVE",
"387 778 OFFCURVE",
"387 804 CURVE SMOOTH",
"387 829 OFFCURVE",
"406 850 OFFCURVE",
"432 850 CURVE SMOOTH",
"458 850 OFFCURVE",
"476 829 OFFCURVE",
"476 804 CURVE SMOOTH",
"476 778 OFFCURVE",
"458 756 OFFCURVE",
"432 756 CURVE SMOOTH"
);
},
{
closed = 1;
nodes = (
"709 977 LINE",
"556 977 LINE",
"471 886 LINE",
"530 841 LINE"
);
}
);
width = 777;
},
{
layerId = "EADB5E4A-85D8-40DB-A3FC-C2FF30FE6B12";
paths = (
{
closed = 1;
nodes = (
"68 0 LINE",
"419 694 LINE",
"392 694 LINE",
"634 0 LINE",
"689 0 LINE",
"432 728 LINE",
"382 728 LINE",
"11 0 LINE"
);
},
{
closed = 1;
nodes = (
"580 198 LINE",
"567 246 LINE",
"176 246 LINE",
"156 198 LINE"
);
},
{
closed = 1;
nodes = (
"466 697 OFFCURVE",
"511 741 OFFCURVE",
"511 796 CURVE SMOOTH",
"511 852 OFFCURVE",
"466 896 OFFCURVE",
"411 896 CURVE SMOOTH",
"355 896 OFFCURVE",
"310 852 OFFCURVE",
"310 796 CURVE SMOOTH",
"310 741 OFFCURVE",
"355 697 OFFCURVE",
"411 697 CURVE SMOOTH"
);
},
{
closed = 1;
nodes = (
"381 743 OFFCURVE",
"358 766 OFFCURVE",
"358 796 CURVE SMOOTH",
"358 826 OFFCURVE",
"381 850 OFFCURVE",
"411 850 CURVE SMOOTH",
"441 850 OFFCURVE",
"463 826 OFFCURVE",
"463 796 CURVE SMOOTH",
"463 766 OFFCURVE",
"441 743 OFFCURVE",
"411 743 CURVE SMOOTH"
);
},
{
closed = 1;
nodes = (
"648 970 LINE",
"570 970 LINE",
"460 863 LINE",
"491 845 LINE"
);
}
);
width = 741;
}
);
leftKerningGroup = A;
leftMetricsKey = A;
widthMetricsKey = A;
rightKerningGroup = A;
unicode = 01FA;
},
{
glyphname = AE;
lastChange = "2016-09-21 13:15:46 +0000";
layers = (
{
anchors = (
{
name = bottom;
position = "{502, 0}";
},
{
name = top;
position = "{562, 728}";
}
);
layerId = "E3EC4F6D-0AFB-4C34-B4C6-20524166427F";
paths = (
{
closed = 1;
nodes = (
"127 0 LINE",
"544 624 LINE",
"509 602 LINE",
"1024 602 LINE",
"1033 728 LINE",
"464 728 LINE",
"-52 0 LINE"
);
},
{
closed = 1;
nodes = (
"597 160 LINE",
"571 284 LINE",
"206 284 LINE",
"134 160 LINE"
);
},
{
closed = 1;
nodes = (
"976 0 LINE",
"987 126 LINE",
"691 126 LINE",
"694 656 LINE",
"549 656 LINE",
"540 0 LINE"
);
},
{
closed = 1;
nodes = (
"979 307 LINE",
"990 433 LINE",
"600 433 LINE",
"590 307 LINE"
);
}
);
width = 1034;
},
{
anchors = (
{
name = bottom;
position = "{513, 0}";
},
{
name = top;
position = "{628, 728}";
}
);
layerId = "EADB5E4A-85D8-40DB-A3FC-C2FF30FE6B12";
paths = (
{
closed = 1;
nodes = (
"52 0 LINE",
"513 689 LINE",
"486 680 LINE",
"999 680 LINE",
"1001 728 LINE",
"483 728 LINE",
"-9 0 LINE"
);
},
{
closed = 1;
nodes = (
"584 198 LINE",
"578 246 LINE",
"166 246 LINE",
"147 198 LINE"
);
},
{
closed = 1;
nodes = (
"944 0 LINE",
"948 49 LINE",
"602 49 LINE",
"592 704 LINE",
"545 704 LINE",
"556 0 LINE"
);
},
{
closed = 1;
nodes = (
"950 346 LINE",
"955 394 LINE",
"588 394 LINE",
"584 346 LINE"
);
}
);
width = 1020;
}
);
leftKerningGroup = A;
rightKerningGroup = E;
rightMetricsKey = E;
unicode = 00C6;
userData = {
com.typemytype.robofont.layerData = {
b = {
anchors = (
);
components = (
);
contours = (
);
lib = {
};
name = AE;
unicodes = (
);
width = 1976;
};
};
};
},
{
glyphname = B;
lastChange = "2016-09-21 13:15:46 +0000";
layers = (
{
anchors = (
{
name = bottom;
position = "{342, 0}";
},
{
name = top;
position = "{398, 728}";
}
);
layerId = "E3EC4F6D-0AFB-4C34-B4C6-20524166427F";
paths = (
{
closed = 1;
nodes = (
"405 0 LINE SMOOTH",
"566 0 OFFCURVE",
"671 73 OFFCURVE",
"671 208 CURVE SMOOTH",
"671 291 OFFCURVE",
"624 361 OFFCURVE",
"537 378 CURVE",
"537 370 LINE",
"633 401 OFFCURVE",
"680 460 OFFCURVE",
"680 545 CURVE SMOOTH",
"680 652 OFFCURVE",
"599 728 OFFCURVE",
"437 728 CURVE SMOOTH",
"110 728 LINE",
"54 0 LINE"
);
},
{
closed = 1;
nodes = (
"259 604 LINE",
"410 604 LINE SMOOTH",
"490 604 OFFCURVE",
"524 574 OFFCURVE",
"524 522 CURVE SMOOTH",
"524 459 OFFCURVE",
"484 433 OFFCURVE",
"398 433 CURVE SMOOTH",
"229 433 LINE",
"219 308 LINE",
"404 308 LINE SMOOTH",
"485 308 OFFCURVE",
"521 278 OFFCURVE",
"521 218 CURVE SMOOTH",
"521 150 OFFCURVE",
"480 124 OFFCURVE",
"392 124 CURVE SMOOTH",
"222 124 LINE"
);
}
);
width = 713;
},
{
anchors = (
{
name = bottom;
position = "{330, 0}";
},
{
name = top;
position = "{385, 728}";
}
);
layerId = "EADB5E4A-85D8-40DB-A3FC-C2FF30FE6B12";
paths = (
{
closed = 1;
nodes = (
"373 0 LINE SMOOTH",
"528 0 OFFCURVE",
"616 77 OFFCURVE",
"616 211 CURVE SMOOTH",
"616 300 OFFCURVE",
"567 359 OFFCURVE",
"472 375 CURVE",
"484 368 LINE",
"579 396 OFFCURVE",
"626 463 OFFCURVE",
"626 551 CURVE SMOOTH",
"626 665 OFFCURVE",
"550 728 OFFCURVE",
"398 728 CURVE SMOOTH",
"133 728 LINE",
"76 0 LINE"
);
},
{
closed = 1;
nodes = (
"184 681 LINE",
"399 681 LINE SMOOTH",
"513 681 OFFCURVE",
"572 637 OFFCURVE",
"572 552 CURVE SMOOTH",
"572 449 OFFCURVE",
"502 394 OFFCURVE",
"386 394 CURVE SMOOTH",
"148 394 LINE",
"145 346 LINE",
"387 346 LINE SMOOTH",
"505 346 OFFCURVE",
"562 296 OFFCURVE",
"562 205 CURVE SMOOTH",
"562 100 OFFCURVE",
"495 48 OFFCURVE",
"375 48 CURVE SMOOTH",
"133 48 LINE"
);
}
);
width = 690;
}
);
leftKerningGroup = H;
leftMetricsKey = H;
rightKerningGroup = B;
unicode = 0042;
userData = {
anchors = (
);
b = {
};
com.typemytype.robofont.layerData = {
b = {
anchors = (
);
components = (
);
contours = (
{
points = (
{
segmentType = curve;
smooth = 1;
x = 266;
y = 0;
},
{
segmentType = line;
smooth = 1;
x = 1035;
y = 0;
},
{
smooth = 0;
x = 1084;
y = 0;
},
{
smooth = 0;
x = 1108;
y = 36;
},
{
segmentType = curve;
smooth = 1;
x = 1108;
y = 73;
},
{
smooth = 0;
x = 1108;
y = 109;
},
{
smooth = 0;
x = 1084;
y = 145;
},
{
segmentType = curve;
smooth = 1;
x = 1035;
y = 145;
},
{
segmentType = line;
smooth = 0;
x = 353;
y = 145;
},
{
segmentType = line;
smooth = 0;
x = 353;
y = 662;
},
{
segmentType = line;
smooth = 1;
x = 975;
y = 662;
},
{
smooth = 0;
x = 1024;
y = 662;
},
{
smooth = 0;
x = 1049;
y = 698;
},
{
segmentType = curve;
smooth = 1;
x = 1049;
y = 734;
},
{
smooth = 0;
x = 1049;
y = 770;
},
{
smooth = 0;
x = 1026;
y = 806;
},
{
segmentType = curve;
smooth = 1;
x = 975;
y = 806;
},
{
segmentType = line;
smooth = 0;
x = 353;
y = 806;
},
{
segmentType = line;
smooth = 0;
x = 353;
y = 1281;
},
{
segmentType = line;
smooth = 1;
x = 1007;
y = 1281;
},
{
smooth = 0;
x = 1056;
y = 1281;
},
{
smooth = 0;
x = 1080;
y = 1317;
},
{
segmentType = curve;
smooth = 1;
x = 1080;
y = 1354;
},
{
smooth = 0;
x = 1080;
y = 1390;
},
{
smooth = 0;
x = 1056;
y = 1426;
},
{
segmentType = curve;
smooth = 1;
x = 1007;
y = 1426;
},
{
segmentType = line;
smooth = 1;
x = 261;
y = 1426;
},
{
smooth = 0;
x = 213;
y = 1426;
},
{
smooth = 0;
x = 178;
y = 1383;
},
{
segmentType = curve;
smooth = 1;
x = 178;
y = 1340;
},
{
segmentType = line;
smooth = 1;
x = 178;
y = 86;
},
{
smooth = 0;
x = 178;
y = 41;
},
{
smooth = 0;
x = 222;
y = 0;
}
);
}
);
lib = {
};
name = B;
unicodes = (
);
width = 1292;
};
};
components = (
);
contours = {
};
lib = {
};
name = B;
points = {
};
segmentType = curve;
unicodes = (
);
width = 1395;
x = 676;
y = 1260;
};
},
{
glyphname = C;
lastChange = "2016-09-21 13:15:46 +0000";
layers = (
{
anchors = (
{
name = bottom;
position = "{388, 0}";
},
{
name = top;
position = "{445, 728}";
}
);
layerId = "E3EC4F6D-0AFB-4C34-B4C6-20524166427F";
paths = (
{
closed = 1;
nodes = (
"500 -9 OFFCURVE",
"595 23 OFFCURVE",
"648 74 CURVE",
"605 190 LINE",
"534 143 OFFCURVE",
"471 121 OFFCURVE",
"410 121 CURVE SMOOTH",
"289 121 OFFCURVE",
"224 197 OFFCURVE",
"224 340 CURVE SMOOTH",
"224 505 OFFCURVE",
"304 607 OFFCURVE",
"447 607 CURVE SMOOTH",
"515 607 OFFCURVE",
"571 587 OFFCURVE",
"633 538 CURVE",
"693 654 LINE",
"628 709 OFFCURVE",
"539 738 OFFCURVE",
"440 738 CURVE SMOOTH",
"210 738 OFFCURVE",
"60 582 OFFCURVE",
"60 340 CURVE SMOOTH",
"60 125 OFFCURVE",
"191 -9 OFFCURVE",
"404 -9 CURVE SMOOTH"
);
}
);
width = 700;
},
{
anchors = (
{
name = bottom;
position = "{375, 0}";
},
{
name = top;
position = "{433, 728}";
}
);
layerId = "EADB5E4A-85D8-40DB-A3FC-C2FF30FE6B12";
paths = (
{
closed = 1;
nodes = (
"479 -8 OFFCURVE",
"563 25 OFFCURVE",
"631 88 CURVE",
"609 131 LINE",
"540 66 OFFCURVE",
"464 40 OFFCURVE",
"388 40 CURVE SMOOTH",
"224 40 OFFCURVE",
"131 146 OFFCURVE",
"131 331 CURVE SMOOTH",
"131 553 OFFCURVE",
"236 688 OFFCURVE",
"413 688 CURVE SMOOTH",
"514 688 OFFCURVE",
"580 661 OFFCURVE",
"646 598 CURVE",
"675 640 LINE",
"614 705 OFFCURVE",
"524 737 OFFCURVE",
"416 737 CURVE SMOOTH",
"206 737 OFFCURVE",
"75 578 OFFCURVE",
"75 332 CURVE SMOOTH",
"75 120 OFFCURVE",
"194 -8 OFFCURVE",
"374 -8 CURVE SMOOTH"
);
}
);
width = 699;
}
);
leftKerningGroup = O;
leftMetricsKey = O;
rightKerningGroup = C;
unicode = 0043;
userData = {
anchors = (
);
b = {
};
com.typemytype.robofont.layerData = {
b = {
anchors = (
);
components = (
);
contours = (
);
lib = {
};
name = C;
unicodes = (
);
width = 1353.8900;
};
};
components = (
);
contours = (
);
lib = {
};
name = C;
unicodes = (
);
width = 1354;
};
},
{
glyphname = D;
lastChange = "2016-09-21 13:15:46 +0000";
layers = (
{
anchors = (
{
name = bottom;
position = "{375, 0}";
},
{
name = center;
position = "{404, 365}";
},
{
name = top;
position = "{432, 728}";
}
);
layerId = "E3EC4F6D-0AFB-4C34-B4C6-20524166427F";
paths = (
{
closed = 1;
nodes = (
"349 0 LINE SMOOTH",
"601 0 OFFCURVE",
"748 143 OFFCURVE",
"748 388 CURVE SMOOTH",
"748 598 OFFCURVE",
"613 728 OFFCURVE",
"393 728 CURVE SMOOTH",
"110 728 LINE",
"54 0 LINE"
);
},
{
closed = 1;
nodes = (
"262 597 LINE",
"371 597 LINE SMOOTH",
"511 597 OFFCURVE",
"586 525 OFFCURVE",
"586 389 CURVE SMOOTH",
"586 215 OFFCURVE",
"504 131 OFFCURVE",
"336 131 CURVE SMOOTH",
"225 131 LINE"
);
}
);
width = 790;
},
{
anchors = (
{
name = bottom;
position = "{357, 0}";
},
{
name = center;
position = "{386, 365}";
},
{
name = top;
position = "{413, 728}";
}
);
layerId = "EADB5E4A-85D8-40DB-A3FC-C2FF30FE6B12";
paths = (
{
closed = 1;
nodes = (
"334 0 LINE SMOOTH",
"565 0 OFFCURVE",
"693 150 OFFCURVE",
"693 396 CURVE SMOOTH",
"693 608 OFFCURVE",
"576 728 OFFCURVE",
"357 728 CURVE SMOOTH",
"133 728 LINE",
"76 0 LINE"
);
},
{
closed = 1;
nodes = (
"184 682 LINE",
"357 682 LINE SMOOTH",
"546 682 OFFCURVE",
"637 584 OFFCURVE",
"637 397 CURVE SMOOTH",
"637 176 OFFCURVE",
"535 47 OFFCURVE",
"333 47 CURVE SMOOTH",
"133 47 LINE"
);
}
);
width = 752;
}
);
leftKerningGroup = H;
leftMetricsKey = I;
rightKerningGroup = O;
rightMetricsKey = O;
unicode = 0044;
userData = {
anchors = (
);
b = {
};
com.typemytype.robofont.layerData = {
b = {
anchors = (
);
components = (
);
contours = (
{
points = (
{
segmentType = curve;
smooth = 1;
x = 266;
y = 0;
},
{
segmentType = line;
smooth = 1;
x = 1035;
y = 0;
},
{
smooth = 0;
x = 1084;
y = 0;
},
{
smooth = 0;
x = 1108;
y = 34;
},
{
segmentType = curve;
smooth = 1;
x = 1108;
y = 71;
},
{
smooth = 0;
x = 1108;
y = 107;
},
{
smooth = 0;
x = 1084;
y = 141;
},
{
segmentType = curve;
smooth = 1;
x = 1035;
y = 141;
},
{
segmentType = line;
smooth = 0;
x = 356;
y = 141;
},
{
segmentType = line;
smooth = 0;
x = 356;
y = 665;
},
{
segmentType = line;
smooth = 1;
x = 975;
y = 665;
},
{
smooth = 0;
x = 1024;
y = 665;
},
{
smooth = 0;
x = 1049;
y = 698;
},
{
segmentType = curve;
smooth = 1;
x = 1049;
y = 734;
},
{
smooth = 0;
x = 1049;
y = 770;
},
{
smooth = 0;
x = 1026;
y = 803;
},
{
segmentType = curve;
smooth = 1;
x = 975;
y = 803;
},
{
segmentType = line;
smooth = 0;
x = 356;
y = 803;
},
{
segmentType = line;
smooth = 0;
x = 356;
y = 1285;
},
{
segmentType = line;
smooth = 1;
x = 1007;
y = 1285;
},
{
smooth = 0;
x = 1056;
y = 1285;
},
{
smooth = 0;
x = 1080;
y = 1319;
},
{
segmentType = curve;
smooth = 1;
x = 1080;
y = 1356;
},
{
smooth = 0;
x = 1080;
y = 1392;
},
{
smooth = 0;
x = 1056;
y = 1426;
},
{
segmentType = curve;
smooth = 1;
x = 1007;
y = 1426;
},
{
segmentType = line;
smooth = 1;
x = 261;
y = 1426;
},
{
smooth = 0;
x = 213;
y = 1426;
},
{
smooth = 0;
x = 178;
y = 1383;
},
{
segmentType = curve;
smooth = 1;
x = 178;
y = 1340;
},
{
segmentType = line;
smooth = 1;
x = 178;
y = 86;
},
{
smooth = 0;
x = 178;
y = 41;
},
{
smooth = 0;
x = 222;
y = 0;
}
);
}
);
lib = {
};
name = D;
unicodes = (
);
width = 1499;
};
};
components = (
);
contours = (
);
lib = {
};
name = D;
unicodes = (
);
width = 1535;
};
},
{
glyphname = Eth;
lastChange = "2016-09-21 13:15:46 +0000";
layers = (
{
layerId = "E3EC4F6D-0AFB-4C34-B4C6-20524166427F";
paths = (
{
closed = 1;
nodes = (
"461 307 LINE",
"471 430 LINE",
"30 430 LINE",
"20 307 LINE"
);
},
{
closed = 1;
nodes = (
"379 0 LINE SMOOTH",
"631 0 OFFCURVE",
"778 143 OFFCURVE",
"778 388 CURVE SMOOTH",
"778 598 OFFCURVE",
"643 728 OFFCURVE",
"423 728 CURVE SMOOTH",
"140 728 LINE",
"84 0 LINE"
);
},
{
closed = 1;
nodes = (
"292 597 LINE",
"402 597 LINE SMOOTH",
"541 597 OFFCURVE",
"616 525 OFFCURVE",
"616 389 CURVE SMOOTH",
"616 215 OFFCURVE",
"534 131 OFFCURVE",
"366 131 CURVE SMOOTH",
"256 131 LINE"
);
}
);
width = 820;
},
{
layerId = "EADB5E4A-85D8-40DB-A3FC-C2FF30FE6B12";
paths = (
{
closed = 1;
nodes = (
"365 347 LINE",
"369 393 LINE",
"17 393 LINE",
"12 347 LINE"
);
},
{
closed = 1;
nodes = (
"340 0 LINE SMOOTH",
"571 0 OFFCURVE",
"700 150 OFFCURVE",
"700 396 CURVE SMOOTH",
"700 608 OFFCURVE",
"583 728 OFFCURVE",
"364 728 CURVE SMOOTH",
"140 728 LINE",
"84 0 LINE"
);
},
{
closed = 1;
nodes = (
"190 682 LINE",
"364 682 LINE SMOOTH",
"553 682 OFFCURVE",
"645 584 OFFCURVE",
"645 397 CURVE SMOOTH",
"645 176 OFFCURVE",
"541 47 OFFCURVE",
"339 47 CURVE SMOOTH",
"141 47 LINE"
);
}
);
width = 758;
}
);
leftKerningGroup = H;
rightKerningGroup = O;
rightMetricsKey = O;
unicode = 00D0;
},
{
glyphname = E;
lastChange = "2016-09-21 13:15:46 +0000";
layers = (
{
anchors = (
{
name = bottom;
position = "{322, 0}";
},
{
name = ogonek;
position = "{534, 10}";
},
{
name = top;
position = "{379, 728}";
},
{
name = topleft;
position = "{59, 728}";
}
);
layerId = "E3EC4F6D-0AFB-4C34-B4C6-20524166427F";
paths = (
{
closed = 1;
nodes = (
"556 0 LINE",
"565 126 LINE",
"221 126 LINE",
"258 602 LINE",
"603 602 LINE",
"614 728 LINE",
"110 728 LINE",
"53 0 LINE"
);
},
{
closed = 1;
nodes = (
"559 307 LINE",
"569 433 LINE",
"228 433 LINE",
"218 307 LINE"
);
}
);
width = 613;
},
{
anchors = (
{
name = bottom;
position = "{312, 0}";
},
{
name = ogonek;
position = "{502, 10}";
},
{
name = top;
position = "{369, 728}";
},
{
name = topleft;
position = "{64, 728}";
}
);
layerId = "EADB5E4A-85D8-40DB-A3FC-C2FF30FE6B12";
paths = (
{
closed = 1;
nodes = (
"521 0 LINE",
"525 48 LINE",
"133 48 LINE",
"184 682 LINE",
"574 682 LINE",
"577 728 LINE",
"133 728 LINE",
"76 0 LINE"
);
},
{
closed = 1;
nodes = (
"527 346 LINE",
"531 394 LINE",
"148 394 LINE",
"145 346 LINE"
);
}
);
width = 597;
}
);
leftKerningGroup = H;
leftMetricsKey = H;
rightKerningGroup = E;
unicode = 0045;
userData = {
anchors = (
);
b = {
};
com.typemytype.robofont.layerData = {
b = {
anchors = (
);
components = (
);
contours = (
);
lib = {
};
name = E;
unicodes = (
);
width = 1234;
};
};
components = (
);
contours = (
);
lib = {
};
name = E;
unicodes = (
);
width = 1258;
};
},
{
glyphname = Eogonek;
lastChange = "2016-09-21 13:15:46 +0000";
layers = (
{
anchors = (
{
name = top;
position = "{379, 728}";
}
);
layerId = "E3EC4F6D-0AFB-4C34-B4C6-20524166427F";
paths = (
{
closed = 1;
nodes = (
"218 307 LINE",
"559 307 LINE",
"569 433 LINE",
"228 433 LINE"
);
},
{
closed = 1;
nodes = (
"258 602 LINE",
"602 602 LINE",
"613 728 LINE",
"110 728 LINE",
"53 0 LINE",
"447 0 LINE",
"431 21 LINE",
"378 -5 OFFCURVE",
"353 -48 OFFCURVE",
"353 -94 CURVE SMOOTH",
"353 -158 OFFCURVE",
"403 -204 OFFCURVE",
"483 -204 CURVE SMOOTH",
"517 -204 OFFCURVE",
"550 -196 OFFCURVE",
"581 -183 CURVE",
"569 -109 LINE",
"547 -118 OFFCURVE",
"528 -122 OFFCURVE",
"510 -122 CURVE SMOOTH",
"477 -122 OFFCURVE",
"456 -103 OFFCURVE",
"456 -70 CURVE SMOOTH",
"456 -29 OFFCURVE",
"489 0 OFFCURVE",
"533 0 CURVE SMOOTH",
"556 0 LINE",
"565 126 LINE",
"221 126 LINE"
);
}
);
width = 613;
},
{
anchors = (
{
name = top;
position = "{369, 728}";
}
);
layerId = "EADB5E4A-85D8-40DB-A3FC-C2FF30FE6B12";
paths = (
{
closed = 1;
nodes = (
"145 346 LINE",
"527 346 LINE",
"531 394 LINE",
"148 394 LINE"
);
},
{
closed = 1;
nodes = (
"184 682 LINE",
"574 682 LINE",
"577 728 LINE",
"133 728 LINE",
"76 0 LINE",
"443 0 LINE",
"424 20 LINE",
"376 -5 OFFCURVE",
"348 -45 OFFCURVE",
"348 -98 CURVE SMOOTH",
"348 -157 OFFCURVE",
"390 -197 OFFCURVE",
"459 -197 CURVE SMOOTH",
"490 -197 OFFCURVE",
"522 -186 OFFCURVE",
"540 -174 CURVE",
"527 -133 LINE",
"504 -148 OFFCURVE",
"480 -154 OFFCURVE",
"464 -154 CURVE SMOOTH",
"423 -154 OFFCURVE",
"399 -132 OFFCURVE",
"399 -88 CURVE SMOOTH",
"399 -41 OFFCURVE",
"429 0 OFFCURVE",
"508 0 CURVE SMOOTH",
"521 0 LINE",
"525 48 LINE",
"133 48 LINE"
);
}
);
width = 597;
}
);
leftKerningGroup = H;
leftMetricsKey = E;
widthMetricsKey = E;
rightKerningGroup = E;
unicode = 0118;
userData = {
com.typemytype.robofont.layerData = {
b = {
anchors = (
);
components = (
);
contours = (
);
lib = {
};
name = Eogonek;
unicodes = (
);
width = 1234;
};
};
};
},
{
glyphname = F;
lastChange = "2016-09-21 13:15:46 +0000";
layers = (
{
anchors = (
{
name = bottom;
position = "{307, 0}";
},
{
name = top;
position = "{335, 728}";
}
);
layerId = "E3EC4F6D-0AFB-4C34-B4C6-20524166427F";
paths = (
{
closed = 1;
nodes = (
"220 307 LINE",
"549 307 LINE",
"559 434 LINE",
"230 434 LINE"
);
},
{
closed = 1;
nodes = (
"260 600 LINE",
"592 600 LINE",
"602 728 LINE",
"110 728 LINE",
"53 0 LINE",
"213 0 LINE"
);
}
);
width = 591;
},
{
anchors = (
{
name = bottom;
position = "{296, 0}";
},
{
name = top;
position = "{332, 728}";
}
);
layerId = "EADB5E4A-85D8-40DB-A3FC-C2FF30FE6B12";
paths = (
{
closed = 1;
nodes = (
"145 346 LINE",
"517 346 LINE",
"521 394 LINE",
"148 394 LINE"
);
},
{
closed = 1;
nodes = (
"184 682 LINE",
"564 682 LINE",
"567 728 LINE",
"133 728 LINE",
"76 0 LINE",
"129 0 LINE"
);
}
);
width = 569;
}
);
leftKerningGroup = H;
leftMetricsKey = H;
rightKerningGroup = F;
unicode = 0046;
userData = {
anchors = (
);
b = {
};
com.typemytype.robofont.layerData = {
b = {
anchors = (
);
components = (
);
contours = (
{
points = (
{
segmentType = curve;
smooth = 1;
x = 266;
y = 0;
},
{
segmentType = line;
smooth = 1;
x = 1035;
y = 0;
},
{
smooth = 0;
x = 1084;
y = 0;
},
{
smooth = 0;
x = 1108;
y = 34;
},
{
segmentType = curve;
smooth = 1;
x = 1108;
y = 71;
},
{
smooth = 0;
x = 1108;
y = 107;
},
{
smooth = 0;
x = 1084;
y = 141;
},
{
segmentType = curve;
smooth = 1;
x = 1035;
y = 141;
},
{
segmentType = line;
smooth = 0;
x = 353;
y = 141;
},
{
segmentType = line;
smooth = 0;
x = 353;
y = 665;
},
{
segmentType = line;
smooth = 1;
x = 975;
y = 665;
},
{
smooth = 0;
x = 1024;
y = 665;
},
{
smooth = 0;
x = 1049;
y = 698;
},
{
segmentType = curve;
smooth = 1;
x = 1049;
y = 734;
},
{
smooth = 0;
x = 1049;
y = 770;
},
{
smooth = 0;
x = 1026;
y = 803;
},
{
segmentType = curve;
smooth = 1;
x = 975;
y = 803;
},
{
segmentType = line;
smooth = 0;
x = 353;
y = 803;
},
{
segmentType = line;
smooth = 0;
x = 353;
y = 1285;
},
{
segmentType = line;
smooth = 1;
x = 1007;
y = 1285;
},
{
smooth = 0;
x = 1056;
y = 1285;
},
{
smooth = 0;
x = 1080;
y = 1319;
},
{
segmentType = curve;
smooth = 1;
x = 1080;
y = 1356;
},
{
smooth = 0;
x = 1080;
y = 1392;
},
{
smooth = 0;
x = 1056;
y = 1426;
},
{
segmentType = curve;
smooth = 1;
x = 1007;
y = 1426;
},
{
segmentType = line;
smooth = 1;
x = 261;
y = 1426;
},
{
smooth = 0;
x = 213;
y = 1426;
},
{
smooth = 0;
x = 178;
y = 1383;
},
{
segmentType = curve;
smooth = 1;
x = 178;
y = 1340;
},
{
segmentType = line;
smooth = 1;
x = 178;
y = 86;
},
{
smooth = 0;
x = 178;
y = 41;
},
{
smooth = 0;
x = 222;
y = 0;
}
);
}
);
lib = {
};
name = F;
unicodes = (
);
width = 1142;
};
};
components = (
);
contours = (
);
lib = {
};
name = F;
unicodes = (
);
width = 1175;
};
},
{
glyphname = G;
lastChange = "2016-09-21 13:15:46 +0000";
layers = (
{
anchors = (
{
name = bottom;
position = "{408, 0}";
},
{
name = top;
position = "{458, 728}";
}
);
layerId = "E3EC4F6D-0AFB-4C34-B4C6-20524166427F";
paths = (
{
closed = 1;
nodes = (
"514 -9 OFFCURVE",
"615 11 OFFCURVE",
"683 48 CURVE",
"711 403 LINE",
"424 403 LINE",
"414 289 LINE",
"557 289 LINE",
"541 89 LINE",
"581 145 LINE",
"530 125 OFFCURVE",
"479 116 OFFCURVE",
"432 116 CURVE SMOOTH",
"289 116 OFFCURVE",
"223 197 OFFCURVE",
"223 339 CURVE SMOOTH",
"223 505 OFFCURVE",
"305 605 OFFCURVE",
"448 608 CURVE SMOOTH",
"532 610 OFFCURVE",
"589 587 OFFCURVE",
"650 538 CURVE",
"711 654 LINE",
"646 709 OFFCURVE",
"557 738 OFFCURVE",
"446 738 CURVE SMOOTH",
"210 738 OFFCURVE",
"60 582 OFFCURVE",
"60 339 CURVE SMOOTH",
"60 125 OFFCURVE",
"191 -9 OFFCURVE",
"410 -9 CURVE SMOOTH"
);
}
);
width = 762;
},
{
anchors = (
{
name = bottom;
position = "{386, 0}";
},
{
name = top;
position = "{436, 728}";
}
);
layerId = "EADB5E4A-85D8-40DB-A3FC-C2FF30FE6B12";
paths = (
{
closed = 1;
nodes = (
"478 -8 OFFCURVE",
"577 12 OFFCURVE",
"636 41 CURVE",
"662 370 LINE",
"416 370 LINE",
"412 322 LINE",
"608 322 LINE",
"587 41 LINE",
"603 81 LINE",
"546 56 OFFCURVE",
"468 40 OFFCURVE",
"399 40 CURVE SMOOTH",
"219 40 OFFCURVE",
"130 146 OFFCURVE",
"130 325 CURVE SMOOTH",
"130 552 OFFCURVE",
"242 688 OFFCURVE",
"430 688 CURVE SMOOTH",
"514 687 OFFCURVE",
"578 661 OFFCURVE",
"650 597 CURVE",
"678 640 LINE",
"613 705 OFFCURVE",
"529 735 OFFCURVE",
"430 735 CURVE SMOOTH",
"212 735 OFFCURVE",
"74 575 OFFCURVE",
"74 321 CURVE SMOOTH",
"74 116 OFFCURVE",
"187 -8 OFFCURVE",
"401 -8 CURVE SMOOTH"
);
}
);
width = 742;
}
);
leftKerningGroup = O;
leftMetricsKey = O;
rightKerningGroup = G;
unicode = 0047;
userData = {
anchors = (
);
b = {
};
com.typemytype.robofont.layerData = {
b = {
anchors = (
);
components = (
);
contours = (
{
points = (
{
segmentType = curve;
smooth = 1;
x = 783;
y = "-22";
},
{
smooth = 0;
x = 965;
y = "-22";
},
{
smooth = 0;
x = 1086;
y = 34;
},
{
segmentType = curve;
smooth = 1;
x = 1166;
y = 86;
},
{
smooth = 0;
x = 1270;
y = 154;
},
{
smooth = 0;
x = 1186;
y = 258;
},
{
segmentType = curve;
smooth = 1;
x = 1112;
y = 214;
},
{
smooth = 0;
x = 1024;
y = 162;
},
{
smooth = 0;
x = 939;
y = 120;
},
{
segmentType = curve;
smooth = 1;
x = 806;
y = 120;
},
{
smooth = 0;
x = 446;
y = 120;
},
{
smooth = 0;
x = 316;
y = 406;
},
{
segmentType = curve;
smooth = 1;
x = 316;
y = 706;
},
{
smooth = 0;
x = 316;
y = 1005;
},
{
smooth = 0;
x = 450;
y = 1296;
},
{
segmentType = curve;
smooth = 1;
x = 801;
y = 1296;
},
{
smooth = 0;
x = 980;
y = 1296;
},
{
smooth = 0;
x = 1053;
y = 1246;
},
{
segmentType = curve;
smooth = 1;
x = 1094;
y = 1225;
},
{
smooth = 0;
x = 1174;
y = 1184;
},
{
smooth = 0;
x = 1231;
y = 1300;
},
{
segmentType = curve;
smooth = 1;
x = 1156;
y = 1343;
},
{
smooth = 0;
x = 1106;
y = 1372;
},
{
smooth = 0;
x = 995;
y = 1438;
},
{
segmentType = curve;
smooth = 1;
x = 797;
y = 1438;
},
{
smooth = 0;
x = 359;
y = 1438;
},
{
smooth = 0;
x = 128;
y = 1093;
},
{
segmentType = curve;
smooth = 1;
x = 128;
y = 704;
},
{
smooth = 0;
x = 128;
y = 307;
},
{
smooth = 0;
x = 350;
y = "-22";
}
);
}
);
lib = {
};
name = G;
unicodes = (
);
width = 1448;
};
};
components = (
);
contours = (
);
lib = {
};
name = G;
unicodes = (
);
width = 1538;
};
},
{
glyphname = H;
lastChange = "2016-09-21 13:15:46 +0000";
layers = (
{
anchors = (
{
name = bottom;
position = "{379, 0}";
},
{
name = center;
position = "{408, 370}";
},
{
name = top;
position = "{436, 728}";
},
{
name = topleft;
position = "{59, 728}";
}
);
layerId = "E3EC4F6D-0AFB-4C34-B4C6-20524166427F";
paths = (
{
closed = 1;
nodes = (
"704 0 LINE",
"761 728 LINE",
"602 728 LINE",
"544 0 LINE"
);
},
{
closed = 1;
nodes = (
"212 0 LINE",
"270 728 LINE",
"110 728 LINE",
"53 0 LINE"
);
},
{
closed = 1;
nodes = (
"664 306 LINE",
"675 434 LINE",
"138 434 LINE",
"128 306 LINE"
);
}
);
width = 796;
},
{
anchors = (
{
name = bottom;
position = "{370, 0}";
},
{
name = center;
position = "{399, 370}";
},
{
name = top;
position = "{426, 728}";
},
{
name = topleft;
position = "{64, 728}";
}
);
layerId = "EADB5E4A-85D8-40DB-A3FC-C2FF30FE6B12";
paths = (
{
closed = 1;
nodes = (
"661 0 LINE",
"718 728 LINE",
"665 728 LINE",
"608 0 LINE"
);
},
{
closed = 1;
nodes = (
"129 0 LINE",
"186 728 LINE",
"133 728 LINE",
"76 0 LINE"
);
},
{
closed = 1;
nodes = (
"643 346 LINE",
"646 394 LINE",
"143 394 LINE",
"138 346 LINE"
);
}
);
width = 778;
}
);
leftKerningGroup = H;
rightKerningGroup = H;
unicode = 0048;
userData = {
anchors = (
);
b = {
};
com.typemytype.robofont.layerData = {
b = {
anchors = (
);
components = (
);
contours = (
);
lib = {
};
name = H;
unicodes = (
);
width = 1464;
};
};
components = (
);
contours = (
);
lib = {
};
name = H;
unicodes = (
);
width = 1524;
};
},
{
glyphname = Hbar;
lastChange = "2016-09-21 13:15:46 +0000";
layers = (
{
layerId = "E3EC4F6D-0AFB-4C34-B4C6-20524166427F";
paths = (
{
closed = 1;
nodes = (
"866 525 LINE",
"875 644 LINE",
"45 644 LINE",
"37 525 LINE"
);
},
{
closed = 1;
nodes = (
"754 0 LINE",
"812 728 LINE",
"653 728 LINE",
"595 0 LINE"
);
},
{
closed = 1;
nodes = (
"262 0 LINE",
"319 728 LINE",
"160 728 LINE",
"102 0 LINE"
);
},
{
closed = 1;
nodes = (
"714 306 LINE",
"724 434 LINE",
"189 434 LINE",
"179 306 LINE"
);
}
);
width = 859;
},
{
layerId = "EADB5E4A-85D8-40DB-A3FC-C2FF30FE6B12";
paths = (
{
closed = 1;
nodes = (
"808 542 LINE",
"812 588 LINE",
"32 588 LINE",
"28 542 LINE"
);
},
{
closed = 1;
nodes = (
"666 0 LINE",
"723 728 LINE",
"670 728 LINE",
"614 0 LINE"
);
},
{
closed = 1;
nodes = (
"136 0 LINE",
"193 728 LINE",
"140 728 LINE",
"84 0 LINE"
);
},
{
closed = 1;
nodes = (
"649 346 LINE",
"653 394 LINE",
"150 394 LINE",
"146 346 LINE"
);
}
);
width = 790;
}
);
leftKerningGroup = H;
rightKerningGroup = H;
unicode = 0126;
userData = {
com.typemytype.robofont.layerData = {
b = {
anchors = (
);
components = (
);
contours = (
);
lib = {
};
name = Hbar;
unicodes = (
);
width = 1464;
};
};
};
},
{
glyphname = I;
lastChange = "2016-09-21 13:15:46 +0000";
layers = (
{
anchors = (
{
name = bottom;
position = "{135, 0}";
},
{
name = ogonek;
position = "{187, 10}";
},
{
name = top;
position = "{192, 728}";
},
{
name = topleft;
position = "{60, 728}";
}
);
layerId = "E3EC4F6D-0AFB-4C34-B4C6-20524166427F";
paths = (
{
closed = 1;
nodes = (
"216 0 LINE",
"273 728 LINE",
"110 728 LINE",
"54 0 LINE"
);
}
);
width = 308;
},
{
anchors = (
{
name = bottom;
position = "{103, 0}";
},
{
name = ogonek;
position = "{128, 10}";
},
{
name = top;
position = "{160, 728}";
},
{
name = topleft;
position = "{64, 728}";
}
);
layerId = "EADB5E4A-85D8-40DB-A3FC-C2FF30FE6B12";
paths = (
{
closed = 1;
nodes = (
"129 0 LINE",
"186 728 LINE",
"133 728 LINE",
"76 0 LINE"
);
}
);
width = 246;
}
);
leftKerningGroup = H;
leftMetricsKey = H;
rightKerningGroup = H;
rightMetricsKey = H;
unicode = 0049;
userData = {
anchors = (
);
b = {
};
com.typemytype.robofont.layerData = {
b = {
anchors = (
);
components = (
);
contours = (
);
lib = {
};
name = I;
unicodes = (
);
width = 592;
};
};
components = (
);
contours = (
);
lib = {
};
name = I;
unicodes = (
);
width = 637;
};
},
{
glyphname = Iogonek;
lastChange = "2016-09-21 13:15:46 +0000";
layers = (
{
layerId = "E3EC4F6D-0AFB-4C34-B4C6-20524166427F";
paths = (
{
closed = 1;
nodes = (
"169 -204 OFFCURVE",
"203 -196 OFFCURVE",
"234 -183 CURVE",
"222 -109 LINE",
"199 -118 OFFCURVE",
"181 -122 OFFCURVE",
"163 -122 CURVE SMOOTH",
"130 -122 OFFCURVE",
"109 -103 OFFCURVE",
"109 -70 CURVE SMOOTH",
"109 -31 OFFCURVE",
"136 0 OFFCURVE",
"199 0 CURVE SMOOTH",
"215 0 LINE",
"272 728 LINE",
"109 728 LINE",
"53 0 LINE",
"98 0 LINE",
"115 38 LINE",
"45 12 OFFCURVE",
"6 -27 OFFCURVE",
"6 -92 CURVE SMOOTH",
"6 -158 OFFCURVE",
"56 -204 OFFCURVE",
"136 -204 CURVE SMOOTH"
);
}
);
width = 307;
},
{
layerId = "EADB5E4A-85D8-40DB-A3FC-C2FF30FE6B12";
paths = (
{
closed = 1;
nodes = (
"115 -197 OFFCURVE",
"147 -186 OFFCURVE",
"165 -174 CURVE",
"152 -133 LINE",
"129 -148 OFFCURVE",
"105 -154 OFFCURVE",
"89 -154 CURVE SMOOTH",
"48 -154 OFFCURVE",
"24 -132 OFFCURVE",
"24 -87 CURVE SMOOTH",
"24 -42 OFFCURVE",
"51 0 OFFCURVE",
"126 0 CURVE SMOOTH",
"129 0 LINE",
"186 728 LINE",
"133 728 LINE",
"76 0 LINE",
"94 0 LINE",
"119 42 LINE",
"22 31 OFFCURVE",
"-27 -25 OFFCURVE",
"-27 -95 CURVE SMOOTH",
"-27 -157 OFFCURVE",
"16 -197 OFFCURVE",
"83 -197 CURVE SMOOTH"
);
}
);
width = 246;
}
);
leftKerningGroup = H;
rightKerningGroup = H;
unicode = 012E;
},
{
glyphname = J;
lastChange = "2016-09-21 13:15:46 +0000";
layers = (
{
anchors = (
{
name = bottom;
position = "{217, 0}";
},
{
name = top;
position = "{274, 728}";
}
);
layerId = "E3EC4F6D-0AFB-4C34-B4C6-20524166427F";
paths = (
{
closed = 1;
nodes = (
"195 -219 OFFCURVE",
"286 -146 OFFCURVE",
"302 44 CURVE SMOOTH",
"355 728 LINE",
"192 728 LINE",
"138 42 LINE SMOOTH",
"131 -56 OFFCURVE",
"93 -68 OFFCURVE",
"-24 -53 CURVE",
"-34 -183 LINE"
);
}
);
width = 390;
},
{
anchors = (
{
name = bottom;
position = "{172, 0}";
},
{
name = top;
position = "{228, 728}";
}
);
layerId = "EADB5E4A-85D8-40DB-A3FC-C2FF30FE6B12";
paths = (
{
closed = 1;
nodes = (
"105 -211 OFFCURVE",
"184 -165 OFFCURVE",
"197 -3 CURVE SMOOTH",
"255 728 LINE",
"202 728 LINE",
"145 -1 LINE SMOOTH",
"134 -133 OFFCURVE",
"77 -159 OFFCURVE",
"-37 -134 CURVE",
"-41 -182 LINE"
);
}
);
width = 314;
}
);
leftKerningGroup = J;
rightKerningGroup = J;
rightMetricsKey = H;
unicode = 004A;
userData = {
anchors = (
);
b = {
};
com.typemytype.robofont.layerData = {
b = {
anchors = (
);
components = (
);
contours = (
);
lib = {
};
name = J;
unicodes = (
);
width = 1003;
};
};
components = (
);
contours = (
);
lib = {
};
name = J;
unicodes = (
);
width = 1126;
};
},
{
glyphname = K;
lastChange = "2016-09-21 13:15:46 +0000";
layers = (
{
anchors = (
{
name = bottom;
position = "{334, 0}";
},
{
name = top;
position = "{391, 728}";
}
);
layerId = "E3EC4F6D-0AFB-4C34-B4C6-20524166427F";
paths = (
{
closed = 1;
nodes = (
"725 0 LINE",
"368 417 LINE",
"362 332 LINE",
"769 728 LINE",
"570 728 LINE",
"210 370 LINE",
"536 0 LINE"
);
},
{
closed = 1;
nodes = (
"216 0 LINE",
"273 728 LINE",
"110 728 LINE",
"54 0 LINE"
);
}
);
width = 703;
},
{
anchors = (
{
name = bottom;
position = "{295, 0}";
},
{
name = top;
position = "{351, 728}";
}
);
layerId = "EADB5E4A-85D8-40DB-A3FC-C2FF30FE6B12";
paths = (
{
closed = 1;
nodes = (
"604 0 LINE",
"192 387 LINE",
"182 350 LINE",
"637 728 LINE",
"562 728 LINE",
"136 372 LINE",
"534.99 0 LINE"
);
},
{
closed = 1;
nodes = (
"129 0 LINE",
"186 728 LINE",
"133 728 LINE",
"76 0 LINE"
);
}
);
width = 626;
}
);
leftKerningGroup = H;
leftMetricsKey = H;
rightKerningGroup = K;
unicode = 004B;
userData = {
anchors = (
);
b = {
};
com.typemytype.robofont.layerData = {
b = {
anchors = (
);
components = (
);
contours = (
);
lib = {
};
name = K;
unicodes = (
);
width = 1210;
};
};
components = (
);
contours = (
);
lib = {
};
name = K;
unicodes = (
);
width = 1329;
};
},
{
glyphname = L;
lastChange = "2016-09-21 13:15:46 +0000";
layers = (
{
anchors = (
{
name = bottom;
position = "{304, 0}";
},
{
name = center;
position = "{414, 365}";
},
{
name = top;
position = "{190, 728}";
},
{
name = topright;
position = "{365, 728}";
}
);
layerId = "E3EC4F6D-0AFB-4C34-B4C6-20524166427F";
paths = (
{
closed = 1;
nodes = (
"539 0 LINE",
"550 132 LINE",
"224 132 LINE",
"273 728 LINE",
"110 728 LINE",
"53 0 LINE"
);
}
);
width = 583;
},
{
anchors = (
{
name = bottom;
position = "{298, 0}";
},
{
name = center;
position = "{352, 365}";
},
{
name = top;
position = "{160, 728}";
},
{
name = topright;
position = "{279, 728}";
}
);
layerId = "EADB5E4A-85D8-40DB-A3FC-C2FF30FE6B12";
paths = (
{
closed = 1;
nodes = (
"511 0 LINE",
"516 47 LINE",
"133 47 LINE",
"186 728 LINE",
"133 728 LINE",
"76 0 LINE"
);
}
);
width = 548;
}
);
leftKerningGroup = H;
leftMetricsKey = H;
rightKerningGroup = L;
unicode = 004C;
userData = {
anchors = (
);
b = {
};
com.typemytype.robofont.layerData = {
b = {
anchors = (
);
components = (
);
contours = (
{
points = (
{
segmentType = curve;
smooth = 1;
x = 266;
y = 0;
},
{
segmentType = line;
smooth = 1;
x = 1035;
y = 0;
},
{
smooth = 0;
x = 1084;
y = 0;
},
{
smooth = 0;
x = 1108;
y = 34;
},
{
segmentType = curve;
smooth = 1;
x = 1108;
y = 71;
},
{
smooth = 0;
x = 1108;
y = 107;
},
{
smooth = 0;
x = 1084;
y = 141;
},
{
segmentType = curve;
smooth = 1;
x = 1035;
y = 141;
},
{
segmentType = line;
smooth = 0;
x = 356;
y = 141;
},
{
segmentType = line;
smooth = 0;
x = 356;
y = 665;
},
{
segmentType = line;
smooth = 1;
x = 975;
y = 665;
},
{
smooth = 0;
x = 1024;
y = 665;
},
{
smooth = 0;
x = 1049;
y = 698;
},
{
segmentType = curve;
smooth = 1;
x = 1049;
y = 734;
},
{
smooth = 0;
x = 1049;
y = 770;
},
{
smooth = 0;
x = 1026;
y = 803;
},
{
segmentType = curve;
smooth = 1;
x = 975;
y = 803;
},
{
segmentType = line;
smooth = 0;
x = 356;
y = 803;
},
{
segmentType = line;
smooth = 0;
x = 356;
y = 1285;
},
{
segmentType = line;
smooth = 1;
x = 1007;
y = 1285;
},
{
smooth = 0;
x = 1056;
y = 1285;
},
{
smooth = 0;
x = 1080;
y = 1319;
},
{
segmentType = curve;
smooth = 1;
x = 1080;
y = 1356;
},
{
smooth = 0;
x = 1080;
y = 1392;
},
{
smooth = 0;
x = 1056;
y = 1426;
},
{
segmentType = curve;
smooth = 1;
x = 1007;
y = 1426;
},
{
segmentType = line;
smooth = 1;
x = 261;
y = 1426;
},
{
smooth = 0;
x = 213;
y = 1426;
},
{
smooth = 0;
x = 178;
y = 1383;
},
{
segmentType = curve;
smooth = 1;
x = 178;
y = 1340;
},
{
segmentType = line;
smooth = 1;
x = 178;
y = 86;
},
{
smooth = 0;
x = 178;
y = 41;
},
{
smooth = 0;
x = 222;
y = 0;
}
);
}
);
lib = {
};
name = L;
unicodes = (
);
width = 1095;
};
};
components = (
);
contours = (
);
lib = {
};
name = L;
unicodes = (
);
width = 1169;
};
},
{
glyphname = LJ;
lastChange = "2016-09-21 13:15:46 +0000";
layers = (
{
layerId = "E3EC4F6D-0AFB-4C34-B4C6-20524166427F";
paths = (
{
closed = 1;
nodes = (
"508 0 LINE",
"519 132 LINE",
"224 132 LINE",
"273 728 LINE",
"110 728 LINE",
"53 0 LINE"
);
},
{
closed = 1;
nodes = (
"728 -219 OFFCURVE",
"819 -146 OFFCURVE",
"835 44 CURVE SMOOTH",
"889 728 LINE",
"725 728 LINE",
"672 42 LINE SMOOTH",
"664 -56 OFFCURVE",
"626 -68 OFFCURVE",
"509 -53 CURVE",
"499 -183 LINE"
);
}
);
width = 923;
},
{
layerId = "EADB5E4A-85D8-40DB-A3FC-C2FF30FE6B12";
paths = (
{
closed = 1;
nodes = (
"480 0 LINE",
"485 47 LINE",
"133 47 LINE",
"186 728 LINE",
"133 728 LINE",
"76 0 LINE"
);
},
{
closed = 1;
nodes = (
"562 -211 OFFCURVE",
"641 -165 OFFCURVE",
"654 -3 CURVE SMOOTH",
"712 728 LINE",
"659 728 LINE",
"601 -1 LINE SMOOTH",
"591 -133 OFFCURVE",
"533 -159 OFFCURVE",
"418 -134 CURVE",
"414 -182 LINE"
);
}
);
width = 771;
}
);
leftKerningGroup = H;
leftMetricsKey = L;
rightKerningGroup = J;
rightMetricsKey = J;
unicode = 01C7;
},
{
glyphname = Lslash;
lastChange = "2016-09-21 13:15:46 +0000";
layers = (
{
layerId = "E3EC4F6D-0AFB-4C34-B4C6-20524166427F";
paths = (
{
closed = 1;
nodes = (
"570 0 LINE",
"581 132 LINE",
"256 132 LINE",
"304 728 LINE",
"142 728 LINE",
"84 0 LINE"
);
},
{
closed = 1;
nodes = (
"471 454 LINE",
"483 592 LINE",
"18 337 LINE",
"6 198 LINE"
);
}
);
width = 614;
},
{
layerId = "EADB5E4A-85D8-40DB-A3FC-C2FF30FE6B12";
paths = (
{
closed = 1;
nodes = (
"519 0 LINE",
"522 47 LINE",
"141 47 LINE",
"193 728 LINE",
"140 728 LINE",
"84 0 LINE"
);
},
{
closed = 1;
nodes = (
"369 469 LINE",
"373 524 LINE",
"14 326 LINE",
"10 272 LINE"
);
}
);
width = 554;
}
);
leftKerningGroup = L;
rightKerningGroup = L;
rightMetricsKey = L;
unicode = 0141;
},
{
glyphname = M;
lastChange = "2016-09-21 13:15:46 +0000";
layers = (
{
anchors = (
{
name = bottom;
position = "{415, 0}";
},
{
name = top;
position = "{472, 728}";
}
);
layerId = "E3EC4F6D-0AFB-4C34-B4C6-20524166427F";
leftMetricsKey = "=H+2";
rightMetricsKey = "=H+2";
paths = (
{
closed = 1;
nodes = (
"196 0 LINE",
"236 487 LINE",
"195 478 LINE",
"363 0 LINE",
"468 0 LINE",
"710 478 LINE",
"672 487 LINE",
"634 0 LINE",
"776 0 LINE",
"833 728 LINE",
"705 728 LINE",
"400 130 LINE",
"452 130 LINE",
"240 728 LINE",
"112 728 LINE",
"55 0 LINE"
);
}
);
width = 870;
},
{
anchors = (
{
name = bottom;
position = "{413.99, 0}";
},
{
name = top;
position = "{470.99, 728}";
}
);
layerId = "EADB5E4A-85D8-40DB-A3FC-C2FF30FE6B12";
leftMetricsKey = "=H+2";
rightMetricsKey = "=H+2";
paths = (
{
closed = 1;
nodes = (
"128 0 LINE",
"180 673 LINE",
"150 671 LINE",
"395 0 LINE",
"436 0 LINE",
"784 670 LINE",
"755 673 LINE",
"700 0 LINE",
"752 0 LINE",
"809 728 LINE",
"763 728 LINE",
"401.01 26 LINE",
"433 26 LINE",
"180 728 LINE",
"133 728 LINE",
"76 0 LINE"
);
}
);
width = 868;
}
);
leftKerningGroup = H;
leftMetricsKey = H;
rightKerningGroup = H;
rightMetricsKey = H;
unicode = 004D;
userData = {
anchors = (
);
b = {
};
com.typemytype.robofont.layerData = {
b = {
anchors = (
);
components = (
);
contours = (
);
lib = {
};
name = M;
unicodes = (
);
width = 1899;
};
};
components = (
);
contours = (
);
lib = {
};
name = M;
unicodes = (
);
width = 1984;
};
},
{
glyphname = N;
lastChange = "2016-09-21 13:15:46 +0000";
layers = (
{
anchors = (
{
name = bottom;
position = "{370, 0}";
},
{
name = top;
position = "{426, 728}";
}
);
layerId = "E3EC4F6D-0AFB-4C34-B4C6-20524166427F";
paths = (
{
closed = 1;
nodes = (
"204 0 LINE",
"245 517 LINE",
"212 497 LINE",
"563 0 LINE",
"684 0 LINE",
"742 728 LINE",
"590 728 LINE",
"549 211 LINE",
"583 231 LINE",
"229 728 LINE",
"110 728 LINE",
"53 0 LINE"
);
}
);
width = 776;
},
{
anchors = (
{
name = bottom;
position = "{359, 0}";
},
{
name = top;
position = "{416, 728}";
}
);
layerId = "EADB5E4A-85D8-40DB-A3FC-C2FF30FE6B12";
paths = (
{
closed = 1;
nodes = (
"127 0 LINE",
"180 669 LINE",
"158 669 LINE",
"599 0 LINE",
"642 0 LINE",
"698 728 LINE",
"649 728 LINE",
"595 59 LINE",
"619 59 LINE",
"178 728 LINE",
"133 728 LINE",
"76 0 LINE"
);
}
);
width = 759;
}
);
leftKerningGroup = H;
leftMetricsKey = H;
rightKerningGroup = H;
rightMetricsKey = H;
unicode = 004E;
userData = {
anchors = (
);
b = {
};
com.typemytype.robofont.layerData = {
b = {
anchors = (
);
components = (
);
contours = (
);
lib = {
};
name = N;
unicodes = (
);
width = 1499;
};
};
components = (
);
contours = (
);
lib = {
};
name = N;
unicodes = (
);
width = 1557;
};
},
{
glyphname = Eng;
lastChange = "2016-09-21 13:15:46 +0000";
layers = (
{
layerId = "E3EC4F6D-0AFB-4C34-B4C6-20524166427F";
paths = (
{
closed = 1;
nodes = (
"549 211 LINE",
"583 231 LINE",
"229 728 LINE",
"110 728 LINE",
"53 0 LINE",
"204 0 LINE",
"245 517 LINE",
"212 497 LINE",
"563 0 LINE",
"539 92 LINE",
"534 27 LINE SMOOTH",
"530 -30 OFFCURVE",
"494 -64 OFFCURVE",
"431 -68 CURVE SMOOTH",
"353 -72 LINE",
"361 -194 LINE",
"444 -189 LINE SMOOTH",
"598 -181 OFFCURVE",
"675 -107 OFFCURVE",
"687 39 CURVE SMOOTH",
"742 728 LINE",
"590 728 LINE"
);
}
);
width = 776;
},
{
layerId = "EADB5E4A-85D8-40DB-A3FC-C2FF30FE6B12";
paths = (
{
closed = 1;
nodes = (
"595 59 LINE",
"619 59 LINE",
"178 728 LINE",
"133 728 LINE",
"76 0 LINE",
"127 0 LINE",
"180 669 LINE",
"158 669 LINE",
"599 0 LINE",
"595 37 LINE",
"591 -14 LINE SMOOTH",
"585 -95 OFFCURVE",
"537 -135 OFFCURVE",
"458 -141 CURVE SMOOTH",
"403 -146 LINE",
"403 -192 LINE",
"460 -188 LINE SMOOTH",
"580 -180 OFFCURVE",
"633 -112 OFFCURVE",
"640 -10 CURVE SMOOTH",
"698 728 LINE",
"649 728 LINE"
);
}
);
width = 758;
}
);
leftKerningGroup = H;
leftMetricsKey = H;
rightKerningGroup = H;
rightMetricsKey = H;
unicode = 014A;
userData = {
com.typemytype.robofont.layerData = {
b = {
anchors = (
);
components = (
);
contours = (
);
lib = {
};
name = Eng;
unicodes = (
);
width = 1495;
};
};
};
},
{
glyphname = O;
lastChange = "2016-09-21 13:15:46 +0000";
layers = (
{
anchors = (
{
name = bottom;
position = "{387, 0}";
},
{
name = center;
position = "{416, 365}";
},
{
name = ogonek;
position = "{510, 10}";
},
{
name = top;
position = "{443, 728}";
},
{
name = topleft;
position = "{60, 728}";
},
{
name = topright;
position = "{475, 728}";
}
);
layerId = "E3EC4F6D-0AFB-4C34-B4C6-20524166427F";
paths = (
{
closed = 1;
nodes = (
"629 -10 OFFCURVE",
"772 148 OFFCURVE",
"772 388 CURVE SMOOTH",
"772 605 OFFCURVE",
"636 739 OFFCURVE",
"420 739 CURVE SMOOTH",
"202 739 OFFCURVE",
"60 581 OFFCURVE",
"60 340 CURVE SMOOTH",
"60 123 OFFCURVE",
"195 -10 OFFCURVE",
"410 -10 CURVE SMOOTH"
);
},
{
closed = 1;
nodes = (
"289 117 OFFCURVE",
"222 196 OFFCURVE",
"222 340 CURVE SMOOTH",
"222 509 OFFCURVE",
"298 611 OFFCURVE",
"423 611 CURVE SMOOTH",
"540 611 OFFCURVE",
"609 532 OFFCURVE",
"609 388 CURVE SMOOTH",
"609 217 OFFCURVE",
"532 117 OFFCURVE",
"409 117 CURVE SMOOTH"
);
}
);
width = 814;
},
{
anchors = (
{
name = bottom;
position = "{370, 0}";
},
{
name = center;
position = "{400, 365}";
},
{
name = ogonek;
position = "{478, 10}";
},
{
name = top;
position = "{427, 728}";
},
{
name = topleft;
position = "{64, 728}";
},
{
name = topright;
position = "{458, 728}";
}
);
layerId = "EADB5E4A-85D8-40DB-A3FC-C2FF30FE6B12";
paths = (
{
closed = 1;
nodes = (
"591 -8 OFFCURVE",
"721 150 OFFCURVE",
"721 396 CURVE SMOOTH",
"721 608 OFFCURVE",
"602 737 OFFCURVE",
"407 737 CURVE SMOOTH",
"206 737 OFFCURVE",
"75 578 OFFCURVE",
"75 332 CURVE SMOOTH",
"75 120 OFFCURVE",
"194 -8 OFFCURVE",
"389 -8 CURVE SMOOTH"
);
},
{
closed = 1;
nodes = (
"224 42 OFFCURVE",
"131 146 OFFCURVE",
"131 331 CURVE SMOOTH",
"131 553 OFFCURVE",
"236 686 OFFCURVE",
"407 686 CURVE SMOOTH",
"572 686 OFFCURVE",
"665 583 OFFCURVE",
"665 397 CURVE SMOOTH",
"665 176 OFFCURVE",
"561 42 OFFCURVE",
"390 42 CURVE SMOOTH"
);
}
);
width = 779;
}
);
leftKerningGroup = O;
rightKerningGroup = O;
unicode = 004F;
userData = {
anchors = (
);
b = {
};
com.typemytype.robofont.guides = (
);
com.typemytype.robofont.layerData = {
b = {
anchors = (
);
components = (
);
contours = (
);
lib = {
};
name = O;
unicodes = (
);
width = 1597;
};
};
components = (
);
contours = (
);
lib = {
};
name = O;
unicodes = (
);
width = 1604;
};
},
{
glyphname = Ohorn;
lastChange = "2016-09-21 13:15:46 +0000";
layers = (
{
anchors = (
{
name = bottom;
position = "{387, 0}";
},
{
name = top;
position = "{443, 728}";
}
);
layerId = "E3EC4F6D-0AFB-4C34-B4C6-20524166427F";
paths = (
{
closed = 1;
nodes = (
"629 -10 OFFCURVE",
"772 148 OFFCURVE",
"772 388 CURVE SMOOTH",
"772 518 OFFCURVE",
"724 616 OFFCURVE",
"644 673 CURVE",
"639 652 LINE",
"736 652 OFFCURVE",
"800 719 OFFCURVE",
"807 814 CURVE SMOOTH",
"810 853 LINE",
"675 853 LINE",
"672 833 LINE SMOOTH",
"667 756 OFFCURVE",
"645 728 OFFCURVE",
"574 728 CURVE SMOOTH",
"528 728 OFFCURVE",
"491 739 OFFCURVE",
"431 739 CURVE SMOOTH",
"202 739 OFFCURVE",
"60 581 OFFCURVE",
"60 340 CURVE SMOOTH",
"60 123 OFFCURVE",
"195 -10 OFFCURVE",
"410 -10 CURVE SMOOTH"
);
},
{
closed = 1;
nodes = (
"289 117 OFFCURVE",
"222 196 OFFCURVE",
"222 340 CURVE SMOOTH",
"222 509 OFFCURVE",
"298 611 OFFCURVE",
"423 611 CURVE SMOOTH",
"540 611 OFFCURVE",
"609 532 OFFCURVE",
"609 388 CURVE SMOOTH",
"609 217 OFFCURVE",
"532 117 OFFCURVE",
"409 117 CURVE SMOOTH"
);
}
);
width = 814;
},
{
anchors = (
{
name = bottom;
position = "{371, 0}";
},
{
name = top;
position = "{427, 728}";
}
);
layerId = "EADB5E4A-85D8-40DB-A3FC-C2FF30FE6B12";
paths = (
{
closed = 1;
nodes = (
"591 -8 OFFCURVE",
"721 150 OFFCURVE",
"721 396 CURVE SMOOTH",
"721 557 OFFCURVE",
"652 654 OFFCURVE",
"575 695 CURVE",
"580 686 LINE",
"697 686 OFFCURVE",
"750 741 OFFCURVE",
"758 836 CURVE SMOOTH",
"759 858 LINE",
"710 858 LINE",
"709 845 LINE SMOOTH",
"702 761 OFFCURVE",
"666 728 OFFCURVE",
"576 728 CURVE SMOOTH",
"514 728 OFFCURVE",
"467 737 OFFCURVE",
"417 737 CURVE SMOOTH",
"204 737 OFFCURVE",
"75 578 OFFCURVE",
"75 332 CURVE SMOOTH",
"75 120 OFFCURVE",
"194 -8 OFFCURVE",
"389 -8 CURVE SMOOTH"
);
},
{
closed = 1;
nodes = (
"224 42 OFFCURVE",
"131 146 OFFCURVE",
"131 331 CURVE SMOOTH",
"131 553 OFFCURVE",
"236 686 OFFCURVE",
"407 686 CURVE SMOOTH",
"572 686 OFFCURVE",
"665 583 OFFCURVE",
"665 397 CURVE SMOOTH",
"665 176 OFFCURVE",
"561 42 OFFCURVE",
"390 42 CURVE SMOOTH"
);
}
);
width = 779;
}
);
leftKerningGroup = O;
leftMetricsKey = O;
widthMetricsKey = O;
rightKerningGroup = O;
unicode = 01A0;
},
{
glyphname = Oogonek;
lastChange = "2016-09-21 13:15:46 +0000";
layers = (
{
anchors = (
{
name = top;
position = "{443, 728}";
}
);
layerId = "E3EC4F6D-0AFB-4C34-B4C6-20524166427F";
paths = (
{
closed = 1;
nodes = (
"659 35 OFFCURVE",
"772 173 OFFCURVE",
"772 388 CURVE SMOOTH",
"772 605 OFFCURVE",
"640 739 OFFCURVE",
"420 739 CURVE SMOOTH",
"202 739 OFFCURVE",
"60 581 OFFCURVE",
"60 340 CURVE SMOOTH",
"60 123 OFFCURVE",
"195 -10 OFFCURVE",
"403 -9 CURVE",
"393 12 LINE",
"350 -13 OFFCURVE",
"330 -50 OFFCURVE",
"330 -94 CURVE SMOOTH",
"330 -158 OFFCURVE",
"380 -204 OFFCURVE",
"460 -204 CURVE SMOOTH",
"493 -204 OFFCURVE",
"526 -196 OFFCURVE",
"557 -183 CURVE",
"545 -109 LINE",
"523 -118 OFFCURVE",
"504 -122 OFFCURVE",
"487 -122 CURVE SMOOTH",
"454 -122 OFFCURVE",
"432 -103 OFFCURVE",
"432 -70 CURVE SMOOTH",
"432 -35 OFFCURVE",
"457 -10 OFFCURVE",
"505 1 CURVE SMOOTH"
);
},
{
closed = 1;
nodes = (
"289 117 OFFCURVE",
"222 196 OFFCURVE",
"222 340 CURVE SMOOTH",
"222 509 OFFCURVE",
"298 611 OFFCURVE",
"423 611 CURVE SMOOTH",
"540 611 OFFCURVE",
"609 532 OFFCURVE",
"609 388 CURVE SMOOTH",
"609 217 OFFCURVE",
"532 117 OFFCURVE",
"409 117 CURVE SMOOTH"
);
}
);
width = 814;
},
{
anchors = (
{
name = top;
position = "{427, 728}";
}
);
layerId = "EADB5E4A-85D8-40DB-A3FC-C2FF30FE6B12";
paths = (
{
closed = 1;
nodes = (
"613 34 OFFCURVE",
"721 166 OFFCURVE",
"721 396 CURVE SMOOTH",
"721 608 OFFCURVE",
"602 737 OFFCURVE",
"407 737 CURVE SMOOTH",
"206 737 OFFCURVE",
"75 578 OFFCURVE",
"75 332 CURVE SMOOTH",
"75 120 OFFCURVE",
"194 -7 OFFCURVE",
"382 -7 CURVE",
"390 10 LINE",
"350 -9 OFFCURVE",
"324 -48 OFFCURVE",
"324 -96 CURVE SMOOTH",
"324 -157 OFFCURVE",
"367 -197 OFFCURVE",
"435 -197 CURVE SMOOTH",
"466 -197 OFFCURVE",
"498 -186 OFFCURVE",
"517 -174 CURVE",
"503 -133 LINE",
"480 -148 OFFCURVE",
"457 -154 OFFCURVE",
"440 -154 CURVE SMOOTH",
"399 -154 OFFCURVE",
"375 -132 OFFCURVE",
"375 -89 CURVE SMOOTH",
"375 -45 OFFCURVE",
"403 -13 OFFCURVE",
"464 0 CURVE SMOOTH"
);
},
{
closed = 1;
nodes = (
"224 42 OFFCURVE",
"131 146 OFFCURVE",
"131 331 CURVE SMOOTH",
"131 553 OFFCURVE",
"236 686 OFFCURVE",
"407 686 CURVE SMOOTH",
"572 686 OFFCURVE",
"665 583 OFFCURVE",
"665 397 CURVE SMOOTH",
"665 176 OFFCURVE",
"561 42 OFFCURVE",
"390 42 CURVE SMOOTH"
);
}
);
width = 779;
}
);
leftKerningGroup = O;
leftMetricsKey = O;
rightKerningGroup = O;
rightMetricsKey = O;
unicode = 01EA;
},
{
glyphname = Oslash;
lastChange = "2016-09-21 13:15:46 +0000";
layers = (
{
anchors = (
{
name = bottom;
position = "{387, 0}";
},
{
name = top;
position = "{443, 728}";
}
);
layerId = "E3EC4F6D-0AFB-4C34-B4C6-20524166427F";
paths = (
{
closed = 1;
nodes = (
"629 -10 OFFCURVE",
"772 148 OFFCURVE",
"772 388 CURVE SMOOTH",
"772 605 OFFCURVE",
"636 739 OFFCURVE",
"420 739 CURVE SMOOTH",
"202 739 OFFCURVE",
"60 581 OFFCURVE",
"60 340 CURVE SMOOTH",
"60 123 OFFCURVE",
"195 -10 OFFCURVE",
"410 -10 CURVE SMOOTH"
);
},
{
closed = 1;
nodes = (
"289 117 OFFCURVE",
"222 196 OFFCURVE",
"222 340 CURVE SMOOTH",
"222 509 OFFCURVE",
"298 611 OFFCURVE",
"423 611 CURVE SMOOTH",
"540 611 OFFCURVE",
"609 532 OFFCURVE",
"609 388 CURVE SMOOTH",
"609 217 OFFCURVE",
"532 117 OFFCURVE",
"409 117 CURVE SMOOTH"
);
},
{
closed = 1;
nodes = (
"731 737 LINE",
"633 799 LINE",
"100 -8 LINE",
"198 -70 LINE"
);
}
);
width = 814;
},
{
anchors = (
{
name = bottom;
position = "{370, 0}";
},
{
name = top;
position = "{427, 728}";
}
);
layerId = "EADB5E4A-85D8-40DB-A3FC-C2FF30FE6B12";
paths = (
{
closed = 1;
nodes = (
"591 -8 OFFCURVE",
"721 150 OFFCURVE",
"721 396 CURVE SMOOTH",
"721 608 OFFCURVE",
"602 737 OFFCURVE",
"407 737 CURVE SMOOTH",
"206 737 OFFCURVE",
"75 578 OFFCURVE",
"75 332 CURVE SMOOTH",
"75 120 OFFCURVE",
"194 -8 OFFCURVE",
"389 -8 CURVE SMOOTH"
);
},
{
closed = 1;
nodes = (
"224 42 OFFCURVE",
"131 146 OFFCURVE",
"131 331 CURVE SMOOTH",
"131 553 OFFCURVE",
"236 686 OFFCURVE",
"407 686 CURVE SMOOTH",
"572 686 OFFCURVE",
"665 583 OFFCURVE",
"665 397 CURVE SMOOTH",
"665 176 OFFCURVE",
"561 42 OFFCURVE",
"390 42 CURVE SMOOTH"
);
},
{
closed = 1;
nodes = (
"678 742 LINE",
"639 768 LINE",
"119 -13 LINE",
"158 -39 LINE"
);
}
);
width = 779;
}
);
leftKerningGroup = O;
leftMetricsKey = O;
rightKerningGroup = O;
rightMetricsKey = O;
unicode = 00D8;
userData = {
com.typemytype.robofont.layerData = {
b = {
anchors = (
);
components = (
);
contours = (
);
lib = {
};
name = Oslash;
unicodes = (
);
width = 1597;
};
};
};
},
{
glyphname = OE;
lastChange = "2016-09-21 13:15:46 +0000";
layers = (
{
anchors = (
{
name = bottom;
position = "{527, 0}";
},
{
name = top;
position = "{584, 728}";
}
);
layerId = "E3EC4F6D-0AFB-4C34-B4C6-20524166427F";
paths = (
{
closed = 1;
nodes = (
"453 -10 OFFCURVE",
"517 15 OFFCURVE",
"558 62 CURVE",
"567 187 LINE",
"532 141 OFFCURVE",
"473 117 OFFCURVE",
"409 117 CURVE SMOOTH",
"289 117 OFFCURVE",
"222 196 OFFCURVE",
"222 340 CURVE SMOOTH",
"222 509 OFFCURVE",
"298 611 OFFCURVE",
"443 611 CURVE SMOOTH",
"511 611 OFFCURVE",
"568 588 OFFCURVE",
"595 541 CURVE",
"605 675 LINE",
"571 718 OFFCURVE",
"491 739 OFFCURVE",
"421 739 CURVE SMOOTH",
"202 739 OFFCURVE",
"60 581 OFFCURVE",
"60 340 CURVE SMOOTH",
"60 123 OFFCURVE",
"195 -10 OFFCURVE",
"380 -10 CURVE SMOOTH"
);
},
{
closed = 1;
nodes = (
"1021 0 LINE",
"1031 126 LINE",
"686 126 LINE",
"724 602 LINE",
"1069 602 LINE",
"1077 728 LINE",
"585 728 LINE",
"578 647 LINE",
"568 628 LINE",
"528 113 LINE",
"534 79 LINE",
"528 0 LINE"
);
},
{
closed = 1;
nodes = (
"1024 307 LINE",
"1034 433 LINE",
"694 433 LINE",
"684 307 LINE"
);
}
);
width = 1079;
},
{
anchors = (
{
name = bottom;
position = "{530, 0}";
},
{
name = top;
position = "{586, 728}";
}
);
layerId = "EADB5E4A-85D8-40DB-A3FC-C2FF30FE6B12";
paths = (
{
closed = 1;
nodes = (
"465 -8 OFFCURVE",
"530 14 OFFCURVE",
"583 57 CURVE",
"588 126 LINE",
"537 70 OFFCURVE",
"463 42 OFFCURVE",
"390 42 CURVE SMOOTH",
"224 42 OFFCURVE",
"131 146 OFFCURVE",
"131 331 CURVE SMOOTH",
"131 553 OFFCURVE",
"236 686 OFFCURVE",
"416 686 CURVE SMOOTH",
"503 686 OFFCURVE",
"583 658 OFFCURVE",
"626 603 CURVE",
"629 669 LINE",
"563 720 OFFCURVE",
"489 737 OFFCURVE",
"417 737 CURVE SMOOTH",
"206 737 OFFCURVE",
"75 578 OFFCURVE",
"75 332 CURVE SMOOTH",
"75 120 OFFCURVE",
"194 -8 OFFCURVE",
"389 -8 CURVE SMOOTH"
);
},
{
closed = 1;
nodes = (
"1005 0 LINE",
"1009 48 LINE",
"618 48 LINE",
"667 682 LINE",
"1059 682 LINE",
"1062 728 LINE",
"619 728 LINE",
"614 660 LINE",
"612 644 LINE",
"568 88 LINE",
"567 68 LINE",
"562 0 LINE"
);
},
{
closed = 1;
nodes = (
"1011 346 LINE",
"1015 394 LINE",
"632 394 LINE",
"628 346 LINE"
);
}
);
width = 1080;
}
);
leftKerningGroup = O;
leftMetricsKey = O;
rightKerningGroup = E;
rightMetricsKey = E;
unicode = 0152;
},
{
glyphname = P;
lastChange = "2016-09-21 13:15:46 +0000";
layers = (
{
anchors = (
{
name = bottom;
position = "{329, 0}";
},
{
name = top;
position = "{384, 728}";
}
);
layerId = "E3EC4F6D-0AFB-4C34-B4C6-20524166427F";
paths = (
{
closed = 1;
nodes = (
"262 604 LINE",
"413 604 LINE SMOOTH",
"491 604 OFFCURVE",
"527 572 OFFCURVE",
"527 516 CURVE SMOOTH",
"527 454 OFFCURVE",
"483 417 OFFCURVE",
"398 417 CURVE SMOOTH",
"227 417 LINE",
"220 293 LINE",
"412 293 LINE SMOOTH",
"584 293 OFFCURVE",
"679 380 OFFCURVE",
"679 526 CURVE SMOOTH",
"679 645 OFFCURVE",
"590 728 OFFCURVE",
"435 728 CURVE SMOOTH",
"110 728 LINE",
"53 0 LINE",
"215 0 LINE"
);
}
);
width = 691;
},
{
anchors = (
{
name = bottom;
position = "{309, 0}";
},
{
name = top;
position = "{366, 728}";
}
);
layerId = "EADB5E4A-85D8-40DB-A3FC-C2FF30FE6B12";
paths = (
{
closed = 1;
nodes = (
"182 681 LINE",
"398 681 LINE SMOOTH",
"518 681 OFFCURVE",
"571 625 OFFCURVE",
"571 541 CURVE SMOOTH",
"571 432 OFFCURVE",
"498 378 OFFCURVE",
"371 378 CURVE SMOOTH",
"146 378 LINE",
"143 331 LINE",
"371 331 LINE SMOOTH",
"525 331 OFFCURVE",
"625 402 OFFCURVE",
"625 542 CURVE SMOOTH",
"625 651 OFFCURVE",
"549 728 OFFCURVE",
"398 728 CURVE SMOOTH",
"133 728 LINE",
"76 0 LINE",
"129 0 LINE"
);
}
);
width = 656;
}
);
leftKerningGroup = H;
leftMetricsKey = H;
rightKerningGroup = P;
unicode = 0050;
userData = {
anchors = (
);
b = {
};
com.typemytype.robofont.layerData = {
b = {
anchors = (
);
components = (
);
contours = (
{
points = (
{
segmentType = curve;
smooth = 1;
x = 266;
y = 0;
},
{
segmentType = line;
smooth = 1;
x = 1035;
y = 0;
},
{
smooth = 0;
x = 1084;
y = 0;
},
{
smooth = 0;
x = 1108;
y = 34;
},
{
segmentType = curve;
smooth = 1;
x = 1108;
y = 71;
},
{
smooth = 0;
x = 1108;
y = 107;
},
{
smooth = 0;
x = 1084;
y = 141;
},
{
segmentType = curve;
smooth = 1;
x = 1035;
y = 141;
},
{
segmentType = line;
smooth = 0;
x = 356;
y = 141;
},
{
segmentType = line;
smooth = 0;
x = 356;
y = 665;
},
{
segmentType = line;
smooth = 1;
x = 975;
y = 665;
},
{
smooth = 0;
x = 1024;
y = 665;
},
{
smooth = 0;
x = 1049;
y = 698;
},
{
segmentType = curve;
smooth = 1;
x = 1049;
y = 734;
},
{
smooth = 0;
x = 1049;
y = 770;
},
{
smooth = 0;
x = 1026;
y = 803;
},
{
segmentType = curve;
smooth = 1;
x = 975;
y = 803;
},
{
segmentType = line;
smooth = 0;
x = 356;
y = 803;
},
{
segmentType = line;
smooth = 0;
x = 356;
y = 1285;
},
{
segmentType = line;
smooth = 1;
x = 1007;
y = 1285;
},
{
smooth = 0;
x = 1056;
y = 1285;
},
{
smooth = 0;
x = 1080;
y = 1319;
},
{
segmentType = curve;
smooth = 1;
x = 1080;
y = 1356;
},
{
smooth = 0;
x = 1080;
y = 1392;
},
{
smooth = 0;
x = 1056;
y = 1426;
},
{
segmentType = curve;
smooth = 1;
x = 1007;
y = 1426;
},
{
segmentType = line;
smooth = 1;
x = 261;
y = 1426;
},
{
smooth = 0;
x = 213;
y = 1426;
},
{
smooth = 0;
x = 178;
y = 1383;
},
{
segmentType = curve;
smooth = 1;
x = 178;
y = 1340;
},
{
segmentType = line;
smooth = 1;
x = 178;
y = 86;
},
{
smooth = 0;
x = 178;
y = 41;
},
{
smooth = 0;
x = 222;
y = 0;
}
);
}
);
lib = {
};
name = P;
unicodes = (
);
width = 1201;
};
};
components = (
);
contours = (
);
lib = {
};
name = P;
unicodes = (
);
width = 1319;
};
},
{
glyphname = Thorn;
lastChange = "2016-09-21 13:15:46 +0000";
layers = (
{
anchors = (
{
name = bottom;
position = "{329, 0}";
},
{
name = top;
position = "{384, 728}";
}
);
layerId = "E3EC4F6D-0AFB-4C34-B4C6-20524166427F";
paths = (
{
closed = 1;
nodes = (
"420 158 LINE SMOOTH",
"580 158 OFFCURVE",
"668 239 OFFCURVE",
"668 383 CURVE SMOOTH",
"668 508 OFFCURVE",
"583 582 OFFCURVE",
"440 582 CURVE SMOOTH",
"199 582 LINE",
"199 458 LINE",
"421 458 LINE SMOOTH",
"487 458 OFFCURVE",
"517 432 OFFCURVE",
"517 374 CURVE SMOOTH",
"517 313 OFFCURVE",
"480 281 OFFCURVE",
"408 281 CURVE SMOOTH",
"181 281 LINE",
"181 158 LINE"
);
},
{
closed = 1;
nodes = (
"212 0 LINE",
"270 728 LINE",
"110 728 LINE",
"53 0 LINE"
);
}
);
width = 692;
},
{
anchors = (
{
name = bottom;
position = "{309, 0}";
},
{
name = top;
position = "{366, 728}";
}
);
layerId = "EADB5E4A-85D8-40DB-A3FC-C2FF30FE6B12";
paths = (
{
closed = 1;
nodes = (
"373 178 LINE SMOOTH",
"532 178 OFFCURVE",
"613 256 OFFCURVE",
"613 381 CURVE SMOOTH",
"613 502 OFFCURVE",
"534 563 OFFCURVE",
"396 563 CURVE SMOOTH",
"164 563 LINE",
"160 515 LINE",
"394 515 LINE SMOOTH",
"500 515 OFFCURVE",
"559 475 OFFCURVE",
"559 380 CURVE SMOOTH",
"559 279 OFFCURVE",
"500 225 OFFCURVE",
"371 225 CURVE SMOOTH",
"137 225 LINE",
"134 178 LINE"
);
},
{
closed = 1;
nodes = (
"129 0 LINE",
"186 728 LINE",
"133 728 LINE",
"76 0 LINE"
);
}
);
width = 656;
}
);
leftKerningGroup = H;
leftMetricsKey = H;
rightKerningGroup = THORN;
unicode = 00DE;
},
{
glyphname = Q;
lastChange = "2016-09-21 13:15:46 +0000";
layers = (
{
anchors = (
{
name = bottom;
position = "{387, 0}";
},
{
name = center;
position = "{416, 365}";
},
{
name = ogonek;
position = "{510, 10}";
},
{
name = top;
position = "{443, 728}";
},
{
name = topleft;
position = "{60, 728}";
},
{
name = topright;
position = "{475, 728}";
}
);
layerId = "E3EC4F6D-0AFB-4C34-B4C6-20524166427F";
paths = (
{
closed = 1;
nodes = (
"686 -114 LINE",
"636 -69 OFFCURVE",
"583 -16 OFFCURVE",
"555 52 CURVE",
"410 -4 LINE",
"445 -76 OFFCURVE",
"501 -146 OFFCURVE",
"570 -195 CURVE"
);
},
{
closed = 1;
nodes = (
"629 -10 OFFCURVE",
"772 148 OFFCURVE",
"772 388 CURVE SMOOTH",
"772 605 OFFCURVE",
"636 739 OFFCURVE",
"420 739 CURVE SMOOTH",
"202 739 OFFCURVE",
"60 581 OFFCURVE",
"60 340 CURVE SMOOTH",
"60 123 OFFCURVE",
"195 -10 OFFCURVE",
"410 -10 CURVE SMOOTH"
);
},
{
closed = 1;
nodes = (
"289 117 OFFCURVE",
"222 196 OFFCURVE",
"222 340 CURVE SMOOTH",
"222 509 OFFCURVE",
"298 611 OFFCURVE",
"423 611 CURVE SMOOTH",
"540 611 OFFCURVE",
"609 532 OFFCURVE",
"609 388 CURVE SMOOTH",
"609 217 OFFCURVE",
"532 117 OFFCURVE",
"409 117 CURVE SMOOTH"
);
}
);
width = 814;
},
{
anchors = (
{
name = bottom;
position = "{370, 0}";
},
{
name = center;
position = "{400, 365}";
},
{
name = ogonek;
position = "{478, 10}";
},
{
name = top;
position = "{427, 728}";
},
{
name = topleft;
position = "{64, 728}";
},
{
name = topright;
position = "{458, 728}";
}
);
layerId = "EADB5E4A-85D8-40DB-A3FC-C2FF30FE6B12";
paths = (
{
closed = 1;
nodes = (
"590 -154 LINE",
"541 -109 OFFCURVE",
"499 -57 OFFCURVE",
"467 11 CURVE",
"410 -4 LINE",
"445 -76 OFFCURVE",
"500 -154 OFFCURVE",
"551 -195 CURVE"
);
},
{
closed = 1;
nodes = (
"591 -8 OFFCURVE",
"721 150 OFFCURVE",
"721 396 CURVE SMOOTH",
"721 608 OFFCURVE",
"602 737 OFFCURVE",
"407 737 CURVE SMOOTH",
"206 737 OFFCURVE",
"75 578 OFFCURVE",
"75 332 CURVE SMOOTH",
"75 120 OFFCURVE",
"194 -8 OFFCURVE",
"389 -8 CURVE SMOOTH"
);
},
{
closed = 1;
nodes = (
"224 42 OFFCURVE",
"131 146 OFFCURVE",
"131 331 CURVE SMOOTH",
"131 553 OFFCURVE",
"236 686 OFFCURVE",
"407 686 CURVE SMOOTH",
"572 686 OFFCURVE",
"665 583 OFFCURVE",
"665 397 CURVE SMOOTH",
"665 176 OFFCURVE",
"561 42 OFFCURVE",
"390 42 CURVE SMOOTH"
);
}
);
width = 779;
}
);
leftKerningGroup = O;
leftMetricsKey = O;
widthMetricsKey = O;
rightKerningGroup = O;
unicode = 0051;
userData = {
anchors = (
);
b = {
};
com.typemytype.robofont.layerData = {
b = {
anchors = (
);
components = (
);
contours = (
);
lib = {
};
name = Q;
unicodes = (
);
width = 1597;
};
};
components = (
);
contours = (
);
lib = {
};
name = Q;
unicodes = (
);
width = 1604;
};
},
{
glyphname = R;
lastChange = "2016-09-21 13:15:46 +0000";
layers = (
{
anchors = (
{
name = bottom;
position = "{346, 0}";
},
{
name = top;
position = "{402, 728}";
}
);
layerId = "E3EC4F6D-0AFB-4C34-B4C6-20524166427F";
paths = (
{
closed = 1;
nodes = (
"259 604 LINE",
"429 604 LINE SMOOTH",
"503 604 OFFCURVE",
"537 573 OFFCURVE",
"537 515 CURVE SMOOTH",
"537 451 OFFCURVE",
"496 415 OFFCURVE",
"414 415 CURVE SMOOTH",
"227 415 LINE",
"219 292 LINE",
"337 292 LINE SMOOTH",
"379 292 OFFCURVE",
"412 281 OFFCURVE",
"423 243 CURVE SMOOTH",
"497.991 0 LINE",
"669 0 LINE",
"599 216 LINE SMOOTH",
"576 286 OFFCURVE",
"541 316 OFFCURVE",
"471 316 CURVE",
"416 299 LINE",
"605 299 OFFCURVE",
"689 384 OFFCURVE",
"689 525 CURVE SMOOTH",
"689 648 OFFCURVE",
"602 728 OFFCURVE",
"450 728 CURVE SMOOTH",
"110 728 LINE",
"54 0 LINE",
"214 0 LINE"
);
}
);
width = 725;
},
{
anchors = (
{
name = bottom;
position = "{327, 0}";
},
{
name = top;
position = "{384, 728}";
}
);
layerId = "EADB5E4A-85D8-40DB-A3FC-C2FF30FE6B12";
paths = (
{
closed = 1;
nodes = (
"184 681 LINE",
"415 681 LINE SMOOTH",
"528 681 OFFCURVE",
"588 636 OFFCURVE",
"588 542 CURVE SMOOTH",
"588 431 OFFCURVE",
"524 376 OFFCURVE",
"390 376 CURVE SMOOTH",
"146 376 LINE",
"143 328 LINE",
"356 328 LINE SMOOTH",
"435 328 OFFCURVE",
"483 314 OFFCURVE",
"505 243 CURVE SMOOTH",
"576 0 LINE",
"631 0 LINE",
"563 237 LINE SMOOTH",
"538 322 OFFCURVE",
"496 348 OFFCURVE",
"433 348 CURVE",
"396 335 LINE",
"558 335 OFFCURVE",
"643 415 OFFCURVE",
"643 544 CURVE SMOOTH",
"643 664 OFFCURVE",
"560 728 OFFCURVE",
"414 728 CURVE SMOOTH",
"133 728 LINE",
"76 0 LINE",
"129 0 LINE"
);
}
);
width = 702;
}
);
leftKerningGroup = H;
leftMetricsKey = H;
rightKerningGroup = R;
unicode = 0052;
userData = {
anchors = (
);
b = {
};
com.typemytype.robofont.guides = (
);
com.typemytype.robofont.layerData = {
b = {
anchors = (
);
components = (
);
contours = (
{
points = (
{
segmentType = curve;
smooth = 1;
x = 267;
y = 0;
},
{
smooth = 0;
x = 311;
y = 0;
},
{
smooth = 0;
x = 356;
y = 27;
},
{
segmentType = curve;
smooth = 1;
x = 356;
y = 84;
},
{
segmentType = line;
smooth = 0;
x = 356;
y = 628;
},
{
segmentType = line;
smooth = 1;
x = 669;
y = 628;
},
{
smooth = 0;
x = 962;
y = 628;
},
{
smooth = 0;
x = 1182;
y = 722;
},
{
segmentType = curve;
smooth = 1;
x = 1182;
y = 1026;
},
{
smooth = 0;
x = 1182;
y = 1324;
},
{
smooth = 0;
x = 993;
y = 1426;
},
{
segmentType = curve;
smooth = 1;
x = 684;
y = 1426;
},
{
segmentType = line;
smooth = 1;
x = 268;
y = 1426;
},
{
smooth = 0;
x = 217;
y = 1426;
},
{
smooth = 0;
x = 178;
y = 1387;
},
{
segmentType = curve;
smooth = 1;
x = 178;
y = 1339;
},
{
segmentType = line;
smooth = 1;
x = 178;
y = 84;
},
{
smooth = 0;
x = 178;
y = 28;
},
{
smooth = 0;
x = 222;
y = 0;
}
);
},
{
points = (
{
segmentType = line;
smooth = 0;
x = 356;
y = 764;
},
{
segmentType = line;
smooth = 0;
x = 356;
y = 1285;
},
{
segmentType = line;
smooth = 1;
x = 684;
y = 1285;
},
{
smooth = 0;
x = 914;
y = 1285;
},
{
smooth = 0;
x = 1008;
y = 1210;
},
{
segmentType = curve;
smooth = 1;
x = 1008;
y = 1026;
},
{
smooth = 0;
x = 1008;
y = 838;
},
{
smooth = 0;
x = 901;
y = 764;
},
{
segmentType = curve;
smooth = 1;
x = 670;
y = 764;
}
);
}
);
lib = {
};
name = R;
unicodes = (
);
width = 1363;
};
};
components = (
);
contours = (
);
lib = {
};
name = R;
unicodes = (
);
width = 1408;
};
},
{
glyphname = S;
lastChange = "2016-09-21 13:15:46 +0000";
layers = (
{
anchors = (
{
name = bottom;
position = "{315, 0}";
},
{
name = top;
position = "{377, 728}";
}
);
layerId = "E3EC4F6D-0AFB-4C34-B4C6-20524166427F";
paths = (
{
closed = 1;
nodes = (
"515 -9 OFFCURVE",
"627 72 OFFCURVE",
"627 213 CURVE SMOOTH",
"627 458 OFFCURVE",
"235 390 OFFCURVE",
"235 526 CURVE SMOOTH",
"235 579 OFFCURVE",
"286 611 OFFCURVE",
"373 611 CURVE SMOOTH",
"444 611 OFFCURVE",
"520 586 OFFCURVE",
"582 538 CURVE",
"642 654 LINE",
"583 706 OFFCURVE",
"481 738 OFFCURVE",
"377 738 CURVE SMOOTH",
"193 738 OFFCURVE",
"74 649 OFFCURVE",
"74 512 CURVE SMOOTH",
"74 261 OFFCURVE",
"466 328 OFFCURVE",
"466 195 CURVE SMOOTH",
"466 145 OFFCURVE",
"417 117 OFFCURVE",
"327 117 CURVE SMOOTH",
"240 117 OFFCURVE",
"161 141 OFFCURVE",
"88 190 CURVE",
"27 74 LINE",
"103 21 OFFCURVE",
"209 -9 OFFCURVE",
"322 -9 CURVE SMOOTH"
);
}
);
width = 673;
},
{
anchors = (
{
name = bottom;
position = "{298, 0}";
},
{
name = top;
position = "{348, 728}";
}
);
layerId = "EADB5E4A-85D8-40DB-A3FC-C2FF30FE6B12";
paths = (
{
closed = 1;
nodes = (
"468 -8 OFFCURVE",
"568 68 OFFCURVE",
"568 189 CURVE SMOOTH",
"568 434 OFFCURVE",
"142 328 OFFCURVE",
"142 537 CURVE SMOOTH",
"142 630 OFFCURVE",
"212 688 OFFCURVE",
"345 688 CURVE SMOOTH",
"430 688 OFFCURVE",
"503 658 OFFCURVE",
"569 597 CURVE",
"597 640 LINE",
"534 702 OFFCURVE",
"445 737 OFFCURVE",
"345 737 CURVE SMOOTH",
"188 737 OFFCURVE",
"87 658 OFFCURVE",
"87 536 CURVE SMOOTH",
"87 275 OFFCURVE",
"513 378 OFFCURVE",
"513 187 CURVE SMOOTH",
"513 96 OFFCURVE",
"444 40 OFFCURVE",
"311 40 CURVE SMOOTH",
"213 40 OFFCURVE",
"143 66 OFFCURVE",
"67 131 CURVE",
"39 88 LINE",
"114 22 OFFCURVE",
"196 -8 OFFCURVE",
"311 -8 CURVE SMOOTH"
);
}
);
width = 623;
}
);
leftKerningGroup = S;
rightKerningGroup = S;
unicode = 0053;
userData = {
anchors = (
);
b = {
};
com.typemytype.robofont.layerData = {
b = {
anchors = (
);
components = (
);
contours = (
);
lib = {
};
name = S;
unicodes = (
);
width = 1274;
};
};
components = (
);
contours = (
);
lib = {
};
name = S;
unicodes = (
);
width = 1317;
};
},
{
glyphname = Germandbls;
lastChange = "2016-09-21 13:15:46 +0000";
layers = (
{
layerId = "E3EC4F6D-0AFB-4C34-B4C6-20524166427F";
paths = (
{
closed = 1;
nodes = (
"211 0 LINE",
"248 472 LINE SMOOTH",
"255 563 OFFCURVE",
"306 609 OFFCURVE",
"400 609 CURVE SMOOTH",
"466 609 OFFCURVE",
"510 576 OFFCURVE",
"510 524 CURVE SMOOTH",
"510 465 OFFCURVE",
"474 432 OFFCURVE",
"409 432 CURVE SMOOTH",
"316 432 LINE",
"306 306 LINE",
"409 306 LINE SMOOTH",
"502 306 OFFCURVE",
"538 278 OFFCURVE",
"538 212 CURVE SMOOTH",
"538 149 OFFCURVE",
"505 114 OFFCURVE",
"444 114 CURVE SMOOTH",
"403 114 OFFCURVE",
"355 131 OFFCURVE",
"306 166 CURVE",
"254 52 LINE",
"317 10 OFFCURVE",
"372 -6 OFFCURVE",
"447 -6 CURVE SMOOTH",
"592 -6 OFFCURVE",
"693 87 OFFCURVE",
"693 209 CURVE SMOOTH",
"693 309 OFFCURVE",
"629 371 OFFCURVE",
"528 384 CURVE",
"526 370 LINE",
"618 394 OFFCURVE",
"663 457 OFFCURVE",
"663 540 CURVE SMOOTH",
"663 656 OFFCURVE",
"566 735 OFFCURVE",
"407 735 CURVE SMOOTH",
"217 735 OFFCURVE",
"103 639 OFFCURVE",
"89 467 CURVE SMOOTH",
"52 0 LINE"
);
}
);
width = 733;
},
{
layerId = "EADB5E4A-85D8-40DB-A3FC-C2FF30FE6B12";
paths = (
{
closed = 1;
nodes = (
"128 0 LINE",
"165 470 LINE SMOOTH",
"178 619 OFFCURVE",
"242 686 OFFCURVE",
"389 686 CURVE SMOOTH",
"489 686 OFFCURVE",
"554 638 OFFCURVE",
"554 557 CURVE SMOOTH",
"554 453 OFFCURVE",
"484 394 OFFCURVE",
"366 394 CURVE SMOOTH",
"257 394 LINE",
"253 346 LINE",
"397 346 LINE SMOOTH",
"512 346 OFFCURVE",
"574 301 OFFCURVE",
"574 214 CURVE SMOOTH",
"574 105 OFFCURVE",
"504 42 OFFCURVE",
"388 42 CURVE SMOOTH",
"336 42 OFFCURVE",
"287 62 OFFCURVE",
"234 106 CURVE",
"208 61 LINE",
"255 18 OFFCURVE",
"321 -7 OFFCURVE",
"394 -7 CURVE SMOOTH",
"533 -7 OFFCURVE",
"628 82 OFFCURVE",
"628 213 CURVE SMOOTH",
"628 308 OFFCURVE",
"572 367 OFFCURVE",
"470 382 CURVE",
"460 371 LINE",
"553 390 OFFCURVE",
"607 460 OFFCURVE",
"607 558 CURVE SMOOTH",
"607 668 OFFCURVE",
"523 735 OFFCURVE",
"390 735 CURVE SMOOTH",
"220 735 OFFCURVE",
"127 652 OFFCURVE",
"114 481 CURVE SMOOTH",
"75 0 LINE"
);
}
);
width = 701;
}
);
leftKerningGroup = H;
leftMetricsKey = B;
rightKerningGroup = Germandbls;
unicode = 1E9E;
},
{
glyphname = Schwa;
lastChange = "2016-09-21 13:15:46 +0000";
layers = (
{
anchors = (
{
name = bottom;
position = "{376, 0}";
},
{
name = top;
position = "{432, 728}";
}
);
layerId = "E3EC4F6D-0AFB-4C34-B4C6-20524166427F";
paths = (
{
closed = 1;
nodes = (
"606 -9 OFFCURVE",
"750 147 OFFCURVE",
"750 388 CURVE SMOOTH",
"750 603 OFFCURVE",
"615 738 OFFCURVE",
"404 738 CURVE SMOOTH",
"297 738 OFFCURVE",
"199 706 OFFCURVE",
"133 654 CURVE",
"176 538 LINE",
"247 586 OFFCURVE",
"303 607 OFFCURVE",
"386 608 CURVE SMOOTH",
"514 609 OFFCURVE",
"589 531 OFFCURVE",
"589 388 CURVE SMOOTH",
"589 223 OFFCURVE",
"515 117 OFFCURVE",
"391 117 CURVE SMOOTH",
"267 117 OFFCURVE",
"193 201 OFFCURVE",
"222 365 CURVE",
"176 306 LINE",
"644 306 LINE",
"654 431 LINE",
"65 431 LINE",
"61 377 LINE SMOOTH",
"42 133 OFFCURVE",
"164 -9 OFFCURVE",
"393 -9 CURVE SMOOTH"
);
}
);
width = 792;
},
{
anchors = (
{
name = bottom;
position = "{357, 0}";
},
{
name = top;
position = "{414, 728}";
}
);
layerId = "EADB5E4A-85D8-40DB-A3FC-C2FF30FE6B12";
paths = (
{
closed = 1;
nodes = (
"567 -8 OFFCURVE",
"695 150 OFFCURVE",
"695 396 CURVE SMOOTH",
"695 608 OFFCURVE",
"579 737 OFFCURVE",
"393 737 CURVE SMOOTH",
"282 737 OFFCURVE",
"194 703 OFFCURVE",
"127 640 CURVE",
"148 597 LINE",
"217 662 OFFCURVE",
"298 688 OFFCURVE",
"382 688 CURVE SMOOTH",
"549 687 OFFCURVE",
"639 584 OFFCURVE",
"639 397 CURVE SMOOTH",
"639 176 OFFCURVE",
"536 42 OFFCURVE",
"363 41 CURVE SMOOTH",
"189 40 OFFCURVE",
"116 168 OFFCURVE",
"131 365 CURVE",
"115 345 LINE",
"668 345 LINE",
"673 395 LINE",
"79 395 LINE",
"75 362 LINE SMOOTH",
"56 149 OFFCURVE",
"154 -8 OFFCURVE",
"357 -8 CURVE SMOOTH"
);
}
);
width = 754;
}
);
leftKerningGroup = O;
leftMetricsKey = O;
rightKerningGroup = O;
rightMetricsKey = O;
unicode = 018F;
},
{
glyphname = T;
lastChange = "2016-09-21 13:15:46 +0000";
layers = (
{
anchors = (
{
name = bottom;
position = "{302, 0}";
},
{
name = center;
position = "{331, 365}";
},
{
name = top;
position = "{358, 728}";
}
);
layerId = "E3EC4F6D-0AFB-4C34-B4C6-20524166427F";
paths = (
{
closed = 1;
nodes = (
"383 0 LINE",
"430 596 LINE",
"658 596 LINE",
"668 728 LINE",
"50 728 LINE",
"39 596 LINE",
"267 596 LINE",
"220 0 LINE"
);
}
);
width = 644;
},
{
anchors = (
{
name = bottom;
position = "{284, 0}";
},
{
name = center;
position = "{313, 365}";
},
{
name = top;
position = "{341, 728}";
}
);
layerId = "EADB5E4A-85D8-40DB-A3FC-C2FF30FE6B12";
paths = (
{
closed = 1;
nodes = (
"310 0 LINE",
"364 682 LINE",
"628 682 LINE",
"632 728 LINE",
"51.01 728 LINE",
"46 682 LINE",
"311 682 LINE",
"257 0 LINE"
);
}
);
width = 606;
}
);
leftKerningGroup = T;
rightKerningGroup = T;
unicode = 0054;
userData = {
anchors = (
);
b = {
};
com.typemytype.robofont.layerData = {
b = {
anchors = (
);
components = (
);
contours = (
{
points = (
{
segmentType = curve;
smooth = 1;
x = 581;
y = 0;
},
{
segmentType = line;
smooth = 1;
x = 1350;
y = 0;
},
{
smooth = 0;
x = 1399;
y = 0;
},
{
smooth = 0;
x = 1423;
y = 34;
},
{
segmentType = curve;
smooth = 1;
x = 1423;
y = 71;
},
{
smooth = 0;
x = 1423;
y = 107;
},
{
smooth = 0;
x = 1399;
y = 141;
},
{
segmentType = curve;
smooth = 1;
x = 1350;
y = 141;
},
{
segmentType = line;
smooth = 0;
x = 671;
y = 141;
},
{
segmentType = line;
smooth = 0;
x = 671;
y = 665;
},
{
segmentType = line;
smooth = 1;
x = 1290;
y = 665;
},
{
smooth = 0;
x = 1339;
y = 665;
},
{
smooth = 0;
x = 1364;
y = 698;
},
{
segmentType = curve;
smooth = 1;
x = 1364;
y = 734;
},
{
smooth = 0;
x = 1364;
y = 770;
},
{
smooth = 0;
x = 1341;
y = 803;
},
{
segmentType = curve;
smooth = 1;
x = 1290;
y = 803;
},
{
segmentType = line;
smooth = 0;
x = 671;
y = 803;
},
{
segmentType = line;
smooth = 0;
x = 671;
y = 1285;
},
{
segmentType = line;
smooth = 1;
x = 1322;
y = 1285;
},
{
smooth = 0;
x = 1371;
y = 1285;
},
{
smooth = 0;
x = 1395;
y = 1319;
},
{
segmentType = curve;
smooth = 1;
x = 1395;
y = 1356;
},
{
smooth = 0;
x = 1395;
y = 1392;
},
{
smooth = 0;
x = 1371;
y = 1426;
},
{
segmentType = curve;
smooth = 1;
x = 1322;
y = 1426;
},
{
segmentType = line;
smooth = 1;
x = 576;
y = 1426;
},
{
smooth = 0;
x = 528;
y = 1426;
},
{
smooth = 0;
x = 493;
y = 1383;
},
{
segmentType = curve;
smooth = 1;
x = 493;
y = 1340;
},
{
segmentType = line;
smooth = 1;
x = 493;
y = 86;
},
{
smooth = 0;
x = 493;
y = 41;
},
{
smooth = 0;
x = 537;
y = 0;
}
);
}
);
lib = {
};
name = T;
unicodes = (
);
width = 1158;
};
};
components = (
);
contours = (
);
lib = {
};
name = T;
unicodes = (
);
width = 1199;
};
},
{
glyphname = Tbar;
lastChange = "2016-09-21 13:15:46 +0000";
layers = (
{
layerId = "E3EC4F6D-0AFB-4C34-B4C6-20524166427F";
paths = (
{
closed = 1;
nodes = (
"548 307 LINE",
"557 430 LINE",
"115 430 LINE",
"104 307 LINE"
);
},
{
closed = 1;
nodes = (
"383 0 LINE",
"430 596 LINE",
"658 596 LINE",
"668 728 LINE",
"50 728 LINE",
"39 596 LINE",
"267 596 LINE",
"220 0 LINE"
);
}
);
width = 644;
},
{
layerId = "EADB5E4A-85D8-40DB-A3FC-C2FF30FE6B12";
paths = (
{
closed = 1;
nodes = (
"487 347 LINE",
"491 393 LINE",
"137 393 LINE",
"134 347 LINE"
);
},
{
closed = 1;
nodes = (
"310 0 LINE",
"364 682 LINE",
"628 682 LINE",
"632 728 LINE",
"51.01 728 LINE",
"46 682 LINE",
"311 682 LINE",
"257 0 LINE"
);
}
);
width = 606;
}
);
leftKerningGroup = T;
leftMetricsKey = T;
rightKerningGroup = T;
rightMetricsKey = T;
unicode = 0166;
userData = {
com.typemytype.robofont.layerData = {
b = {
anchors = (
);
components = (
);
contours = (
);
lib = {
};
name = Tbar;
unicodes = (
);
width = 1158;
};
};
};
},
{
glyphname = U;
lastChange = "2016-09-21 13:15:46 +0000";
layers = (
{
anchors = (
{
name = bottom;
position = "{363, 0}";
},
{
name = ogonek;
position = "{489, 10}";
},
{
name = top;
position = "{419, 728}";
},
{
name = topright;
position = "{653, 728}";
}
);
layerId = "E3EC4F6D-0AFB-4C34-B4C6-20524166427F";
paths = (
{
closed = 1;
nodes = (
"573 -9 OFFCURVE",
"683 94 OFFCURVE",
"698 297 CURVE SMOOTH",
"732 728 LINE",
"573 728 LINE",
"538 285 LINE SMOOTH",
"528 160 OFFCURVE",
"471 117 OFFCURVE",
"384 117 CURVE SMOOTH",
"270 117 OFFCURVE",
"221 179 OFFCURVE",
"231 306 CURVE SMOOTH",
"265 728 LINE",
"105 728 LINE",
"72 311 LINE SMOOTH",
"56 99 OFFCURVE",
"158 -9 OFFCURVE",
"376 -9 CURVE SMOOTH"
);
}
);
width = 763;
},
{
anchors = (
{
name = bottom;
position = "{351, 0}";
},
{
name = ogonek;
position = "{468, 10}";
},
{
name = top;
position = "{408, 728}";
},
{
name = topright;
position = "{660, 728}";
}
);
layerId = "EADB5E4A-85D8-40DB-A3FC-C2FF30FE6B12";
paths = (
{
closed = 1;
nodes = (
"534 -8 OFFCURVE",
"636 86 OFFCURVE",
"652 279 CURVE SMOOTH",
"687 728 LINE",
"634 728 LINE",
"599 272 LINE SMOOTH",
"588 117 OFFCURVE",
"506 41 OFFCURVE",
"353 41 CURVE SMOOTH",
"204 41 OFFCURVE",
"133 121 OFFCURVE",
"146 282 CURVE SMOOTH",
"181 728 LINE",
"128 728 LINE",
"93 278 LINE SMOOTH",
"79 97 OFFCURVE",
"165 -8 OFFCURVE",
"354 -8 CURVE SMOOTH"
);
}
);
width = 742;
}
);
leftKerningGroup = U;
rightKerningGroup = U;
unicode = 0055;
userData = {
anchors = (
);
b = {
};
com.typemytype.robofont.layerData = {
b = {
anchors = (
);
components = (
);
contours = (
);
lib = {
};
name = U;
unicodes = (
);
width = 1490;
};
};
components = (
);
contours = (
);
lib = {
};
name = U;
unicodes = (
);
width = 1513;
};
},
{
glyphname = Uhorn;
lastChange = "2016-09-21 13:15:46 +0000";
layers = (
{
anchors = (
{
name = bottom;
position = "{363, 0}";
},
{
name = top;
position = "{419, 728}";
}
);
layerId = "E3EC4F6D-0AFB-4C34-B4C6-20524166427F";
paths = (
{
closed = 1;
nodes = (
"722 833 LINE SMOOTH",
"717 755 OFFCURVE",
"690 728 OFFCURVE",
"620 728 CURVE SMOOTH",
"573 728 LINE",
"538 285 LINE SMOOTH",
"528 160 OFFCURVE",
"471 117 OFFCURVE",
"384 117 CURVE SMOOTH",
"270 117 OFFCURVE",
"221 179 OFFCURVE",
"231 306 CURVE SMOOTH",
"265 728 LINE",
"105 728 LINE",
"72 311 LINE SMOOTH",
"56 99 OFFCURVE",
"158 -9 OFFCURVE",
"376 -9 CURVE SMOOTH",
"573 -9 OFFCURVE",
"682 94 OFFCURVE",
"698 297 CURVE SMOOTH",
"730 697 LINE",
"694 653 LINE",
"791 658 OFFCURVE",
"849 723 OFFCURVE",
"856 814 CURVE SMOOTH",
"859 853 LINE",
"724 853 LINE"
);
}
);
width = 763;
},
{
anchors = (
{
name = bottom;
position = "{351, 0}";
},
{
name = top;
position = "{408, 728}";
}
);
layerId = "EADB5E4A-85D8-40DB-A3FC-C2FF30FE6B12";
paths = (
{
closed = 1;
nodes = (
"770 845 LINE SMOOTH",
"763 762 OFFCURVE",
"729 729 OFFCURVE",
"650 728 CURVE SMOOTH",
"634 728 LINE",
"599 272 LINE SMOOTH",
"588 117 OFFCURVE",
"506 41 OFFCURVE",
"353 41 CURVE SMOOTH",
"204 41 OFFCURVE",
"133 121 OFFCURVE",
"146 282 CURVE SMOOTH",
"181 728 LINE",
"128 728 LINE",
"93 278 LINE SMOOTH",
"79 97 OFFCURVE",
"165 -8 OFFCURVE",
"354 -8 CURVE SMOOTH",
"534 -8 OFFCURVE",
"636 86 OFFCURVE",
"652 279 CURVE SMOOTH",
"686 714 LINE",
"647 686 LINE",
"749 687 OFFCURVE",
"811 740 OFFCURVE",
"819 836 CURVE SMOOTH",
"820 858 LINE",
"771 858 LINE"
);
}
);
width = 742;
}
);
leftKerningGroup = U;
leftMetricsKey = U;
widthMetricsKey = U;
rightKerningGroup = Uhorn;
unicode = 01AF;
},
{
glyphname = Uogonek;
lastChange = "2016-09-21 13:15:46 +0000";
layers = (
{
layerId = "E3EC4F6D-0AFB-4C34-B4C6-20524166427F";
paths = (
{
closed = 1;
nodes = (
"538 285 LINE SMOOTH",
"528 160 OFFCURVE",
"471 117 OFFCURVE",
"384 117 CURVE SMOOTH",
"270 117 OFFCURVE",
"221 179 OFFCURVE",
"231 306 CURVE SMOOTH",
"265 728 LINE",
"105 728 LINE",
"72 311 LINE SMOOTH",
"56 99 OFFCURVE",
"158 -9 OFFCURVE",
"371 -9 CURVE SMOOTH",
"385 -9 LINE",
"377 11 LINE",
"328 -11 OFFCURVE",
"308 -52 OFFCURVE",
"308 -94 CURVE SMOOTH",
"308 -158 OFFCURVE",
"358 -204 OFFCURVE",
"438 -204 CURVE SMOOTH",
"471 -204 OFFCURVE",
"504 -196 OFFCURVE",
"536 -183 CURVE",
"525 -109 LINE",
"502 -118 OFFCURVE",
"483 -122 OFFCURVE",
"466 -122 CURVE SMOOTH",
"432 -122 OFFCURVE",
"410 -103 OFFCURVE",
"410 -70 CURVE SMOOTH",
"410 -33 OFFCURVE",
"437 -10 OFFCURVE",
"478 0 CURVE SMOOTH",
"618 36 OFFCURVE",
"686 138 OFFCURVE",
"698 297 CURVE SMOOTH",
"732 728 LINE",
"573 728 LINE"
);
}
);
width = 763;
},
{
layerId = "EADB5E4A-85D8-40DB-A3FC-C2FF30FE6B12";
paths = (
{
closed = 1;
nodes = (
"599 272 LINE SMOOTH",
"588 117 OFFCURVE",
"506 41 OFFCURVE",
"353 41 CURVE SMOOTH",
"204 41 OFFCURVE",
"133 121 OFFCURVE",
"146 282 CURVE SMOOTH",
"181 728 LINE",
"128 728 LINE",
"93 278 LINE SMOOTH",
"79 97 OFFCURVE",
"165 -8 OFFCURVE",
"350 -8 CURVE SMOOTH",
"405 -8 LINE",
"395 11 LINE",
"344 -9 OFFCURVE",
"313 -40 OFFCURVE",
"313 -98 CURVE SMOOTH",
"313 -157 OFFCURVE",
"355 -197 OFFCURVE",
"424 -197 CURVE SMOOTH",
"456 -197 OFFCURVE",
"488 -186 OFFCURVE",
"505 -174 CURVE",
"492 -133 LINE",
"469 -148 OFFCURVE",
"445 -154 OFFCURVE",
"429 -154 CURVE SMOOTH",
"388 -154 OFFCURVE",
"365 -132 OFFCURVE",
"365 -89 CURVE SMOOTH",
"365 -41 OFFCURVE",
"397 -13 OFFCURVE",
"462 5 CURVE SMOOTH",
"574 37 OFFCURVE",
"640 129 OFFCURVE",
"652 279 CURVE SMOOTH",
"687 728 LINE",
"634 728 LINE"
);
}
);
width = 742;
}
);
leftKerningGroup = U;
leftMetricsKey = U;
rightKerningGroup = U;
rightMetricsKey = U;
unicode = 0172;
},
{
glyphname = V;
lastChange = "2016-09-21 13:15:46 +0000";
layers = (
{
anchors = (
{
name = bottom;
position = "{357, 0}";
},
{
name = top;
position = "{413, 728}";
}
);
layerId = "E3EC4F6D-0AFB-4C34-B4C6-20524166427F";
paths = (
{
closed = 1;
nodes = (
"422 0 LINE",
"807 728 LINE",
"641 728 LINE",
"347 148 LINE",
"394 148 LINE",
"189 728 LINE",
"21 728 LINE",
"291 0 LINE"
);
}
);
width = 753;
},
{
anchors = (
{
name = bottom;
position = "{330, 0}";
},
{
name = top;
position = "{385, 728}";
}
);
layerId = "EADB5E4A-85D8-40DB-A3FC-C2FF30FE6B12";
paths = (
{
closed = 1;
nodes = (
"353 0 LINE",
"724 728 LINE",
"669 728 LINE",
"317 35 LINE",
"345 35 LINE",
"101 728 LINE",
"46 728 LINE",
"304 0 LINE"
);
}
);
width = 696;
}
);
leftKerningGroup = V;
rightKerningGroup = V;
unicode = 0056;
userData = {
anchors = (
);
b = {
};
com.typemytype.robofont.guides = (
);
com.typemytype.robofont.layerData = {
b = {
anchors = (
);
components = (
);
contours = (
{
points = (
{
segmentType = curve;
smooth = 1;
x = 644;
y = "-5";
},
{
smooth = 0;
x = 712;
y = "-5";
},
{
smooth = 0;
x = 764;
y = 38;
},
{
segmentType = curve;
smooth = 1;
x = 793;
y = 117;
},
{
segmentType = line;
smooth = 1;
x = 1243;
y = 1324;
},
{
smooth = 0;
x = 1247;
y = 1335;
},
{
smooth = 0;
x = 1248;
y = 1342;
},
{
segmentType = curve;
smooth = 1;
x = 1248;
y = 1351;
},
{
smooth = 0;
x = 1248;
y = 1395;
},
{
smooth = 0;
x = 1203;
y = 1427;
},
{
segmentType = curve;
smooth = 1;
x = 1160;
y = 1427;
},
{
smooth = 0;
x = 1125;
y = 1427;
},
{
smooth = 0;
x = 1090;
y = 1408;
},
{
segmentType = curve;
smooth = 1;
x = 1076;
y = 1369;
},
{
segmentType = line;
smooth = 0;
x = 651;
y = 192;
},
{
segmentType = line;
smooth = 0;
x = 650;
y = 190;
},
{
segmentType = line;
smooth = 1;
x = 214;
y = 1370;
},
{
smooth = 0;
x = 200;
y = 1407;
},
{
smooth = 0;
x = 170;
y = 1427;
},
{
segmentType = curve;
smooth = 1;
x = 135;
y = 1427;
},
{
smooth = 0;
x = 90;
y = 1427;
},
{
smooth = 0;
x = 43;
y = 1392;
},
{
segmentType = curve;
smooth = 1;
x = 43;
y = 1344;
},
{
smooth = 0;
x = 43;
y = 1336;
},
{
smooth = 0;
x = 44;
y = 1326;
},
{
segmentType = curve;
smooth = 0;
x = 48;
y = 1318;
},
{
segmentType = line;
smooth = 1;
x = 501;
y = 117;
},
{
smooth = 0;
x = 532;
y = 35;
},
{
smooth = 0;
x = 581;
y = "-5";
}
);
}
);
lib = {
};
name = V;
unicodes = (
);
width = 1289;
};
};
components = (
);
contours = (
);
lib = {
};
name = V;
unicodes = (
);
width = 1365;
};
},
{
glyphname = W;
lastChange = "2016-09-21 13:15:46 +0000";
layers = (
{
anchors = (
{
name = bottom;
position = "{557, 0}";
},
{
name = top;
position = "{614, 728}";
}
);
layerId = "E3EC4F6D-0AFB-4C34-B4C6-20524166427F";
paths = (
{
closed = 1;
nodes = (
"386 0 LINE",
"608 514 LINE",
"584 514 LINE",
"725 0 LINE",
"855 0 LINE",
"1170 728 LINE",
"1015 728 LINE",
"781 168 LINE",
"817 168 LINE",
"674 728 LINE",
"561 728 LINE",
"320 168 LINE",
"361 168 LINE",
"219 728 LINE",
"56 728 LINE",
"257 0 LINE"
);
}
);
width = 1152;
},
{
anchors = (
{
name = bottom;
position = "{546, 0}";
},
{
name = top;
position = "{602, 728}";
}
);
layerId = "EADB5E4A-85D8-40DB-A3FC-C2FF30FE6B12";
paths = (
{
closed = 1;
nodes = (
"321 0 LINE",
"609 675 LINE",
"588 675 LINE",
"770 0 LINE",
"817 0 LINE",
"1127 728 LINE",
"1074 728 LINE",
"779 32 LINE",
"810 32 LINE",
"625 727 LINE",
"581 728 LINE",
"285 32 LINE",
"315 32 LINE",
"130 728 LINE",
"77 728 LINE",
"274 0 LINE"
);
}
);
width = 1131;
}
);
leftKerningGroup = V;
rightKerningGroup = V;
unicode = 0057;
userData = {
anchors = (
);
b = {
};
com.typemytype.robofont.layerData = {
b = {
anchors = (
);
components = (
);
contours = (
);
lib = {
};
name = W;
unicodes = (
);
width = 2126;
};
};
components = (
);
contours = (
);
lib = {
};
name = W;
unicodes = (
);
width = 2070;
};
},
{
glyphname = X;
lastChange = "2016-09-21 13:15:46 +0000";
layers = (
{
anchors = (
{
name = bottom;
position = "{330, 0}";
},
{
name = top;
position = "{385, 728}";
}
);
layerId = "E3EC4F6D-0AFB-4C34-B4C6-20524166427F";
paths = (
{
closed = 1;
nodes = (
"349 247 LINE",
"448 367 LINE",
"748 728 LINE",
"557 728 LINE",
"366 491 LINE",
"267 371 LINE",
"-40 0 LINE",
"151 0 LINE"
);
},
{
closed = 1;
nodes = (
"698 0 LINE",
"448 367 LINE",
"366 491 LINE",
"209 728 LINE",
"24 728 LINE",
"267 371 LINE",
"349 247 LINE",
"513 0 LINE"
);
}
);
width = 697;
},
{
anchors = (
{
name = bottom;
position = "{309, 0}";
},
{
name = top;
position = "{366, 728}";
}
);
layerId = "EADB5E4A-85D8-40DB-A3FC-C2FF30FE6B12";
paths = (
{
closed = 1;
nodes = (
"336 334 LINE",
"367 373 LINE",
"656 728 LINE",
"592 728 LINE",
"341 415 LINE",
"307 375 LINE",
"1 0 LINE",
"64 0 LINE"
);
},
{
closed = 1;
nodes = (
"614 0 LINE",
"367 373 LINE",
"341 415 LINE",
"136 728 LINE",
"73 728 LINE",
"307 375 LINE",
"336 334 LINE",
"552 0 LINE"
);
}
);
width = 655;
}
);
leftKerningGroup = X;
rightKerningGroup = X;
unicode = 0058;
userData = {
anchors = (
);
b = {
};
com.typemytype.robofont.layerData = {
b = {
anchors = (
);
components = (
);
contours = (
{
points = (
{
segmentType = curve;
smooth = 1;
x = 151;
y = 0;
},
{
smooth = 0;
x = 176;
y = 0;
},
{
smooth = 0;
x = 201;
y = 12;
},
{
segmentType = curve;
smooth = 1;
x = 222;
y = 41;
},
{
segmentType = line;
smooth = 0;
x = 641;
y = 616;
},
{
segmentType = line;
smooth = 0;
x = 746;
y = 734;
},
{
segmentType = line;
smooth = 1;
x = 1175;
y = 1310;
},
{
smooth = 0;
x = 1186;
y = 1325;
},
{
smooth = 0;
x = 1190;
y = 1338;
},
{
segmentType = curve;
smooth = 1;
x = 1190;
y = 1353;
},
{
smooth = 0;
x = 1190;
y = 1393;
},
{
smooth = 0;
x = 1153;
y = 1426;
},
{
segmentType = curve;
smooth = 1;
x = 1110;
y = 1426;
},
{
smooth = 0;
x = 1083;
y = 1426;
},
{
smooth = 0;
x = 1058;
y = 1414;
},
{
segmentType = curve;
smooth = 1;
x = 1037;
y = 1385;
},
{
segmentType = line;
smooth = 0;
x = 648;
y = 844;
},
{
segmentType = line;
smooth = 0;
x = 542;
y = 732;
},
{
segmentType = line;
smooth = 1;
x = 84;
y = 121;
},
{
smooth = 0;
x = 73;
y = 106;
},
{
smooth = 0;
x = 68;
y = 91;
},
{
segmentType = curve;
smooth = 1;
x = 68;
y = 76;
},
{
smooth = 0;
x = 68;
y = 35;
},
{
smooth = 0;
x = 108;
y = 0;
}
);
},
{
points = (
{
segmentType = curve;
smooth = 1;
x = 1104;
y = 0;
},
{
smooth = 0;
x = 1151;
y = 0;
},
{
smooth = 0;
x = 1200;
y = 40;
},
{
segmentType = curve;
smooth = 1;
x = 1200;
y = 85;
},
{
smooth = 0;
x = 1200;
y = 98;
},
{
smooth = 0;
x = 1195;
y = 113;
},
{
segmentType = curve;
smooth = 0;
x = 1186;
y = 126;
},
{
segmentType = line;
smooth = 0;
x = 272;
y = 1385;
},
{
smooth = 0;
x = 252;
y = 1414;
},
{
smooth = 0;
x = 225;
y = 1426;
},
{
segmentType = curve;
smooth = 1;
x = 197;
y = 1426;
},
{
smooth = 0;
x = 149;
y = 1426;
},
{
smooth = 0;
x = 100;
y = 1388;
},
{
segmentType = curve;
smooth = 1;
x = 100;
y = 1343;
},
{
smooth = 0;
x = 100;
y = 1328;
},
{
smooth = 0;
x = 105;
y = 1315;
},
{
segmentType = curve;
smooth = 0;
x = 114;
y = 1303;
},
{
segmentType = line;
smooth = 0;
x = 1033;
y = 40;
},
{
smooth = 0;
x = 1052;
y = 13;
},
{
smooth = 0;
x = 1076;
y = 0;
}
);
}
);
lib = {
};
name = X;
unicodes = (
);
width = 1274;
};
};
components = (
);
contours = (
);
lib = {
};
name = X;
unicodes = (
);
width = 1322;
};
},
{
glyphname = Y;
lastChange = "2016-09-21 13:15:46 +0000";
layers = (
{
anchors = (
{
name = bottom;
position = "{310, 0}";
},
{
name = top;
position = "{366, 728}";
},
{
name = topleft;
position = "{57, 728}";
}
);
layerId = "E3EC4F6D-0AFB-4C34-B4C6-20524166427F";
paths = (
{
closed = 1;
nodes = (
"391 0 LINE",
"416 327 LINE",
"376 234 LINE",
"749 728 LINE",
"563 728 LINE",
"319 384 LINE",
"355 384 LINE",
"164 728 LINE",
"-16 728 LINE",
"280 234 LINE",
"254 327 LINE",
"228 0 LINE"
);
}
);
width = 658;
},
{
anchors = (
{
name = bottom;
position = "{282, 0}";
},
{
name = top;
position = "{339, 728}";
},
{
name = topleft;
position = "{57, 728}";
}
);
layerId = "EADB5E4A-85D8-40DB-A3FC-C2FF30FE6B12";
paths = (
{
closed = 1;
nodes = (
"308 0 LINE",
"334 327 LINE",
"318 282 LINE",
"645 728 LINE",
"583 728 LINE",
"300 334 LINE",
"316 334 LINE",
"93 728 LINE",
"33 728 LINE",
"290 282 LINE",
"282 327 LINE",
"256 0 LINE"
);
}
);
width = 604;
}
);
leftKerningGroup = Y;
rightKerningGroup = Y;
unicode = 0059;
userData = {
anchors = (
);
b = {
};
com.typemytype.robofont.guides = (
);
com.typemytype.robofont.layerData = {
b = {
anchors = (
);
components = (
);
contours = (
{
points = (
{
segmentType = curve;
smooth = 1;
x = 641;
y = 0;
},
{
smooth = 0;
x = 685;
y = 0;
},
{
smooth = 0;
x = 730;
y = 29;
},
{
segmentType = curve;
smooth = 1;
x = 730;
y = 85;
},
{
segmentType = line;
smooth = 0;
x = 730;
y = 1285;
},
{
segmentType = line;
smooth = 1;
x = 1115;
y = 1285;
},
{
smooth = 0;
x = 1164;
y = 1285;
},
{
smooth = 0;
x = 1190;
y = 1319;
},
{
segmentType = curve;
smooth = 1;
x = 1190;
y = 1355;
},
{
smooth = 0;
x = 1190;
y = 1392;
},
{
smooth = 0;
x = 1166;
y = 1426;
},
{
segmentType = curve;
smooth = 1;
x = 1115;
y = 1426;
},
{
segmentType = line;
smooth = 1;
x = 160;
y = 1426;
},
{
smooth = 0;
x = 111;
y = 1426;
},
{
smooth = 0;
x = 86;
y = 1392;
},
{
segmentType = curve;
smooth = 1;
x = 86;
y = 1355;
},
{
smooth = 0;
x = 86;
y = 1319;
},
{
smooth = 0;
x = 111;
y = 1285;
},
{
segmentType = curve;
smooth = 1;
x = 160;
y = 1285;
},
{
segmentType = line;
smooth = 0;
x = 552;
y = 1285;
},
{
segmentType = line;
smooth = 1;
x = 552;
y = 85;
},
{
smooth = 0;
x = 552;
y = 29;
},
{
smooth = 0;
x = 596;
y = 0;
}
);
}
);
lib = {
};
name = Y;
unicodes = (
);
width = 1278;
};
};
components = (
);
contours = (
);
lib = {
};
name = Y;
unicodes = (
);
width = 1321;
};
},
{
glyphname = Z;
lastChange = "2016-09-21 13:15:46 +0000";
layers = (
{
anchors = (
{
name = bottom;
position = "{293, 0}";
},
{
name = top;
position = "{353, 728}";
}
);
layerId = "E3EC4F6D-0AFB-4C34-B4C6-20524166427F";
paths = (
{
closed = 1;
nodes = (
"575 26 LINE",
"586 154 LINE",
"192 154 LINE",
"192 109 LINE",
"610 611 LINE",
"618 728 LINE",
"87 702 LINE",
"77 574 LINE",
"459 574 LINE",
"459 620 LINE",
"42 119 LINE",
"33 0 LINE"
);
}
);
width = 630;
},
{
anchors = (
{
name = bottom;
position = "{288, 0}";
},
{
name = top;
position = "{337, 728}";
}
);
layerId = "EADB5E4A-85D8-40DB-A3FC-C2FF30FE6B12";
paths = (
{
closed = 1;
nodes = (
"587 707 LINE",
"590 745 LINE",
"80 745 LINE",
"76 696 LINE",
"545 681 LINE",
"548 721 LINE",
"26 21 LINE",
"23 -17 LINE",
"546 -17 LINE",
"550 33 LINE",
"69 48 LINE",
"67 7 LINE"
);
}
);
width = 600;
}
);
leftKerningGroup = Z;
rightKerningGroup = Z;
unicode = 005A;
userData = {
anchors = (
);
b = {
};
com.typemytype.robofont.layerData = {
b = {
anchors = (
);
components = (
);
contours = (
{
points = (
{
segmentType = curve;
smooth = 1;
x = 266;
y = 0;
},
{
segmentType = line;
smooth = 1;
x = 1035;
y = 0;
},
{
smooth = 0;
x = 1084;
y = 0;
},
{
smooth = 0;
x = 1108;
y = 34;
},
{
segmentType = curve;
smooth = 1;
x = 1108;
y = 71;
},
{
smooth = 0;
x = 1108;
y = 107;
},
{
smooth = 0;
x = 1084;
y = 141;
},
{
segmentType = curve;
smooth = 1;
x = 1035;
y = 141;
},
{
segmentType = line;
smooth = 0;
x = 356;
y = 141;
},
{
segmentType = line;
smooth = 0;
x = 356;
y = 665;
},
{
segmentType = line;
smooth = 1;
x = 975;
y = 665;
},
{
smooth = 0;
x = 1024;
y = 665;
},
{
smooth = 0;
x = 1049;
y = 698;
},
{
segmentType = curve;
smooth = 1;
x = 1049;
y = 734;
},
{
smooth = 0;
x = 1049;
y = 770;
},
{
smooth = 0;
x = 1026;
y = 803;
},
{
segmentType = curve;
smooth = 1;
x = 975;
y = 803;
},
{
segmentType = line;
smooth = 0;
x = 356;
y = 803;
},
{
segmentType = line;
smooth = 0;
x = 356;
y = 1285;
},
{
segmentType = line;
smooth = 1;
x = 1007;
y = 1285;
},
{
smooth = 0;
x = 1056;
y = 1285;
},
{
smooth = 0;
x = 1080;
y = 1319;
},
{
segmentType = curve;
smooth = 1;
x = 1080;
y = 1356;
},
{
smooth = 0;
x = 1080;
y = 1392;
},
{
smooth = 0;
x = 1056;
y = 1426;
},
{
segmentType = curve;
smooth = 1;
x = 1007;
y = 1426;
},
{
segmentType = line;
smooth = 1;
x = 261;
y = 1426;
},
{
smooth = 0;
x = 213;
y = 1426;
},
{
smooth = 0;
x = 178;
y = 1383;
},
{
segmentType = curve;
smooth = 1;
x = 178;
y = 1340;
},
{
segmentType = line;
smooth = 1;
x = 178;
y = 86;
},
{
smooth = 0;
x = 178;
y = 41;
},
{
smooth = 0;
x = 222;
y = 0;
}
);
}
);
lib = {
};
name = Z;
unicodes = (
);
width = 1165;
};
};
components = (
);
contours = (
);
lib = {
};
name = Z;
unicodes = (
);
width = 1222;
};
},
{
color = 3;
glyphname = a;
lastChange = "2016-09-21 13:15:46 +0000";
layers = (
{
anchors = (
{
name = bottom;
position = "{297, 0}";
},
{
name = ogonek;
position = "{529, 10}";
},
{
name = top;
position = "{337, 511}";
}
);
layerId = "E3EC4F6D-0AFB-4C34-B4C6-20524166427F";
paths = (
{
closed = 1;
nodes = (
"327 -8 OFFCURVE",
"389 28 OFFCURVE",
"418 88 CURVE",
"406 102 LINE",
"398 0 LINE",
"553 0 LINE",
"593 507 LINE",
"438 507 LINE",
"430 403 LINE",
"441 428 LINE",
"410 486 OFFCURVE",
"354 520 OFFCURVE",
"277 520 CURVE SMOOTH",
"133 520 OFFCURVE",
"35 403 OFFCURVE",
"35 236 CURVE SMOOTH",
"35 84 OFFCURVE",
"123 -8 OFFCURVE",
"251 -8 CURVE SMOOTH"
);
},
{
closed = 1;
nodes = (
"232 110 OFFCURVE",
"191 158 OFFCURVE",
"191 245 CURVE SMOOTH",
"191 341 OFFCURVE",
"236 401 OFFCURVE",
"309 401 CURVE SMOOTH",
"379 401 OFFCURVE",
"419 355 OFFCURVE",
"419 263 CURVE SMOOTH",
"419 171 OFFCURVE",
"375 110 OFFCURVE",
"304 110 CURVE SMOOTH"
);
}
);
width = 633;
},
{
anchors = (
{
name = bottom;
position = "{276, 0}";
},
{
name = ogonek;
position = "{481, 10}";
},
{
name = top;
position = "{316, 506}";
}
);
layerId = "EADB5E4A-85D8-40DB-A3FC-C2FF30FE6B12";
paths = (
{
closed = 1;
nodes = (
"349 -7 OFFCURVE",
"428 41 OFFCURVE",
"451 122 CURVE",
"441 140 LINE",
"430 0 LINE",
"482 0 LINE",
"522 501 LINE",
"469 501 LINE",
"459 366 LINE",
"473 373 LINE",
"453 462 OFFCURVE",
"382 513 OFFCURVE",
"286 513 CURVE SMOOTH",
"146 513 OFFCURVE",
"52 403 OFFCURVE",
"52 236 CURVE SMOOTH",
"52 88 OFFCURVE",
"137 -7 OFFCURVE",
"265 -7 CURVE SMOOTH"
);
},
{
closed = 1;
nodes = (
"168 41 OFFCURVE",
"108 112 OFFCURVE",
"108 232 CURVE SMOOTH",
"108 377 OFFCURVE",
"174 465 OFFCURVE",
"285 465 CURVE SMOOTH",
"392 465 OFFCURVE",
"451 398 OFFCURVE",
"451 275 CURVE SMOOTH",
"451 130 OFFCURVE",
"384 41 OFFCURVE",
"274 41 CURVE SMOOTH"
);
}
);
width = 588;
}
);
leftKerningGroup = o;
leftMetricsKey = o;
rightKerningGroup = u;
unicode = 0061;
userData = {
anchors = (
);
b = {
};
com.typemytype.robofont.layerData = {
b = {
anchors = (
);
components = (
);
contours = (
);
lib = {
};
name = p;
unicodes = (
);
width = 1181;
};
};
components = (
);
contours = (
);
lib = {
};
name = p;
unicodes = (
);
width = 1207;
};
},
{
color = 3;
glyphname = aogonek;
lastChange = "2016-09-21 13:15:46 +0000";
layers = (
{
layerId = "E3EC4F6D-0AFB-4C34-B4C6-20524166427F";
paths = (
{
closed = 1;
nodes = (
"593 507 LINE",
"438 507 LINE",
"430 403 LINE",
"441 428 LINE",
"410 486 OFFCURVE",
"354 520 OFFCURVE",
"277 520 CURVE SMOOTH",
"133 520 OFFCURVE",
"35 403 OFFCURVE",
"35 236 CURVE SMOOTH",
"35 84 OFFCURVE",
"123 -8 OFFCURVE",
"251 -8 CURVE SMOOTH",
"327 -8 OFFCURVE",
"389 28 OFFCURVE",
"418 88 CURVE",
"406 101 LINE",
"398 0 LINE",
"442 0 LINE",
"459 34 LINE",
"393 13 OFFCURVE",
"350 -35 OFFCURVE",
"350 -94 CURVE SMOOTH",
"350 -158 OFFCURVE",
"404 -204 OFFCURVE",
"480 -204 CURVE SMOOTH",
"513 -204 OFFCURVE",
"547 -196 OFFCURVE",
"579 -183 CURVE",
"567 -109 LINE",
"544 -118 OFFCURVE",
"525 -122 OFFCURVE",
"507 -122 CURVE SMOOTH",
"474 -122 OFFCURVE",
"453 -103 OFFCURVE",
"453 -70 CURVE SMOOTH",
"453 -30 OFFCURVE",
"484 0 OFFCURVE",
"534 0 CURVE SMOOTH",
"553 0 LINE"
);
},
{
closed = 1;
nodes = (
"240 126 OFFCURVE",
"204 169 OFFCURVE",
"204 247 CURVE SMOOTH",
"204 332 OFFCURVE",
"244 385 OFFCURVE",
"309 385 CURVE SMOOTH",
"371 385 OFFCURVE",
"406 344 OFFCURVE",
"406 262 CURVE SMOOTH",
"406 181 OFFCURVE",
"367 126 OFFCURVE",
"304 126 CURVE SMOOTH"
);
}
);
width = 633;
},
{
layerId = "EADB5E4A-85D8-40DB-A3FC-C2FF30FE6B12";
paths = (
{
closed = 1;
nodes = (
"522 501 LINE",
"469 501 LINE",
"459 366 LINE",
"473 373 LINE",
"453 462 OFFCURVE",
"382 513 OFFCURVE",
"286 513 CURVE SMOOTH",
"147 513 OFFCURVE",
"52 403 OFFCURVE",
"52 236 CURVE SMOOTH",
"52 88 OFFCURVE",
"138 -7 OFFCURVE",
"265 -7 CURVE SMOOTH",
"349 -7 OFFCURVE",
"428 41 OFFCURVE",
"451 122 CURVE",
"439 114 LINE",
"430 0 LINE",
"446 0 LINE",
"470 39 LINE",
"384 26 OFFCURVE",
"326 -23 OFFCURVE",
"326 -98 CURVE SMOOTH",
"326 -157 OFFCURVE",
"368 -197 OFFCURVE",
"436 -197 CURVE SMOOTH",
"468 -197 OFFCURVE",
"500 -186 OFFCURVE",
"518 -174 CURVE",
"504 -133 LINE",
"481 -148 OFFCURVE",
"458 -154 OFFCURVE",
"441 -154 CURVE SMOOTH",
"401 -154 OFFCURVE",
"377 -132 OFFCURVE",
"377 -89 CURVE SMOOTH",
"377 -32 OFFCURVE",
"423 0 OFFCURVE",
"473 0 CURVE SMOOTH",
"482 0 LINE"
);
},
{
closed = 1;
nodes = (
"397 473 OFFCURVE",
"457 403 OFFCURVE",
"457 276 CURVE SMOOTH",
"457 125 OFFCURVE",
"388 33 OFFCURVE",
"274 33 CURVE SMOOTH",
"165 33 OFFCURVE",
"102 106 OFFCURVE",
"102 231 CURVE SMOOTH",
"102 382 OFFCURVE",
"171 473 OFFCURVE",
"285 473 CURVE SMOOTH"
);
}
);
width = 588;
}
);
leftKerningGroup = o;
leftMetricsKey = o;
widthMetricsKey = a;
rightKerningGroup = u;
unicode = 0105;
userData = {
com.typemytype.robofont.layerData = {
b = {
anchors = (
);
components = (
);
contours = (
);
lib = {
};
name = aogonek;
unicodes = (
);
width = 1040;
};
};
};
},
{
color = 3;
glyphname = aringacute;
lastChange = "2016-09-21 13:15:46 +0000";
layers = (
{
layerId = "E3EC4F6D-0AFB-4C34-B4C6-20524166427F";
paths = (
{
closed = 1;
nodes = (
"327 -8 OFFCURVE",
"389 28 OFFCURVE",
"418 88 CURVE",
"406 102 LINE",
"398 0 LINE",
"553 0 LINE",
"593 507 LINE",
"438 507 LINE",
"430 403 LINE",
"441 428 LINE",
"410 486 OFFCURVE",
"354 520 OFFCURVE",
"277 520 CURVE SMOOTH",
"133 520 OFFCURVE",
"35 403 OFFCURVE",
"35 236 CURVE SMOOTH",
"35 84 OFFCURVE",
"123 -8 OFFCURVE",
"251 -8 CURVE SMOOTH"
);
},
{
closed = 1;
nodes = (
"232 110 OFFCURVE",
"191 158 OFFCURVE",
"191 245 CURVE SMOOTH",
"191 341 OFFCURVE",
"236 401 OFFCURVE",
"309 401 CURVE SMOOTH",
"379 401 OFFCURVE",
"419 355 OFFCURVE",
"419 263 CURVE SMOOTH",
"419 171 OFFCURVE",
"375 110 OFFCURVE",
"304 110 CURVE SMOOTH"
);
},
{
closed = 1;
nodes = (
"404 568 OFFCURVE",
"459 617 OFFCURVE",
"464 680 CURVE SMOOTH",
"468 742 OFFCURVE",
"421 790 OFFCURVE",
"358 790 CURVE SMOOTH",
"295 790 OFFCURVE",
"242 742 OFFCURVE",
"238 680 CURVE SMOOTH",
"232 617 OFFCURVE",
"279 568 OFFCURVE",
"341 568 CURVE SMOOTH"
);
},
{
closed = 1;
nodes = (
"320 632 OFFCURVE",
"304 654 OFFCURVE",
"306 680 CURVE SMOOTH",
"308 706 OFFCURVE",
"327 726 OFFCURVE",
"353 726 CURVE SMOOTH",
"379 726 OFFCURVE",
"397 706 OFFCURVE",
"395 680 CURVE SMOOTH",
"393 654 OFFCURVE",
"372 632 OFFCURVE",
"346 632 CURVE SMOOTH"
);
},
{
closed = 1;
nodes = (
"623 876 LINE",
"478 882 LINE",
"392 767 LINE",
"447 717 LINE"
);
}
);
width = 633;
},
{
layerId = "EADB5E4A-85D8-40DB-A3FC-C2FF30FE6B12";
paths = (
{
closed = 1;
nodes = (
"349 -7 OFFCURVE",
"428 41 OFFCURVE",
"451 122 CURVE",
"441 140 LINE",
"430 0 LINE",
"482 0 LINE",
"522 501 LINE",
"469 501 LINE",
"459 366 LINE",
"473 373 LINE",
"453 462 OFFCURVE",
"382 513 OFFCURVE",
"286 513 CURVE SMOOTH",
"146 513 OFFCURVE",
"52 403 OFFCURVE",
"52 236 CURVE SMOOTH",
"52 88 OFFCURVE",
"137 -7 OFFCURVE",
"265 -7 CURVE SMOOTH"
);
},
{
closed = 1;
nodes = (
"168 41 OFFCURVE",
"108 112 OFFCURVE",
"108 232 CURVE SMOOTH",
"108 377 OFFCURVE",
"174 465 OFFCURVE",
"285 465 CURVE SMOOTH",
"392 465 OFFCURVE",
"451 398 OFFCURVE",
"451 275 CURVE SMOOTH",
"451 130 OFFCURVE",
"384 41 OFFCURVE",
"274 41 CURVE SMOOTH"
);
},
{
closed = 1;
nodes = (
"384 573 OFFCURVE",
"429 617 OFFCURVE",
"429 672 CURVE SMOOTH",
"429 728 OFFCURVE",
"383 772 OFFCURVE",
"327 772 CURVE SMOOTH",
"273 772 OFFCURVE",
"227 728 OFFCURVE",
"227 672 CURVE SMOOTH",
"227 617 OFFCURVE",
"273 573 OFFCURVE",
"328 573 CURVE SMOOTH"
);
},
{
closed = 1;
nodes = (
"299 619 OFFCURVE",
"276 643 OFFCURVE",
"276 672 CURVE SMOOTH",
"276 702 OFFCURVE",
"298 726 OFFCURVE",
"328 726 CURVE SMOOTH",
"358 726 OFFCURVE",
"380 702 OFFCURVE",
"380 672 CURVE SMOOTH",
"380 643 OFFCURVE",
"358 619 OFFCURVE",
"328 619 CURVE SMOOTH"
);
},
{
closed = 1;
nodes = (
"405 716 LINE",
"560 876 LINE",
"484 879 LINE",
"365 721 LINE"
);
}
);
width = 588;
}
);
leftKerningGroup = o;
leftMetricsKey = o;
widthMetricsKey = a;
rightKerningGroup = u;
unicode = 01FB;
},
{
color = 3;
glyphname = ae;
lastChange = "2016-09-21 13:15:46 +0000";
layers = (
{
anchors = (
{
name = bottom;
position = "{411, 0}";
},
{
name = top;
position = "{451, 511}";
}
);
layerId = "E3EC4F6D-0AFB-4C34-B4C6-20524166427F";
paths = (
{
closed = 1;
nodes = (
"339 -8 OFFCURVE",
"434 67 OFFCURVE",
"445 198 CURVE",
"487 208 LINE",
"494 300 LINE SMOOTH",
"504 429 OFFCURVE",
"456 520 OFFCURVE",
"305 520 CURVE SMOOTH",
"224 520 OFFCURVE",
"132 494 OFFCURVE",
"76 457 CURVE",
"110 351 LINE",
"162 383 OFFCURVE",
"225 402 OFFCURVE",
"274 402 CURVE SMOOTH",
"339 402 OFFCURVE",
"366 376 OFFCURVE",
"361 315 CURVE SMOOTH",
"353 209 LINE SMOOTH",
"348 145 OFFCURVE",
"306 100 OFFCURVE",
"251 100 CURVE SMOOTH",
"211 100 OFFCURVE",
"184 122 OFFCURVE",
"184 165 CURVE SMOOTH",
"184 222 OFFCURVE",
"221 242 OFFCURVE",
"318 242 CURVE SMOOTH",
"360 242 LINE",
"367 317 LINE",
"315 317 LINE SMOOTH",
"114 317 OFFCURVE",
"32 267 OFFCURVE",
"32 147 CURVE SMOOTH",
"32 55 OFFCURVE",
"106 -8 OFFCURVE",
"221 -8 CURVE SMOOTH"
);
},
{
closed = 1;
nodes = (
"689 -8 OFFCURVE",
"763 15 OFFCURVE",
"807 54 CURVE",
"774 159 LINE",
"729 126 OFFCURVE",
"681 109 OFFCURVE",
"630 109 CURVE SMOOTH",
"550 109 OFFCURVE",
"505 154 OFFCURVE",
"505 244 CURVE SMOOTH",
"505 362 OFFCURVE",
"546 411 OFFCURVE",
"618 411 CURVE SMOOTH",
"669 411 OFFCURVE",
"706 373 OFFCURVE",
"701 287 CURVE",
"742 317 LINE",
"499 317 LINE",
"492 240 LINE",
"828 240 LINE",
"850 418 OFFCURVE",
"755 520 OFFCURVE",
"620 520 CURVE SMOOTH",
"477 520 OFFCURVE",
"375 406 OFFCURVE",
"375 241 CURVE SMOOTH",
"375 90 OFFCURVE",
"463 -8 OFFCURVE",
"619 -8 CURVE SMOOTH"
);
}
);
width = 865;
},
{
anchors = (
{
name = bottom;
position = "{416, 0}";
},
{
name = top;
position = "{457, 506}";
}
);
layerId = "EADB5E4A-85D8-40DB-A3FC-C2FF30FE6B12";
paths = (
{
closed = 1;
nodes = (
"337 -7 OFFCURVE",
"418 64 OFFCURVE",
"439 177 CURVE",
"455 176 LINE",
"469 324 LINE SMOOTH",
"477 447 OFFCURVE",
"424 513 OFFCURVE",
"300 513 CURVE SMOOTH",
"231 513 OFFCURVE",
"154 490 OFFCURVE",
"105 453 CURVE",
"124 410 LINE",
"184 448 OFFCURVE",
"241 465 OFFCURVE",
"301 465 CURVE SMOOTH",
"387 465 OFFCURVE",
"423 420 OFFCURVE",
"415 325 CURVE SMOOTH",
"406 215 LINE SMOOTH",
"397 113 OFFCURVE",
"325 41 OFFCURVE",
"234 41 CURVE SMOOTH",
"163 41 OFFCURVE",
"118 81 OFFCURVE",
"118 138 CURVE SMOOTH",
"118 212 OFFCURVE",
"158 259 OFFCURVE",
"364 259 CURVE SMOOTH",
"420 259 LINE",
"423 304 LINE",
"360 304 LINE SMOOTH",
"143 304 OFFCURVE",
"61 246 OFFCURVE",
"61 136 CURVE SMOOTH",
"61 52 OFFCURVE",
"130 -7 OFFCURVE",
"229 -7 CURVE SMOOTH"
);
},
{
closed = 1;
nodes = (
"696 -7 OFFCURVE",
"776 19 OFFCURVE",
"817 60 CURVE",
"797 102 LINE",
"747 60 OFFCURVE",
"686 41 OFFCURVE",
"635 41 CURVE SMOOTH",
"521 41 OFFCURVE",
"462 115 OFFCURVE",
"462 231 CURVE SMOOTH",
"462 377 OFFCURVE",
"529 468 OFFCURVE",
"650 468 CURVE SMOOTH",
"744 468 OFFCURVE",
"806 401 OFFCURVE",
"791 280 CURVE",
"813 304 LINE",
"444 304 LINE",
"443 259 LINE",
"840 259 LINE",
"858 427 OFFCURVE",
"776 513 OFFCURVE",
"647 513 CURVE SMOOTH",
"498 513 OFFCURVE",
"414 401 OFFCURVE",
"414 234 CURVE SMOOTH",
"414 88 OFFCURVE",
"492 -7 OFFCURVE",
"635 -7 CURVE SMOOTH"
);
}
);
width = 887;
}
);
leftKerningGroup = a;
rightKerningGroup = e;
rightMetricsKey = e;
unicode = 00E6;
userData = {
com.typemytype.robofont.layerData = {
b = {
anchors = (
);
components = (
);
contours = (
);
lib = {
};
name = ae;
unicodes = (
);
width = 1734;
};
};
};
},
{
color = 3;
glyphname = b;
lastChange = "2016-09-21 13:15:46 +0000";
layers = (
{
anchors = (
{
name = bottom;
position = "{299, 0}";
},
{
name = top;
position = "{396, 511}";
}
);
layerId = "E3EC4F6D-0AFB-4C34-B4C6-20524166427F";
paths = (
{
closed = 1;
nodes = (
"502 -8 OFFCURVE",
"600 108 OFFCURVE",
"600 276 CURVE SMOOTH",
"600 428 OFFCURVE",
"512 520 OFFCURVE",
"384 520 CURVE SMOOTH",
"307 520 OFFCURVE",
"245 482 OFFCURVE",
"216 423 CURVE",
"227 392 LINE",
"254 728 LINE",
"97 728 LINE",
"40 0 LINE",
"195 0 LINE",
"205 123 LINE",
"193 84 LINE",
"225 26 OFFCURVE",
"280 -8 OFFCURVE",
"357 -8 CURVE SMOOTH"
);
},
{
closed = 1;
nodes = (
"255 110 OFFCURVE",
"215 156 OFFCURVE",
"215 247 CURVE SMOOTH",
"215 340 OFFCURVE",
"259 401 OFFCURVE",
"331 401 CURVE SMOOTH",
"403 401 OFFCURVE",
"443 353 OFFCURVE",
"443 265 CURVE SMOOTH",
"443 169 OFFCURVE",
"400 110 OFFCURVE",
"325 110 CURVE SMOOTH"
);
}
);
width = 633;
},
{
anchors = (
{
name = bottom;
position = "{291, 0}";
},
{
name = top;
position = "{333, 506}";
}
);
layerId = "EADB5E4A-85D8-40DB-A3FC-C2FF30FE6B12";
paths = (
{
closed = 1;
nodes = (
"441 -7 OFFCURVE",
"536 103 OFFCURVE",
"536 271 CURVE SMOOTH",
"536 418 OFFCURVE",
"449 513 OFFCURVE",
"322 513 CURVE SMOOTH",
"239 513 OFFCURVE",
"160 465 OFFCURVE",
"136 384 CURVE",
"147 367 LINE",
"177 728 LINE",
"124 728 LINE",
"65 0 LINE",
"119 0 LINE",
"130 139 LINE",
"116 132 LINE",
"134 44 OFFCURVE",
"207 -7 OFFCURVE",
"302 -7 CURVE SMOOTH"
);
},
{
closed = 1;
nodes = (
"196 41 OFFCURVE",
"137 108 OFFCURVE",
"137 231 CURVE SMOOTH",
"137 376 OFFCURVE",
"204 465 OFFCURVE",
"315 465 CURVE SMOOTH",
"418 465 OFFCURVE",
"480 395 OFFCURVE",
"480 274 CURVE SMOOTH",
"480 129 OFFCURVE",
"413 41 OFFCURVE",
"305 41 CURVE SMOOTH"
);
}
);
width = 588;
}
);
leftKerningGroup = h;
rightKerningGroup = o;
rightMetricsKey = o;
unicode = 0062;
userData = {
anchors = (
);
b = {
};
com.typemytype.robofont.layerData = {
b = {
anchors = (
);
components = (
);
contours = (
{
points = (
{
segmentType = curve;
smooth = 1;
x = 238;
y = 1425;
},
{
smooth = 0;
x = 198;
y = 1425;
},
{
smooth = 0;
x = 158;
y = 1400;
},
{
segmentType = curve;
smooth = 1;
x = 158;
y = 1351;
},
{
segmentType = line;
smooth = 1;
x = 158;
y = 76;
},
{
smooth = 0;
x = 158;
y = 27;
},
{
smooth = 0;
x = 197;
y = 3;
},
{
segmentType = curve;
smooth = 1;
x = 237;
y = 3;
},
{
smooth = 0;
x = 297;
y = 3;
},
{
smooth = 0;
x = 318;
y = 38;
},
{
segmentType = curve;
smooth = 1;
x = 318;
y = 76;
},
{
segmentType = line;
smooth = 0;
x = 318;
y = 183;
},
{
smooth = 0;
x = 384;
y = 46;
},
{
smooth = 0;
x = 516;
y = "-20";
},
{
segmentType = curve;
smooth = 1;
x = 666;
y = "-20";
},
{
smooth = 0;
x = 957;
y = "-20";
},
{
smooth = 0;
x = 1095;
y = 225;
},
{
segmentType = curve;
smooth = 1;
x = 1095;
y = 502;
},
{
smooth = 0;
x = 1095;
y = 777;
},
{
smooth = 0;
x = 939;
y = 1013;
},
{
segmentType = curve;
smooth = 1;
x = 650;
y = 1013;
},
{
smooth = 0;
x = 503;
y = 1013;
},
{
smooth = 0;
x = 376;
y = 942;
},
{
segmentType = curve;
smooth = 0;
x = 318;
y = 814;
},
{
segmentType = line;
smooth = 1;
x = 318;
y = 1351;
},
{
smooth = 0;
x = 318;
y = 1400;
},
{
smooth = 0;
x = 278;
y = 1425;
}
);
},
{
points = (
{
segmentType = curve;
smooth = 1;
x = 632;
y = 903;
},
{
smooth = 0;
x = 859;
y = 903;
},
{
smooth = 0;
x = 935;
y = 685;
},
{
segmentType = curve;
smooth = 1;
x = 935;
y = 496;
},
{
smooth = 0;
x = 935;
y = 316;
},
{
smooth = 0;
x = 869;
y = 93;
},
{
segmentType = curve;
smooth = 0;
x = 645;
y = 90;
},
{
smooth = 0;
x = 395;
y = 90;
},
{
smooth = 0;
x = 319;
y = 279;
},
{
segmentType = curve;
smooth = 1;
x = 319;
y = 501;
},
{
smooth = 0;
x = 319;
y = 701;
},
{
smooth = 0;
x = 407;
y = 903;
}
);
}
);
lib = {
};
name = b;
unicodes = (
);
width = 1181;
};
};
components = (
);
contours = (
);
lib = {
};
name = b;
unicodes = (
);
width = 1203;
};
},
{
color = 3;
glyphname = c;
lastChange = "2016-09-21 13:15:46 +0000";
layers = (
{
anchors = (
{
name = bottom;
position = "{275, 0}";
},
{
name = top;
position = "{324, 511}";
}
);
layerId = "E3EC4F6D-0AFB-4C34-B4C6-20524166427F";
paths = (
{
closed = 1;
nodes = (
"370 -8 OFFCURVE",
"439 14 OFFCURVE",
"485 54 CURVE",
"452 162 LINE",
"409 130 OFFCURVE",
"365 112 OFFCURVE",
"313 112 CURVE SMOOTH",
"242 112 OFFCURVE",
"196 156 OFFCURVE",
"196 243 CURVE SMOOTH",
"196 342 OFFCURVE",
"244 400 OFFCURVE",
"327 400 CURVE SMOOTH",
"374 400 OFFCURVE",
"423 381 OFFCURVE",
"466 349 CURVE",
"517 458 LINE",
"469 496 OFFCURVE",
"403 520 OFFCURVE",
"318 520 CURVE SMOOTH",
"147 520 OFFCURVE",
"35 415 OFFCURVE",
"35 240 CURVE SMOOTH",
"35 91 OFFCURVE",
"137 -8 OFFCURVE",
"302 -8 CURVE SMOOTH"
);
}
);
width = 510;
},
{
anchors = (
{
name = bottom;
position = "{262, 0}";
},
{
name = top;
position = "{305, 506}";
}
);
layerId = "EADB5E4A-85D8-40DB-A3FC-C2FF30FE6B12";
paths = (
{
closed = 1;
nodes = (
"340 -7 OFFCURVE",
"403 19 OFFCURVE",
"444 60 CURVE",
"425 102 LINE",
"374 60 OFFCURVE",
"333 41 OFFCURVE",
"278 41 CURVE SMOOTH",
"167 41 OFFCURVE",
"108 115 OFFCURVE",
"108 231 CURVE SMOOTH",
"108 376 OFFCURVE",
"175 465 OFFCURVE",
"294 465 CURVE SMOOTH",
"352 465 OFFCURVE",
"396 446 OFFCURVE",
"449 404 CURVE",
"474 446 LINE",
"431 488 OFFCURVE",
"368 513 OFFCURVE",
"298 513 CURVE SMOOTH",
"146 513 OFFCURVE",
"52 402 OFFCURVE",
"52 234 CURVE SMOOTH",
"52 88 OFFCURVE",
"138.01 -6.99 OFFCURVE",
"272 -7 CURVE SMOOTH"
);
}
);
width = 489;
}
);
leftKerningGroup = o;
leftMetricsKey = o;
rightKerningGroup = c;
unicode = 0063;
userData = {
anchors = (
);
b = {
};
com.typemytype.robofont.layerData = {
b = {
anchors = (
);
components = (
);
contours = (
);
lib = {
};
name = c;
unicodes = (
);
width = 956.1410;
};
};
components = (
);
contours = (
);
lib = {
};
name = c;
unicodes = (
);
width = 992;
};
},
{
color = 3;
glyphname = d;
lastChange = "2016-09-21 13:15:46 +0000";
layers = (
{
anchors = (
{
name = bottom;
position = "{298, 0}";
},
{
name = center;
position = "{318, 256}";
},
{
name = top;
position = "{338, 511}";
},
{
name = topright;
position = "{637, 728}";
}
);
layerId = "E3EC4F6D-0AFB-4C34-B4C6-20524166427F";
paths = (
{
closed = 1;
nodes = (
"327 -8 OFFCURVE",
"389 28 OFFCURVE",
"418 88 CURVE",
"407 123 LINE",
"398 0 LINE",
"553 0 LINE",
"611 728 LINE",
"453 728 LINE",
"427 392 LINE",
"441 428 LINE",
"410 486 OFFCURVE",
"354 520 OFFCURVE",
"277 520 CURVE SMOOTH",
"133 520 OFFCURVE",
"35 403 OFFCURVE",
"35 236 CURVE SMOOTH",
"35 84 OFFCURVE",
"123 -8 OFFCURVE",
"251 -8 CURVE SMOOTH"
);
},
{
closed = 1;
nodes = (
"232 110 OFFCURVE",
"191 158 OFFCURVE",
"191 246 CURVE SMOOTH",
"191 341 OFFCURVE",
"236 401 OFFCURVE",
"309 401 CURVE SMOOTH",
"379 401 OFFCURVE",
"419 355 OFFCURVE",
"419 263 CURVE SMOOTH",
"419 171 OFFCURVE",
"375 110 OFFCURVE",
"304 110 CURVE SMOOTH"
);
}
);
width = 633;
},
{
anchors = (
{
name = bottom;
position = "{277, 0}";
},
{
name = center;
position = "{296, 253}";
},
{
name = top;
position = "{317, 506}";
},
{
name = topright;
position = "{581, 728}";
}
);
layerId = "EADB5E4A-85D8-40DB-A3FC-C2FF30FE6B12";
paths = (
{
closed = 1;
nodes = (
"349 -7 OFFCURVE",
"428 41 OFFCURVE",
"451 122 CURVE",
"441 139 LINE",
"430 0 LINE",
"482 0 LINE",
"539 728 LINE",
"487 728 LINE",
"459 367 LINE",
"473 373 LINE",
"453 462 OFFCURVE",
"382 513 OFFCURVE",
"286 513 CURVE SMOOTH",
"147 513 OFFCURVE",
"52 403 OFFCURVE",
"52 234 CURVE SMOOTH",
"52 88 OFFCURVE",
"138 -7 OFFCURVE",
"265 -7 CURVE SMOOTH"
);
},
{
closed = 1;
nodes = (
"169 41 OFFCURVE",
"108 112 OFFCURVE",
"108 234 CURVE SMOOTH",
"108 377 OFFCURVE",
"175 465 OFFCURVE",
"285 465 CURVE SMOOTH",
"392 465 OFFCURVE",
"451 398 OFFCURVE",
"451 275 CURVE SMOOTH",
"451 130 OFFCURVE",
"384 41 OFFCURVE",
"274 41 CURVE SMOOTH"
);
}
);
width = 588;
}
);
leftKerningGroup = o;
leftMetricsKey = o;
rightKerningGroup = l;
unicode = 0064;
userData = {
anchors = (
);
b = {
};
com.typemytype.robofont.layerData = {
b = {
anchors = (
);
components = (
);
contours = (
);
lib = {
};
name = d;
unicodes = (
);
width = 1181;
};
};
components = (
);
contours = (
);
lib = {
};
name = d;
unicodes = (
);
width = 1207;
};
},
{
color = 3;
glyphname = eth;
lastChange = "2016-09-21 13:15:46 +0000";
layers = (
{
layerId = "E3EC4F6D-0AFB-4C34-B4C6-20524166427F";
paths = (
{
closed = 1;
nodes = (
"463 -8 OFFCURVE",
"585 87 OFFCURVE",
"585 328 CURVE SMOOTH",
"585 522 OFFCURVE",
"467 706 OFFCURVE",
"225 740 CURVE",
"183 632 LINE",
"336 610 OFFCURVE",
"452 498 OFFCURVE",
"440 336 CURVE",
"480 332 LINE",
"454 437 OFFCURVE",
"381 470 OFFCURVE",
"291 470 CURVE SMOOTH",
"146 470 OFFCURVE",
"33 375 OFFCURVE",
"33 221 CURVE SMOOTH",
"33 82 OFFCURVE",
"135 -8 OFFCURVE",
"300 -8 CURVE SMOOTH"
);
},
{
closed = 1;
nodes = (
"225 111 OFFCURVE",
"189 159 OFFCURVE",
"189 223 CURVE SMOOTH",
"189 292 OFFCURVE",
"222 354 OFFCURVE",
"307 354 CURVE SMOOTH",
"379 354 OFFCURVE",
"415 310 OFFCURVE",
"415 245 CURVE SMOOTH",
"415 172 OFFCURVE",
"382 111 OFFCURVE",
"298 111 CURVE SMOOTH"
);
},
{
closed = 1;
nodes = (
"602 592 LINE",
"587 672 LINE",
"177 563 LINE",
"192 483 LINE"
);
}
);
width = 615;
},
{
layerId = "EADB5E4A-85D8-40DB-A3FC-C2FF30FE6B12";
paths = (
{
closed = 1;
nodes = (
"414 -7 OFFCURVE",
"515 94 OFFCURVE",
"515 333 CURVE SMOOTH",
"515 538 OFFCURVE",
"412 674 OFFCURVE",
"219 734 CURVE",
"200 694 LINE",
"396 632 OFFCURVE",
"481 488 OFFCURVE",
"463 300 CURVE",
"477 319 LINE",
"470 404 OFFCURVE",
"397 470 OFFCURVE",
"285 470 CURVE SMOOTH",
"144 470 OFFCURVE",
"50 368 OFFCURVE",
"50 215 CURVE SMOOTH",
"50 80 OFFCURVE",
"136.01 -6.99 OFFCURVE",
"270 -7 CURVE SMOOTH"
);
},
{
closed = 1;
nodes = (
"165 41 OFFCURVE",
"105 100 OFFCURVE",
"105 212 CURVE SMOOTH",
"105 342 OFFCURVE",
"174 421 OFFCURVE",
"284 421 CURVE SMOOTH",
"387 421 OFFCURVE",
"450 358 OFFCURVE",
"450 254 CURVE SMOOTH",
"450 119 OFFCURVE",
"382 41 OFFCURVE",
"274 41 CURVE SMOOTH"
);
},
{
closed = 1;
nodes = (
"539 654 LINE",
"527 694 LINE",
"197 566 LINE",
"210 525 LINE"
);
}
);
width = 561;
}
);
leftKerningGroup = o;
leftMetricsKey = o;
rightKerningGroup = o;
unicode = 00F0;
userData = {
com.typemytype.robofont.layerData = {
b = {
anchors = (
);
components = (
);
contours = (
);
lib = {
};
name = eth;
unicodes = (
);
width = 1230;
};
};
};
},
{
color = 3;
glyphname = dcaron;
lastChange = "2016-09-21 13:15:46 +0000";
layers = (
{
components = (
{
name = d;
}
);
layerId = "E3EC4F6D-0AFB-4C34-B4C6-20524166427F";
paths = (
{
closed = 1;
nodes = (
"718 728 LINE",
"637 728 LINE",
"622 528 LINE",
"676 528 LINE"
);
}
);
width = 633;
},
{
components = (
{
name = d;
}
);
layerId = "EADB5E4A-85D8-40DB-A3FC-C2FF30FE6B12";
paths = (
{
closed = 1;
nodes = (
"636 728 LINE",
"576 728 LINE",
"562 533 LINE",
"595 533 LINE"
);
}
);
width = 588;
}
);
leftKerningGroup = o;
leftMetricsKey = d;
widthMetricsKey = d;
rightKerningGroup = lcaron;
unicode = 010F;
},
{
color = 3;
glyphname = dcroat;
lastChange = "2016-09-21 13:15:46 +0000";
layers = (
{
layerId = "E3EC4F6D-0AFB-4C34-B4C6-20524166427F";
paths = (
{
closed = 1;
nodes = (
"328 -8 OFFCURVE",
"390 28 OFFCURVE",
"419 88 CURVE",
"409 123 LINE",
"400 0 LINE",
"555 0 LINE",
"612 728 LINE",
"454 728 LINE",
"428 392 LINE",
"442 428 LINE",
"411 486 OFFCURVE",
"355 520 OFFCURVE",
"278 520 CURVE SMOOTH",
"134 520 OFFCURVE",
"36 399 OFFCURVE",
"36 246 CURVE SMOOTH",
"36 86 OFFCURVE",
"124 -8 OFFCURVE",
"252 -8 CURVE SMOOTH"
);
},
{
closed = 1;
nodes = (
"236 110 OFFCURVE",
"192 153 OFFCURVE",
"192 245 CURVE SMOOTH",
"192 343 OFFCURVE",
"240 401 OFFCURVE",
"308 401 CURVE SMOOTH",
"382 401 OFFCURVE",
"420 358 OFFCURVE",
"420 274 CURVE SMOOTH",
"420 168 OFFCURVE",
"379 110 OFFCURVE",
"305 110 CURVE SMOOTH"
);
},
{
closed = 1;
nodes = (
"686 550 LINE",
"694 659 LINE",
"257 659 LINE",
"249 550 LINE"
);
}
);
width = 633;
},
{
layerId = "EADB5E4A-85D8-40DB-A3FC-C2FF30FE6B12";
paths = (
{
closed = 1;
nodes = (
"349 -7 OFFCURVE",
"428 41 OFFCURVE",
"451 122 CURVE",
"441 139 LINE",
"430 0 LINE",
"482 0 LINE",
"539 728 LINE",
"487 728 LINE",
"459 367 LINE",
"473 373 LINE",
"453 462 OFFCURVE",
"382 513 OFFCURVE",
"286 513 CURVE SMOOTH",
"147 513 OFFCURVE",
"52 403 OFFCURVE",
"52 236 CURVE SMOOTH",
"52 88 OFFCURVE",
"138 -7 OFFCURVE",
"265 -7 CURVE SMOOTH"
);
},
{
closed = 1;
nodes = (
"169 41 OFFCURVE",
"108 112 OFFCURVE",
"108 232 CURVE SMOOTH",
"108 377 OFFCURVE",
"175 465 OFFCURVE",
"285 465 CURVE SMOOTH",
"392 465 OFFCURVE",
"451 398 OFFCURVE",
"451 275 CURVE SMOOTH",
"451 130 OFFCURVE",
"384 41 OFFCURVE",
"274 41 CURVE SMOOTH"
);
},
{
closed = 1;
nodes = (
"626 583 LINE",
"630 627 LINE",
"277 627 LINE",
"273 583 LINE"
);
}
);
width = 588;
}
);
leftKerningGroup = o;
leftMetricsKey = d;
widthMetricsKey = d;
rightKerningGroup = l;
unicode = 0111;
userData = {
com.typemytype.robofont.layerData = {
b = {
anchors = (
);
components = (
);
contours = (
);
lib = {
};
name = dcroat;
unicodes = (
);
width = 1181;
};
};
};
},
{
color = 3;
glyphname = e;
lastChange = "2016-09-21 13:15:46 +0000";
layers = (
{
anchors = (
{
name = bottom;
position = "{287, 0}";
},
{
name = ogonek;
position = "{392, 10}";
},
{
name = top;
position = "{306, 511}";
}
);
layerId = "E3EC4F6D-0AFB-4C34-B4C6-20524166427F";
paths = (
{
closed = 1;
nodes = (
"460 159 LINE",
"415 126 OFFCURVE",
"367 109 OFFCURVE",
"312 109 CURVE SMOOTH",
"229 109 OFFCURVE",
"185 154 OFFCURVE",
"185 244 CURVE SMOOTH",
"185 362 OFFCURVE",
"226 411 OFFCURVE",
"298 411 CURVE SMOOTH",
"356 411 OFFCURVE",
"392 373 OFFCURVE",
"387 302 CURVE",
"428 317 LINE",
"179 317 LINE",
"172 240 LINE",
"514 240 LINE",
"536 418 OFFCURVE",
"442 520 OFFCURVE",
"292 520 CURVE SMOOTH",
"145 520 OFFCURVE",
"35 406 OFFCURVE",
"35 241 CURVE SMOOTH",
"35 90 OFFCURVE",
"140 -8 OFFCURVE",
"301 -8 CURVE SMOOTH",
"375 -8 OFFCURVE",
"448 15 OFFCURVE",
"493 54 CURVE"
);
}
);
width = 551;
},
{
anchors = (
{
name = bottom;
position = "{277, 0}";
},
{
name = ogonek;
position = "{371, 10}";
},
{
name = top;
position = "{306, 506}";
}
);
layerId = "EADB5E4A-85D8-40DB-A3FC-C2FF30FE6B12";
paths = (
{
closed = 1;
nodes = (
"452 102 LINE",
"402 60 OFFCURVE",
"340 41 OFFCURVE",
"281 41 CURVE SMOOTH",
"167 41 OFFCURVE",
"109 115 OFFCURVE",
"109 231 CURVE SMOOTH",
"109 377 OFFCURVE",
"176 468 OFFCURVE",
"300 468 CURVE SMOOTH",
"398 468 OFFCURVE",
"460 401 OFFCURVE",
"445 280 CURVE",
"467 304 LINE",
"102 304 LINE",
"100 259 LINE",
"495 259 LINE",
"513 427 OFFCURVE",
"431 513 OFFCURVE",
"296 513 CURVE SMOOTH",
"146 513 OFFCURVE",
"52 401 OFFCURVE",
"52 234 CURVE SMOOTH",
"52 88 OFFCURVE",
"138 -7 OFFCURVE",
"281 -7 CURVE SMOOTH",
"351 -7 OFFCURVE",
"431 19 OFFCURVE",
"472 60 CURVE"
);
}
);
width = 542;
}
);
leftKerningGroup = o;
leftMetricsKey = o;
rightKerningGroup = e;
unicode = 0065;
userData = {
anchors = (
);
b = {
};
com.typemytype.robofont.layerData = {
b = {
anchors = (
);
components = (
);
contours = (
);
lib = {
};
name = e;
unicodes = (
);
width = 1132;
};
};
components = (
);
contours = (
);
lib = {
};
name = e;
unicodes = (
);
width = 1132;
};
},
{
color = 3;
glyphname = eogonek;
lastChange = "2016-09-21 13:15:46 +0000";
layers = (
{
anchors = (
{
name = top;
position = "{306, 511}";
}
);
layerId = "E3EC4F6D-0AFB-4C34-B4C6-20524166427F";
paths = (
{
closed = 1;
nodes = (
"409 -204 OFFCURVE",
"442 -196 OFFCURVE",
"473 -183 CURVE",
"462 -109 LINE",
"439 -118 OFFCURVE",
"420 -122 OFFCURVE",
"403 -122 CURVE SMOOTH",
"370 -122 OFFCURVE",
"348 -103 OFFCURVE",
"348 -70 CURVE SMOOTH",
"348 -35 OFFCURVE",
"368 -9 OFFCURVE",
"431 17 CURVE SMOOTH",
"459 28 OFFCURVE",
"481 41 OFFCURVE",
"493 54 CURVE",
"460 159 LINE",
"415 126 OFFCURVE",
"367 109 OFFCURVE",
"312 109 CURVE SMOOTH",
"229 109 OFFCURVE",
"185 154 OFFCURVE",
"185 244 CURVE SMOOTH",
"185 362 OFFCURVE",
"227 411 OFFCURVE",
"298 411 CURVE SMOOTH",
"356 411 OFFCURVE",
"392 373 OFFCURVE",
"387 302 CURVE",
"428 317 LINE",
"179 317 LINE",
"172 240 LINE",
"514 240 LINE",
"536 418 OFFCURVE",
"442 520 OFFCURVE",
"292 520 CURVE SMOOTH",
"145 520 OFFCURVE",
"35 406 OFFCURVE",
"35 241 CURVE SMOOTH",
"35 90 OFFCURVE",
"140 -8 OFFCURVE",
"301 -8 CURVE SMOOTH",
"309 -8 OFFCURVE",
"323 -6 OFFCURVE",
"344 -3 CURVE",
"316 13 LINE",
"272 -5 OFFCURVE",
"246 -46 OFFCURVE",
"246 -94 CURVE SMOOTH",
"246 -158 OFFCURVE",
"295 -204 OFFCURVE",
"376 -204 CURVE SMOOTH"
);
}
);
width = 551;
},
{
anchors = (
{
name = top;
position = "{306, 506}";
}
);
layerId = "EADB5E4A-85D8-40DB-A3FC-C2FF30FE6B12";
paths = (
{
closed = 1;
nodes = (
"402 -197 OFFCURVE",
"434 -186 OFFCURVE",
"452 -174 CURVE",
"439 -133 LINE",
"416 -148 OFFCURVE",
"392 -154 OFFCURVE",
"375 -154 CURVE SMOOTH",
"335 -154 OFFCURVE",
"311 -132 OFFCURVE",
"311 -89 CURVE SMOOTH",
"311 -54 OFFCURVE",
"327 -14 OFFCURVE",
"414 22 CURVE SMOOTH",
"441 33 OFFCURVE",
"462 49 OFFCURVE",
"472 60 CURVE",
"452 102 LINE",
"402 60 OFFCURVE",
"343 41 OFFCURVE",
"281 41 CURVE SMOOTH",
"167 41 OFFCURVE",
"109 115 OFFCURVE",
"109 231 CURVE SMOOTH",
"109 400 OFFCURVE",
"193 468 OFFCURVE",
"300 468 CURVE SMOOTH",
"398 468 OFFCURVE",
"460 401 OFFCURVE",
"445 280 CURVE",
"467 304 LINE",
"102 304 LINE",
"100 259 LINE",
"495 259 LINE",
"513 427 OFFCURVE",
"429 513 OFFCURVE",
"296 513 CURVE SMOOTH",
"146 513 OFFCURVE",
"52 401 OFFCURVE",
"52 234 CURVE SMOOTH",
"52 88 OFFCURVE",
"138 -7 OFFCURVE",
"281 -7 CURVE SMOOTH",
"302 -7 OFFCURVE",
"317 -4 OFFCURVE",
"344 5 CURVE",
"332 13 LINE",
"289 -6 OFFCURVE",
"259 -44 OFFCURVE",
"259 -98 CURVE SMOOTH",
"259 -157 OFFCURVE",
"302 -197 OFFCURVE",
"370 -197 CURVE SMOOTH"
);
}
);
width = 542;
}
);
leftKerningGroup = o;
leftMetricsKey = e;
widthMetricsKey = e;
rightKerningGroup = e;
unicode = 0119;
},
{
color = 3;
glyphname = schwa;
lastChange = "2016-09-21 13:15:46 +0000";
layers = (
{
layerId = "E3EC4F6D-0AFB-4C34-B4C6-20524166427F";
paths = (
{
closed = 1;
nodes = (
"93 352 LINE",
"140 384 OFFCURVE",
"189 402 OFFCURVE",
"247 402 CURVE SMOOTH",
"325 402 OFFCURVE",
"369 357 OFFCURVE",
"369 269 CURVE SMOOTH",
"369 150 OFFCURVE",
"329 100 OFFCURVE",
"256 100 CURVE SMOOTH",
"196 100 OFFCURVE",
"160 138 OFFCURVE",
"167 210 CURVE",
"125 193 LINE",
"374 193 LINE",
"380 272 LINE",
"36 272 LINE",
"15 93 OFFCURVE",
"110 -8 OFFCURVE",
"260 -8 CURVE SMOOTH",
"408 -8 OFFCURVE",
"518 105 OFFCURVE",
"518 271 CURVE SMOOTH",
"518 421 OFFCURVE",
"421 520 OFFCURVE",
"261 520 CURVE SMOOTH",
"187 520 OFFCURVE",
"107 496 OFFCURVE",
"59 458 CURVE"
);
}
);
width = 552;
},
{
layerId = "EADB5E4A-85D8-40DB-A3FC-C2FF30FE6B12";
paths = (
{
closed = 1;
nodes = (
"91 403 LINE",
"142 446 OFFCURVE",
"202 465 OFFCURVE",
"261 465 CURVE SMOOTH",
"372 465 OFFCURVE",
"435 395 OFFCURVE",
"435 275 CURVE SMOOTH",
"435 129 OFFCURVE",
"368 38 OFFCURVE",
"254 38 CURVE SMOOTH",
"146 38 OFFCURVE",
"83 105 OFFCURVE",
"97 226 CURVE",
"74 202 LINE",
"442 202 LINE",
"444 247 LINE",
"48 247 LINE",
"29 80 OFFCURVE",
"113 -7 OFFCURVE",
"257 -7 CURVE SMOOTH",
"401 -7 OFFCURVE",
"491 105 OFFCURVE",
"491 272 CURVE SMOOTH",
"491 418 OFFCURVE",
"405 513 OFFCURVE",
"262 513 CURVE SMOOTH",
"192 513 OFFCURVE",
"113 488 OFFCURVE",
"71 446 CURVE"
);
}
);
width = 543;
}
);
leftKerningGroup = o;
leftMetricsKey = "=|e";
rightKerningGroup = o;
rightMetricsKey = o;
unicode = 0259;
},
{
color = 3;
glyphname = f;
lastChange = "2016-09-21 13:15:46 +0000";
layers = (
{
anchors = (
{
name = bottom;
position = "{159, 0}";
},
{
name = top;
position = "{199, 511}";
}
);
layerId = "E3EC4F6D-0AFB-4C34-B4C6-20524166427F";
paths = (
{
closed = 1;
nodes = (
"396 390 LINE",
"405 507 LINE",
"25 507 LINE",
"15 390 LINE"
);
},
{
closed = 1;
nodes = (
"238 0 LINE",
"279 525 LINE SMOOTH",
"285 605 OFFCURVE",
"301 618 OFFCURVE",
"385 618 CURVE SMOOTH",
"409 618 LINE",
"417 731 LINE",
"376 731 LINE SMOOTH",
"197 731 OFFCURVE",
"134 685 OFFCURVE",
"123 538 CURVE SMOOTH",
"81 0 LINE"
);
}
);
width = 389;
},
{
anchors = (
{
name = bottom;
position = "{115, 0}";
},
{
name = top;
position = "{155, 506}";
}
);
layerId = "EADB5E4A-85D8-40DB-A3FC-C2FF30FE6B12";
paths = (
{
closed = 1;
nodes = (
"326 457 LINE",
"331 501 LINE",
"29 501 LINE",
"25 457 LINE"
);
},
{
closed = 1;
nodes = (
"140 0 LINE",
"184 554 LINE SMOOTH",
"193 668 OFFCURVE",
"214 687 OFFCURVE",
"320 687 CURVE SMOOTH",
"345 687 LINE",
"349 731 LINE",
"321 731 LINE SMOOTH",
"186 731 OFFCURVE",
"142 686 OFFCURVE",
"132 570 CURVE SMOOTH",
"87 0 LINE"
);
}
);
width = 318;
}
);
leftKerningGroup = f;
rightKerningGroup = f;
unicode = 0066;
userData = {
anchors = (
);
b = {
};
com.typemytype.robofont.layerData = {
b = {
anchors = (
);
components = (
);
contours = (
);
lib = {
};
name = f;
unicodes = (
);
width = 696;
};
};
components = (
);
contours = (
);
lib = {
};
name = f;
unicodes = (
);
width = 723;
};
},
{
color = 3;
glyphname = g;
lastChange = "2016-09-21 13:15:46 +0000";
layers = (
{
anchors = (
{
name = bottom;
position = "{300, 0}";
},
{
name = top;
position = "{340, 511}";
}
);
layerId = "E3EC4F6D-0AFB-4C34-B4C6-20524166427F";
paths = (
{
closed = 1;
nodes = (
"58 -148 LINE",
"118 -178 OFFCURVE",
"192 -194 OFFCURVE",
"275 -194 CURVE SMOOTH",
"447 -194 OFFCURVE",
"548 -119 OFFCURVE",
"562 61 CURVE SMOOTH",
"597 507 LINE",
"442 507 LINE",
"434 400 LINE",
"446 428 LINE",
"415 486 OFFCURVE",
"359 520 OFFCURVE",
"280 520 CURVE SMOOTH",
"133 520 OFFCURVE",
"36 403 OFFCURVE",
"36 248 CURVE SMOOTH",
"36 106 OFFCURVE",
"124 14 OFFCURVE",
"254 14 CURVE SMOOTH",
"337 14 OFFCURVE",
"399 51 OFFCURVE",
"428 110 CURVE",
"412 126 LINE",
"406 43 LINE SMOOTH",
"400 -42 OFFCURVE",
"355 -77 OFFCURVE",
"280 -77 CURVE SMOOTH",
"214 -77 OFFCURVE",
"154 -64 OFFCURVE",
"92 -31 CURVE"
);
},
{
closed = 1;
nodes = (
"234 133 OFFCURVE",
"192 178 OFFCURVE",
"192 255 CURVE SMOOTH",
"192 346 OFFCURVE",
"238 401 OFFCURVE",
"311 401 CURVE SMOOTH",
"383 401 OFFCURVE",
"425 359 OFFCURVE",
"425 275 CURVE SMOOTH",
"425 189 OFFCURVE",
"379 133 OFFCURVE",
"306 133 CURVE SMOOTH"
);
}
);
width = 637;
},
{
anchors = (
{
name = bottom;
position = "{279, 0}";
},
{
name = top;
position = "{319, 506}";
}
);
layerId = "EADB5E4A-85D8-40DB-A3FC-C2FF30FE6B12";
paths = (
{
closed = 1;
nodes = (
"74 -137 LINE",
"131 -175 OFFCURVE",
"194 -193 OFFCURVE",
"269 -193 CURVE SMOOTH",
"404 -193 OFFCURVE",
"477 -120 OFFCURVE",
"489 26 CURVE SMOOTH",
"526 501 LINE",
"473 501 LINE",
"465 393 LINE",
"477 373 LINE",
"458 462 OFFCURVE",
"386 513 OFFCURVE",
"288 513 CURVE SMOOTH",
"146 513 OFFCURVE",
"53 407 OFFCURVE",
"53 247 CURVE SMOOTH",
"53 106 OFFCURVE",
"138 15 OFFCURVE",
"271 15 CURVE SMOOTH",
"356 15 OFFCURVE",
"435 64 OFFCURVE",
"458 149 CURVE",
"446 139 LINE",
"437 25 LINE SMOOTH",
"429 -85 OFFCURVE",
"374 -145 OFFCURVE",
"269 -145 CURVE SMOOTH",
"199 -145 OFFCURVE",
"153 -131 OFFCURVE",
"90 -89 CURVE"
);
},
{
closed = 1;
nodes = (
"168 64 OFFCURVE",
"109 128 OFFCURVE",
"109 244 CURVE SMOOTH",
"109 381 OFFCURVE",
"176 465 OFFCURVE",
"288 465 CURVE SMOOTH",
"394 465 OFFCURVE",
"456 399 OFFCURVE",
"456 284 CURVE SMOOTH",
"456 147 OFFCURVE",
"388 64 OFFCURVE",
"277 64 CURVE SMOOTH"
);
}
);
width = 592;
}
);
leftKerningGroup = o;
leftMetricsKey = o;
rightKerningGroup = u;
unicode = 0067;
userData = {
anchors = (
);
b = {
};
com.typemytype.robofont.layerData = {
b = {
anchors = (
);
components = (
);
contours = (
);
lib = {
};
name = g;
unicodes = (
);
width = 1167;
};
};
components = (
);
contours = (
);
lib = {
};
name = g;
unicodes = (
);
width = 1207;
};
},
{
color = 3;
glyphname = h;
lastChange = "2016-09-21 13:15:46 +0000";
layers = (
{
anchors = (
{
name = bottom;
position = "{289, 0}";
},
{
name = center;
position = "{310, 256}";
},
{
name = top;
position = "{178, 728}";
}
);
layerId = "E3EC4F6D-0AFB-4C34-B4C6-20524166427F";
paths = (
{
closed = 1;
nodes = (
"197.009 0 LINE",
"220 284 LINE SMOOTH",
"225 353 OFFCURVE",
"261 398 OFFCURVE",
"327 398 CURVE SMOOTH",
"384 398 OFFCURVE",
"411 361 OFFCURVE",
"405 295 CURVE SMOOTH",
"381 0 LINE",
"538 0 LINE",
"562 302 LINE SMOOTH",
"573 444 OFFCURVE",
"515 520 OFFCURVE",
"392 520 CURVE SMOOTH",
"310 520 OFFCURVE",
"244 482 OFFCURVE",
"213 423 CURVE",
"227 393 LINE",
"254 728 LINE",
"97 728 LINE",
"40 0 LINE"
);
}
);
width = 615;
},
{
anchors = (
{
name = bottom;
position = "{269, 0}";
},
{
name = center;
position = "{288, 253}";
},
{
name = top;
position = "{149, 728}";
}
);
layerId = "EADB5E4A-85D8-40DB-A3FC-C2FF30FE6B12";
paths = (
{
closed = 1;
nodes = (
"119 0 LINE",
"142 290 LINE SMOOTH",
"150 399 OFFCURVE",
"215 465 OFFCURVE",
"321 465 CURVE SMOOTH",
"411 465 OFFCURVE",
"452 417 OFFCURVE",
"444 314 CURVE SMOOTH",
"419 0 LINE",
"472 0 LINE",
"497 318 LINE SMOOTH",
"507 447 OFFCURVE",
"445 513 OFFCURVE",
"324 513 CURVE SMOOTH",
"236 513 OFFCURVE",
"163 467 OFFCURVE",
"136 384 CURVE",
"150 400 LINE",
"177 728 LINE",
"124 728 LINE",
"65 0 LINE"
);
}
);
width = 575;
}
);
leftKerningGroup = h;
rightKerningGroup = n;
rightMetricsKey = n;
unicode = 0068;
userData = {
anchors = (
);
b = {
};
com.typemytype.robofont.layerData = {
b = {
anchors = (
);
components = (
);
contours = (
);
lib = {
};
name = h;
unicodes = (
);
width = 1148;
};
};
components = (
);
contours = {
};
lib = {
};
name = h;
points = {
};
segmentType = curve;
unicodes = (
);
width = 1195;
x = 137;
y = 113;
};
},
{
color = 3;
glyphname = hbar;
lastChange = "2016-09-21 13:15:46 +0000";
layers = (
{
layerId = "E3EC4F6D-0AFB-4C34-B4C6-20524166427F";
paths = (
{
closed = 1;
nodes = (
"197.009 0 LINE",
"220 284 LINE SMOOTH",
"225 353 OFFCURVE",
"261 398 OFFCURVE",
"327 398 CURVE SMOOTH",
"384 398 OFFCURVE",
"411 361 OFFCURVE",
"405 295 CURVE SMOOTH",
"381 0 LINE",
"538 0 LINE",
"562 302 LINE SMOOTH",
"573 444 OFFCURVE",
"515 520 OFFCURVE",
"392 520 CURVE SMOOTH",
"310 520 OFFCURVE",
"244 482 OFFCURVE",
"213 423 CURVE",
"227 393 LINE",
"254.009 728 LINE",
"97 728 LINE",
"40 0 LINE"
);
},
{
closed = 1;
nodes = (
"432 550 LINE",
"440 659 LINE",
"4 659 LINE",
"-4 550 LINE"
);
}
);
width = 615;
},
{
layerId = "EADB5E4A-85D8-40DB-A3FC-C2FF30FE6B12";
paths = (
{
closed = 1;
nodes = (
"119 0 LINE",
"142 290 LINE SMOOTH",
"150 399 OFFCURVE",
"215 465 OFFCURVE",
"321 465 CURVE SMOOTH",
"411 465 OFFCURVE",
"452 417 OFFCURVE",
"444 314 CURVE SMOOTH",
"419 0 LINE",
"472 0 LINE",
"497 318 LINE SMOOTH",
"507 447 OFFCURVE",
"445 513 OFFCURVE",
"324 513 CURVE SMOOTH",
"236 513 OFFCURVE",
"163 467 OFFCURVE",
"136 384 CURVE",
"150 400 LINE",
"176 728 LINE",
"122 728 LINE",
"65 0 LINE"
);
},
{
closed = 1;
nodes = (
"366 583 LINE",
"370 627 LINE",
"17 627 LINE",
"12 583 LINE"
);
}
);
width = 575;
}
);
leftKerningGroup = h;
widthMetricsKey = n;
rightKerningGroup = n;
rightMetricsKey = n;
unicode = 0127;
},
{
color = 3;
glyphname = idotless;
lastChange = "2016-09-21 13:15:46 +0000";
layers = (
{
anchors = (
{
name = bottom;
position = "{119, 0}";
},
{
name = ogonek;
position = "{173, 10}";
},
{
name = top;
position = "{159, 511}";
}
);
layerId = "E3EC4F6D-0AFB-4C34-B4C6-20524166427F";
paths = (
{
closed = 1;
nodes = (
"197.009 0 LINE",
"238 507 LINE",
"81 507 LINE",
"40 0 LINE"
);
}
);
width = 277;
},
{
anchors = (
{
name = bottom;
position = "{92, 0}";
},
{
name = ogonek;
position = "{117, 10}";
},
{
name = top;
position = "{132, 506}";
}
);
layerId = "EADB5E4A-85D8-40DB-A3FC-C2FF30FE6B12";
paths = (
{
closed = 1;
nodes = (
"119 0 LINE",
"157 501 LINE",
"104 501 LINE",
"65 0 LINE"
);
}
);
width = 223;
}
);
leftKerningGroup = n;
rightKerningGroup = u;
unicode = 0131;
},
{
color = 3;
glyphname = iogonek;
lastChange = "2016-09-21 13:15:46 +0000";
layers = (
{
layerId = "E3EC4F6D-0AFB-4C34-B4C6-20524166427F";
paths = (
{
closed = 1;
nodes = (
"157 -204 OFFCURVE",
"190 -196 OFFCURVE",
"221 -183 CURVE",
"210 -109 LINE",
"187 -118 OFFCURVE",
"168 -122 OFFCURVE",
"151 -122 CURVE SMOOTH",
"118 -122 OFFCURVE",
"96 -103 OFFCURVE",
"96 -70 CURVE SMOOTH",
"96 -31 OFFCURVE",
"124 0 OFFCURVE",
"187 0 CURVE SMOOTH",
"197.009 0 LINE",
"238 507 LINE",
"81 507 LINE",
"40 0 LINE",
"86 0 LINE",
"102 38 LINE",
"33 12 OFFCURVE",
"-6 -27 OFFCURVE",
"-6 -92 CURVE SMOOTH",
"-6 -158 OFFCURVE",
"43 -204 OFFCURVE",
"124 -204 CURVE SMOOTH"
);
},
{
closed = 1;
nodes = (
"83 604 LINE",
"250 604 LINE",
"261 751 LINE",
"94 751 LINE"
);
}
);
width = 277;
},
{
layerId = "EADB5E4A-85D8-40DB-A3FC-C2FF30FE6B12";
paths = (
{
closed = 1;
nodes = (
"103 -197 OFFCURVE",
"135 -186 OFFCURVE",
"154 -174 CURVE",
"141 -133 LINE",
"118 -148 OFFCURVE",
"94 -154 OFFCURVE",
"78 -154 CURVE SMOOTH",
"36 -154 OFFCURVE",
"12 -132 OFFCURVE",
"12 -87 CURVE SMOOTH",
"12 -42 OFFCURVE",
"39 0 OFFCURVE",
"115 0 CURVE SMOOTH",
"119 0 LINE",
"157 501 LINE",
"104 501 LINE",
"65 0 LINE",
"83 0 LINE",
"107 42 LINE",
"10 31 OFFCURVE",
"-38 -25 OFFCURVE",
"-38 -95 CURVE SMOOTH",
"-38 -157 OFFCURVE",
"4 -197 OFFCURVE",
"71 -197 CURVE SMOOTH"
);
},
{
closed = 1;
nodes = (
"104 636 LINE",
"179 636 LINE",
"185 709 LINE",
"111 709 LINE"
);
}
);
width = 223;
}
);
leftKerningGroup = h;
rightKerningGroup = l;
unicode = 012F;
},
{
color = 3;
glyphname = jdotless;
lastChange = "2016-09-21 13:15:46 +0000";
layers = (
{
anchors = (
{
name = bottom;
position = "{118, 0}";
},
{
name = top;
position = "{158, 511}";
}
);
layerId = "E3EC4F6D-0AFB-4C34-B4C6-20524166427F";
paths = (
{
closed = 1;
nodes = (
"-100 -181 LINE",
"-74 -191 OFFCURVE",
"-44 -194 OFFCURVE",
"-13 -194 CURVE SMOOTH",
"115 -194 OFFCURVE",
"188 -117 OFFCURVE",
"198 11 CURVE SMOOTH",
"238 507 LINE",
"81 507 LINE",
"41 15 LINE SMOOTH",
"37 -44 OFFCURVE",
"0 -66 OFFCURVE",
"-42 -66 CURVE SMOOTH",
"-58 -66 OFFCURVE",
"-71 -64 OFFCURVE",
"-91 -59 CURVE"
);
}
);
width = 277;
},
{
anchors = (
{
name = bottom;
position = "{93, 0}";
},
{
name = top;
position = "{133, 506}";
}
);
layerId = "EADB5E4A-85D8-40DB-A3FC-C2FF30FE6B12";
paths = (
{
closed = 1;
nodes = (
"-85 -181 LINE",
"-65 -186 OFFCURVE",
"-45 -189 OFFCURVE",
"-27 -189 CURVE SMOOTH",
"49 -189 OFFCURVE",
"106 -145 OFFCURVE",
"115 -45 CURVE SMOOTH",
"158 501 LINE",
"105 501 LINE",
"63 -32 LINE SMOOTH",
"56 -120 OFFCURVE",
"15 -140 OFFCURVE",
"-33 -140 CURVE SMOOTH",
"-48 -140 OFFCURVE",
"-61 -138 OFFCURVE",
"-81 -132 CURVE"
);
}
);
width = 223;
}
);
leftKerningGroup = n;
widthMetricsKey = idotless;
rightKerningGroup = l;
unicode = 0237;
},
{
color = 3;
glyphname = k;
lastChange = "2016-09-21 13:15:46 +0000";
layers = (
{
anchors = (
{
name = bottom;
position = "{270, 0}";
},
{
name = top;
position = "{310, 511}";
}
);
layerId = "E3EC4F6D-0AFB-4C34-B4C6-20524166427F";
paths = (
{
closed = 1;
nodes = (
"584 0 LINE",
"355 295 LINE",
"346 224 LINE",
"612 506 LINE",
"420 506 LINE",
"191 258 LINE",
"394 0 LINE"
);
},
{
closed = 1;
nodes = (
"198 0 LINE",
"255.009 728 LINE",
"98 728 LINE",
"41 0 LINE"
);
}
);
width = 579;
},
{
anchors = (
{
name = bottom;
position = "{226, 0}";
},
{
name = top;
position = "{267, 506}";
}
);
layerId = "EADB5E4A-85D8-40DB-A3FC-C2FF30FE6B12";
paths = (
{
closed = 1;
nodes = (
"474 0 LINE",
"178 281 LINE",
"174 237 LINE",
"485 501 LINE",
"411 501 LINE",
"129 258 LINE",
"404 0 LINE"
);
},
{
closed = 1;
nodes = (
"118 0 LINE",
"177 728 LINE",
"123 728 LINE",
"65 0 LINE"
);
}
);
width = 491;
}
);
leftKerningGroup = h;
leftMetricsKey = l;
rightKerningGroup = k;
unicode = 006B;
userData = {
com.typemytype.robofont.layerData = {
b = {
anchors = (
);
components = (
);
contours = (
{
points = (
{
segmentType = line;
smooth = 0;
x = 318;
y = 536;
},
{
segmentType = line;
smooth = 1;
x = 793;
y = 27;
},
{
smooth = 0;
x = 809;
y = 9;
},
{
smooth = 0;
x = 828;
y = 1;
},
{
segmentType = curve;
smooth = 1;
x = 845;
y = 1;
},
{
smooth = 0;
x = 883;
y = 1;
},
{
smooth = 0;
x = 922;
y = 33;
},
{
segmentType = curve;
smooth = 1;
x = 922;
y = 71;
},
{
smooth = 0;
x = 922;
y = 84;
},
{
smooth = 0;
x = 918;
y = 99;
},
{
segmentType = curve;
smooth = 1;
x = 906;
y = 112;
},
{
segmentType = line;
smooth = 0;
x = 492;
y = 554;
},
{
segmentType = line;
smooth = 1;
x = 873;
y = 889;
},
{
smooth = 0;
x = 888;
y = 902;
},
{
smooth = 0;
x = 894;
y = 918;
},
{
segmentType = curve;
smooth = 1;
x = 894;
y = 933;
},
{
smooth = 0;
x = 894;
y = 968;
},
{
smooth = 0;
x = 858;
y = 1002;
},
{
segmentType = curve;
smooth = 1;
x = 821;
y = 1002;
},
{
smooth = 0;
x = 802;
y = 1002;
},
{
smooth = 0;
x = 785;
y = 994;
},
{
segmentType = curve;
smooth = 0;
x = 770;
y = 979;
},
{
segmentType = line;
smooth = 0;
x = 318;
y = 574;
}
);
}
);
lib = {
};
name = k;
unicodes = (
);
width = 984;
};
};
};
},
{
color = 3;
glyphname = kgreenlandic;
lastChange = "2016-09-21 13:15:46 +0000";
layers = (
{
anchors = (
{
name = bottom;
position = "{269, 0}";
},
{
name = top;
position = "{309, 511}";
}
);
layerId = "E3EC4F6D-0AFB-4C34-B4C6-20524166427F";
paths = (
{
closed = 1;
nodes = (
"197.009 0 LINE",
"238 507 LINE",
"81 507 LINE",
"40 0 LINE"
);
},
{
closed = 1;
nodes = (
"583 0 LINE",
"354 295 LINE",
"345 224 LINE",
"611 506 LINE",
"419 506 LINE",
"190 258 LINE",
"393 0 LINE"
);
}
);
width = 578;
},
{
anchors = (
{
name = bottom;
position = "{226, 0}";
},
{
name = top;
position = "{267, 506}";
}
);
layerId = "EADB5E4A-85D8-40DB-A3FC-C2FF30FE6B12";
paths = (
{
closed = 1;
nodes = (
"119 0 LINE",
"157 501 LINE",
"104 501 LINE",
"65 0 LINE"
);
},
{
closed = 1;
nodes = (
"474 0 LINE",
"178 281 LINE",
"174 237 LINE",
"485 501 LINE",
"411 501 LINE",
"129 258 LINE",
"404 0 LINE"
);
}
);
width = 491;
}
);
leftKerningGroup = n;
rightKerningGroup = k;
rightMetricsKey = k;
unicode = 0138;
userData = {
com.typemytype.robofont.layerData = {
b = {
anchors = (
);
components = (
);
contours = (
);
lib = {
};
name = kgreenlandic;
unicodes = (
);
width = 1047;
};
};
};
},
{
color = 3;
glyphname = l;
lastChange = "2016-09-21 13:15:46 +0000";
layers = (
{
anchors = (
{
name = bottom;
position = "{119, 0}";
},
{
name = center;
position = "{139, 256}";
},
{
name = top;
position = "{176, 728}";
},
{
name = topright;
position = "{281, 728}";
}
);
layerId = "E3EC4F6D-0AFB-4C34-B4C6-20524166427F";
paths = (
{
closed = 1;
nodes = (
"197.009 0 LINE",
"255.009 728 LINE",
"98 728 LINE",
"40 0 LINE"
);
}
);
width = 277;
},
{
anchors = (
{
name = bottom;
position = "{92, 0}";
},
{
name = center;
position = "{112, 253}";
},
{
name = top;
position = "{149, 728}";
},
{
name = topright;
position = "{217, 728}";
}
);
layerId = "EADB5E4A-85D8-40DB-A3FC-C2FF30FE6B12";
paths = (
{
closed = 1;
nodes = (
"119 0 LINE",
"177 728 LINE",
"123 728 LINE",
"65 0 LINE"
);
}
);
width = 223;
}
);
leftKerningGroup = h;
rightKerningGroup = l;
unicode = 006C;
userData = {
com.typemytype.robofont.layerData = {
b = {
anchors = (
);
components = (
);
contours = (
);
lib = {
};
name = l;
unicodes = (
);
width = 511;
};
};
};
},
{
color = 3;
glyphname = lcaron;
lastChange = "2016-09-21 13:15:46 +0000";
layers = (
{
components = (
{
name = l;
}
);
layerId = "E3EC4F6D-0AFB-4C34-B4C6-20524166427F";
paths = (
{
closed = 1;
nodes = (
"362 728 LINE",
"281 728 LINE",
"266 528 LINE",
"319 528 LINE"
);
}
);
width = 277;
},
{
components = (
{
name = l;
}
);
layerId = "EADB5E4A-85D8-40DB-A3FC-C2FF30FE6B12";
paths = (
{
closed = 1;
nodes = (
"276 728 LINE",
"216 728 LINE",
"202 533 LINE",
"235 533 LINE"
);
}
);
width = 223;
}
);
leftKerningGroup = h;
leftMetricsKey = l;
widthMetricsKey = l;
rightKerningGroup = lcaron;
unicode = 013E;
},
{
color = 3;
glyphname = lslash;
lastChange = "2016-09-21 13:15:46 +0000";
layers = (
{
layerId = "E3EC4F6D-0AFB-4C34-B4C6-20524166427F";
paths = (
{
closed = 1;
nodes = (
"394 411 LINE",
"344 517 LINE",
"-12 320 LINE",
"38 215 LINE"
);
},
{
closed = 1;
nodes = (
"241 0 LINE",
"299 728 LINE",
"142 728 LINE",
"84 0 LINE"
);
}
);
width = 364;
},
{
layerId = "EADB5E4A-85D8-40DB-A3FC-C2FF30FE6B12";
paths = (
{
closed = 1;
nodes = (
"279 419 LINE",
"257 460 LINE",
"1 318 LINE",
"23 278 LINE"
);
},
{
closed = 1;
nodes = (
"137 0 LINE",
"193.99 728 LINE",
"142 728 LINE",
"85.01 0 LINE"
);
}
);
width = 261;
}
);
leftKerningGroup = l;
rightKerningGroup = l;
unicode = 0142;
},
{
color = 3;
glyphname = m;
lastChange = "2016-09-21 13:15:46 +0000";
layers = (
{
anchors = (
{
name = bottom;
position = "{439, 0}";
},
{
name = top;
position = "{479, 511}";
}
);
layerId = "E3EC4F6D-0AFB-4C34-B4C6-20524166427F";
paths = (
{
closed = 1;
nodes = (
"197.009 0 LINE",
"219 276 LINE SMOOTH",
"225 360 OFFCURVE",
"259 398 OFFCURVE",
"317 398 CURVE SMOOTH",
"368 398 OFFCURVE",
"389 364 OFFCURVE",
"384 297 CURVE SMOOTH",
"360 0 LINE",
"518 0 LINE",
"539 276 LINE SMOOTH",
"546 360 OFFCURVE",
"580 398 OFFCURVE",
"638 398 CURVE SMOOTH",
"688 398 OFFCURVE",
"710 364 OFFCURVE",
"704 299 CURVE SMOOTH",
"681 0 LINE",
"838 0 LINE",
"862 303 LINE SMOOTH",
"872 444 OFFCURVE",
"815 520 OFFCURVE",
"699 520 CURVE SMOOTH",
"623 520 OFFCURVE",
"558 485 OFFCURVE",
"517 419 CURVE",
"541 378 LINE",
"532 468 OFFCURVE",
"474 520 OFFCURVE",
"382 520 CURVE SMOOTH",
"306 520 OFFCURVE",
"251 489 OFFCURVE",
"210 425 CURVE",
"223 409 LINE",
"220 507 LINE",
"72 507 LINE",
"74 459 OFFCURVE",
"73 410 OFFCURVE",
"69 362 CURVE SMOOTH",
"40 0 LINE"
);
}
);
width = 915;
},
{
anchors = (
{
name = bottom;
position = "{415, 0}";
},
{
name = top;
position = "{456, 506}";
}
);
layerId = "EADB5E4A-85D8-40DB-A3FC-C2FF30FE6B12";
paths = (
{
closed = 1;
nodes = (
"119 0 LINE",
"142 290 LINE SMOOTH",
"150 401 OFFCURVE",
"209 465 OFFCURVE",
"304 465 CURVE SMOOTH",
"386 465 OFFCURVE",
"421 418 OFFCURVE",
"413 314 CURVE SMOOTH",
"388 0 LINE",
"441 0 LINE",
"464 290 LINE SMOOTH",
"472 401 OFFCURVE",
"531 465 OFFCURVE",
"626 465 CURVE SMOOTH",
"709 465 OFFCURVE",
"744 418 OFFCURVE",
"735 314 CURVE SMOOTH",
"711 0 LINE",
"763 0 LINE",
"788 318 LINE SMOOTH",
"799 446 OFFCURVE",
"745 513 OFFCURVE",
"632 513 CURVE SMOOTH",
"538 513 OFFCURVE",
"467 461 OFFCURVE",
"444 374 CURVE",
"469 366 LINE",
"463 464 OFFCURVE",
"409 513 OFFCURVE",
"310 513 CURVE SMOOTH",
"223 513 OFFCURVE",
"163 469 OFFCURVE",
"136 384 CURVE",
"148 395 LINE",
"147 501 LINE",
"97 501 LINE",
"99 455 OFFCURVE",
"97 406 OFFCURVE",
"94 362 CURVE SMOOTH",
"65 0 LINE"
);
}
);
width = 866;
}
);
leftKerningGroup = n;
rightKerningGroup = n;
rightMetricsKey = n;
unicode = 006D;
userData = {
anchors = (
);
b = {
};
com.typemytype.robofont.layerData = {
b = {
anchors = (
);
components = (
);
contours = (
);
lib = {
};
name = m;
unicodes = (
);
width = 1838;
};
};
components = (
);
contours = (
);
lib = {
};
name = m;
unicodes = (
);
width = 1877;
};
},
{
color = 3;
glyphname = n;
lastChange = "2016-09-21 13:15:46 +0000";
layers = (
{
anchors = (
{
name = bottom;
position = "{289, 0}";
},
{
name = top;
position = "{330, 511}";
}
);
layerId = "E3EC4F6D-0AFB-4C34-B4C6-20524166427F";
paths = (
{
closed = 1;
nodes = (
"197.009 0 LINE",
"220 284 LINE SMOOTH",
"225 353 OFFCURVE",
"261 398 OFFCURVE",
"327 398 CURVE SMOOTH",
"384 398 OFFCURVE",
"411 361 OFFCURVE",
"405 295 CURVE SMOOTH",
"381 0 LINE",
"538 0 LINE",
"562 302 LINE SMOOTH",
"573 444 OFFCURVE",
"515 520 OFFCURVE",
"392 520 CURVE SMOOTH",
"310 520 OFFCURVE",
"244 482 OFFCURVE",
"213 423 CURVE",
"223 409 LINE",
"220 507 LINE",
"72 507 LINE",
"74 459 OFFCURVE",
"73 410 OFFCURVE",
"69 362 CURVE SMOOTH",
"40 0 LINE"
);
}
);
width = 615;
},
{
anchors = (
{
name = bottom;
position = "{269, 0}";
},
{
name = top;
position = "{309, 506}";
}
);
layerId = "EADB5E4A-85D8-40DB-A3FC-C2FF30FE6B12";
paths = (
{
closed = 1;
nodes = (
"119 0 LINE",
"142 290 LINE SMOOTH",
"150 399 OFFCURVE",
"215 465 OFFCURVE",
"321 465 CURVE SMOOTH",
"411 465 OFFCURVE",
"452 417 OFFCURVE",
"444 314 CURVE SMOOTH",
"419 0 LINE",
"472 0 LINE",
"497 318 LINE SMOOTH",
"507 447 OFFCURVE",
"445 513 OFFCURVE",
"324 513 CURVE SMOOTH",
"236 513 OFFCURVE",
"163 467 OFFCURVE",
"136 384 CURVE",
"148 395 LINE",
"147 501 LINE",
"97 501 LINE",
"99 455 OFFCURVE",
"98 408 OFFCURVE",
"94 362 CURVE SMOOTH",
"65 0 LINE"
);
}
);
width = 575;
}
);
leftKerningGroup = n;
rightKerningGroup = n;
unicode = 006E;
userData = {
anchors = (
);
b = {
};
com.typemytype.robofont.layerData = {
b = {
anchors = (
);
components = (
);
contours = (
);
lib = {
};
name = n;
unicodes = (
);
width = 1152;
};
};
components = (
);
contours = {
};
lib = {
};
name = n;
points = {
};
segmentType = curve;
unicodes = (
);
width = 1195;
x = 137;
y = 113;
};
},
{
color = 3;
glyphname = eng;
lastChange = "2016-09-21 13:15:46 +0000";
layers = (
{
layerId = "E3EC4F6D-0AFB-4C34-B4C6-20524166427F";
paths = (
{
closed = 1;
nodes = (
"457 -194 OFFCURVE",
"529 -117 OFFCURVE",
"539 11 CURVE SMOOTH",
"562 302 LINE SMOOTH",
"573 444 OFFCURVE",
"515 520 OFFCURVE",
"392 520 CURVE SMOOTH",
"310 520 OFFCURVE",
"244 482 OFFCURVE",
"213 423 CURVE",
"223 409 LINE",
"220 507 LINE",
"72 507 LINE",
"74 459 OFFCURVE",
"73 410 OFFCURVE",
"69 362 CURVE SMOOTH",
"40 0 LINE",
"197.009 0 LINE",
"220 284 LINE SMOOTH",
"225 353 OFFCURVE",
"261 398 OFFCURVE",
"327 398 CURVE SMOOTH",
"384 398 OFFCURVE",
"411 361 OFFCURVE",
"405 295 CURVE SMOOTH",
"383 15 LINE SMOOTH",
"379 -44 OFFCURVE",
"341 -66 OFFCURVE",
"300 -66 CURVE SMOOTH",
"284 -66 OFFCURVE",
"271 -64 OFFCURVE",
"251 -59 CURVE",
"241 -181 LINE",
"268 -191 OFFCURVE",
"296 -194 OFFCURVE",
"328 -194 CURVE SMOOTH"
);
}
);
width = 615;
},
{
layerId = "EADB5E4A-85D8-40DB-A3FC-C2FF30FE6B12";
paths = (
{
closed = 1;
nodes = (
"402 -189 OFFCURVE",
"462 -145 OFFCURVE",
"469 -45 CURVE SMOOTH",
"497 318 LINE SMOOTH",
"507 447 OFFCURVE",
"445 513 OFFCURVE",
"324 513 CURVE SMOOTH",
"236 513 OFFCURVE",
"163 467 OFFCURVE",
"136 384 CURVE",
"148 395 LINE",
"147 501 LINE",
"97 501 LINE",
"99 455 OFFCURVE",
"98 408 OFFCURVE",
"94 362 CURVE SMOOTH",
"65 0 LINE",
"119 0 LINE",
"142 290 LINE SMOOTH",
"150 399 OFFCURVE",
"215 465 OFFCURVE",
"321 465 CURVE SMOOTH",
"411 465 OFFCURVE",
"452 417 OFFCURVE",
"444 314 CURVE SMOOTH",
"417 -32 LINE SMOOTH",
"411 -121 OFFCURVE",
"370 -140 OFFCURVE",
"320 -140 CURVE SMOOTH",
"306 -140 OFFCURVE",
"292 -138 OFFCURVE",
"273 -132 CURVE",
"270 -181 LINE",
"288 -186 OFFCURVE",
"308 -189 OFFCURVE",
"326 -189 CURVE SMOOTH"
);
}
);
width = 575;
}
);
leftKerningGroup = n;
leftMetricsKey = n;
widthMetricsKey = n;
rightKerningGroup = n;
unicode = 014B;
},
{
color = 3;
glyphname = o;
lastChange = "2016-09-21 13:15:46 +0000";
layers = (
{
anchors = (
{
name = bottom;
position = "{284, 0}";
},
{
name = center;
position = "{305, 256}";
},
{
name = ogonek;
position = "{390, 10}";
},
{
name = top;
position = "{324, 511}";
},
{
name = topright;
position = "{390, 511}";
}
);
layerId = "E3EC4F6D-0AFB-4C34-B4C6-20524166427F";
paths = (
{
closed = 1;
nodes = (
"465 -8 OFFCURVE",
"573 96 OFFCURVE",
"573 270 CURVE SMOOTH",
"573 420 OFFCURVE",
"471 520 OFFCURVE",
"307 520 CURVE SMOOTH",
"144 520 OFFCURVE",
"35 415 OFFCURVE",
"35 242 CURVE SMOOTH",
"35 91 OFFCURVE",
"137 -8 OFFCURVE",
"302 -8 CURVE SMOOTH"
);
},
{
closed = 1;
nodes = (
"227 110 OFFCURVE",
"191 152 OFFCURVE",
"191 239 CURVE SMOOTH",
"191 327 OFFCURVE",
"224 401 OFFCURVE",
"309 401 CURVE SMOOTH",
"381 401 OFFCURVE",
"417 358 OFFCURVE",
"417 274 CURVE SMOOTH",
"417 184 OFFCURVE",
"384 110 OFFCURVE",
"300 110 CURVE SMOOTH"
);
}
);
width = 607;
},
{
anchors = (
{
name = bottom;
position = "{260, 0}";
},
{
name = center;
position = "{280, 253}";
},
{
name = ogonek;
position = "{346, 10}";
},
{
name = top;
position = "{301, 506}";
},
{
name = topright;
position = "{350, 506}";
}
);
layerId = "EADB5E4A-85D8-40DB-A3FC-C2FF30FE6B12";
paths = (
{
closed = 1;
nodes = (
"412 -7 OFFCURVE",
"507 103 OFFCURVE",
"507 271 CURVE SMOOTH",
"507 418 OFFCURVE",
"421 513 OFFCURVE",
"287 513 CURVE SMOOTH",
"146 513 OFFCURVE",
"52 402 OFFCURVE",
"52 234 CURVE SMOOTH",
"52 88 OFFCURVE",
"138.01 -6.99 OFFCURVE",
"272 -7 CURVE SMOOTH"
);
},
{
closed = 1;
nodes = (
"167 41 OFFCURVE",
"108 108 OFFCURVE",
"108 231 CURVE SMOOTH",
"108 376 OFFCURVE",
"176 465 OFFCURVE",
"286 465 CURVE SMOOTH",
"389 465 OFFCURVE",
"451 395 OFFCURVE",
"451 274 CURVE SMOOTH",
"451 128 OFFCURVE",
"384 41 OFFCURVE",
"276 41 CURVE SMOOTH"
);
}
);
width = 559;
}
);
leftKerningGroup = o;
rightKerningGroup = o;
unicode = 006F;
userData = {
anchors = (
);
b = {
};
com.typemytype.robofont.guides = (
);
com.typemytype.robofont.layerData = {
b = {
anchors = (
);
components = (
);
contours = (
);
lib = {
};
name = o;
unicodes = (
);
width = 1144;
};
};
components = (
);
contours = (
);
lib = {
};
name = o;
unicodes = (
);
width = 1199;
};
},
{
color = 3;
glyphname = ohorn;
lastChange = "2016-09-21 13:15:46 +0000";
layers = (
{
anchors = (
{
name = bottom;
position = "{284, 0}";
},
{
name = top;
position = "{324, 511}";
}
);
layerId = "E3EC4F6D-0AFB-4C34-B4C6-20524166427F";
paths = (
{
closed = 1;
nodes = (
"465 -8 OFFCURVE",
"573 96 OFFCURVE",
"573 270 CURVE SMOOTH",
"573 347 OFFCURVE",
"544 419 OFFCURVE",
"488 464 CURVE",
"486 436 LINE",
"568 446 OFFCURVE",
"619 510 OFFCURVE",
"625 597 CURVE SMOOTH",
"628 636 LINE",
"494 636 LINE",
"493 616 LINE SMOOTH",
"486 528 OFFCURVE",
"447 511 OFFCURVE",
"408 511 CURVE SMOOTH",
"387 511 OFFCURVE",
"339 520 OFFCURVE",
"307 520 CURVE SMOOTH",
"144 520 OFFCURVE",
"35 415 OFFCURVE",
"35 242 CURVE SMOOTH",
"35 91 OFFCURVE",
"137 -8 OFFCURVE",
"302 -8 CURVE SMOOTH"
);
},
{
closed = 1;
nodes = (
"227 110 OFFCURVE",
"191 152 OFFCURVE",
"191 239 CURVE SMOOTH",
"191 327 OFFCURVE",
"224 401 OFFCURVE",
"309 401 CURVE SMOOTH",
"381 401 OFFCURVE",
"417 358 OFFCURVE",
"417 274 CURVE SMOOTH",
"417 184 OFFCURVE",
"384 110 OFFCURVE",
"300 110 CURVE SMOOTH"
);
}
);
width = 607;
},
{
anchors = (
{
name = bottom;
position = "{260, 0}";
},
{
name = top;
position = "{301, 506}";
}
);
layerId = "EADB5E4A-85D8-40DB-A3FC-C2FF30FE6B12";
paths = (
{
closed = 1;
nodes = (
"412 -7 OFFCURVE",
"507 103 OFFCURVE",
"507 271 CURVE SMOOTH",
"507 361 OFFCURVE",
"471 448 OFFCURVE",
"394 488 CURVE",
"367 464 LINE",
"469 466 OFFCURVE",
"522 522 OFFCURVE",
"529 614 CURVE SMOOTH",
"530 636 LINE",
"481 636 LINE",
"480 623 LINE SMOOTH",
"474 541 OFFCURVE",
"442 507 OFFCURVE",
"370 507 CURVE SMOOTH",
"353 507 OFFCURVE",
"328 513 OFFCURVE",
"288 513 CURVE SMOOTH",
"146 513 OFFCURVE",
"52 402 OFFCURVE",
"52 234 CURVE SMOOTH",
"52 88 OFFCURVE",
"138.01 -6.99 OFFCURVE",
"272 -7 CURVE SMOOTH"
);
},
{
closed = 1;
nodes = (
"167 41 OFFCURVE",
"108 108 OFFCURVE",
"108 231 CURVE SMOOTH",
"108 376 OFFCURVE",
"176 465 OFFCURVE",
"286 465 CURVE SMOOTH",
"389 465 OFFCURVE",
"451 395 OFFCURVE",
"451 274 CURVE SMOOTH",
"451 128 OFFCURVE",
"384 41 OFFCURVE",
"276 41 CURVE SMOOTH"
);
}
);
width = 559;
}
);
leftKerningGroup = o;
leftMetricsKey = o;
widthMetricsKey = o;
rightKerningGroup = o;
unicode = 01A1;
},
{
color = 3;
glyphname = oogonek;
lastChange = "2016-09-21 13:15:46 +0000";
layers = (
{
anchors = (
{
name = top;
position = "{324, 511}";
}
);
layerId = "E3EC4F6D-0AFB-4C34-B4C6-20524166427F";
paths = (
{
closed = 1;
nodes = (
"373 -204 OFFCURVE",
"405 -196 OFFCURVE",
"437 -183 CURVE",
"426 -109 LINE",
"403 -118 OFFCURVE",
"384 -122 OFFCURVE",
"367 -122 CURVE SMOOTH",
"333 -122 OFFCURVE",
"311 -103 OFFCURVE",
"311 -70 CURVE SMOOTH",
"311 -32 OFFCURVE",
"338 -10 OFFCURVE",
"383 2 CURVE SMOOTH",
"492 32 OFFCURVE",
"573 109 OFFCURVE",
"573 270 CURVE SMOOTH",
"573 420 OFFCURVE",
"470 520 OFFCURVE",
"307 520 CURVE SMOOTH",
"144 520 OFFCURVE",
"35 415 OFFCURVE",
"35 242 CURVE SMOOTH",
"35 91 OFFCURVE",
"137 -8 OFFCURVE",
"302 -8 CURVE",
"280 14 LINE",
"237 -10 OFFCURVE",
"209 -41 OFFCURVE",
"209 -94 CURVE SMOOTH",
"209 -158 OFFCURVE",
"259 -204 OFFCURVE",
"340 -204 CURVE SMOOTH"
);
},
{
closed = 1;
nodes = (
"227 110 OFFCURVE",
"191 152 OFFCURVE",
"191 239 CURVE SMOOTH",
"191 327 OFFCURVE",
"224 401 OFFCURVE",
"309 401 CURVE SMOOTH",
"381 401 OFFCURVE",
"417 358 OFFCURVE",
"417 274 CURVE SMOOTH",
"417 184 OFFCURVE",
"384 110 OFFCURVE",
"300 110 CURVE SMOOTH"
);
}
);
width = 607;
},
{
anchors = (
{
name = top;
position = "{301, 506}";
}
);
layerId = "EADB5E4A-85D8-40DB-A3FC-C2FF30FE6B12";
paths = (
{
closed = 1;
nodes = (
"334 -197 OFFCURVE",
"366 -186 OFFCURVE",
"383 -174 CURVE",
"370 -133 LINE",
"347 -148 OFFCURVE",
"323 -154 OFFCURVE",
"307 -154 CURVE SMOOTH",
"267 -154 OFFCURVE",
"243 -132 OFFCURVE",
"243 -89 CURVE SMOOTH",
"243 -43 OFFCURVE",
"273 -18 OFFCURVE",
"343 4 CURVE SMOOTH",
"429 31 OFFCURVE",
"507 114 OFFCURVE",
"507 271 CURVE SMOOTH",
"507 418 OFFCURVE",
"421 513 OFFCURVE",
"287 513 CURVE SMOOTH",
"146 513 OFFCURVE",
"52 402 OFFCURVE",
"52 234 CURVE SMOOTH",
"52 88 OFFCURVE",
"138 -5 OFFCURVE",
"263 -7 CURVE",
"264 13 LINE",
"221 -7 OFFCURVE",
"192 -43 OFFCURVE",
"192 -98 CURVE SMOOTH",
"192 -157 OFFCURVE",
"234 -197 OFFCURVE",
"302 -197 CURVE SMOOTH"
);
},
{
closed = 1;
nodes = (
"167 41 OFFCURVE",
"108 108 OFFCURVE",
"108 231 CURVE SMOOTH",
"108 376 OFFCURVE",
"176 465 OFFCURVE",
"286 465 CURVE SMOOTH",
"389 465 OFFCURVE",
"451 395 OFFCURVE",
"451 274 CURVE SMOOTH",
"451 128 OFFCURVE",
"384 41 OFFCURVE",
"276 41 CURVE SMOOTH"
);
}
);
width = 559;
}
);
leftKerningGroup = o;
leftMetricsKey = o;
rightKerningGroup = o;
rightMetricsKey = o;
unicode = 01EB;
},
{
color = 3;
glyphname = oslash;
lastChange = "2016-09-21 13:15:46 +0000";
layers = (
{
anchors = (
{
name = top;
position = "{324, 511}";
}
);
layerId = "E3EC4F6D-0AFB-4C34-B4C6-20524166427F";
paths = (
{
closed = 1;
nodes = (
"537 533 LINE",
"467 576 LINE",
"71 -22 LINE",
"142 -65 LINE"
);
},
{
closed = 1;
nodes = (
"465 -8 OFFCURVE",
"573 96 OFFCURVE",
"573 270 CURVE SMOOTH",
"573 420 OFFCURVE",
"471 520 OFFCURVE",
"307 520 CURVE SMOOTH",
"144 520 OFFCURVE",
"35 415 OFFCURVE",
"35 242 CURVE SMOOTH",
"35 91 OFFCURVE",
"137 -8 OFFCURVE",
"302 -8 CURVE SMOOTH"
);
},
{
closed = 1;
nodes = (
"224 109 OFFCURVE",
"188 151 OFFCURVE",
"188 239 CURVE SMOOTH",
"188 328 OFFCURVE",
"221 402 OFFCURVE",
"309 402 CURVE SMOOTH",
"385 402 OFFCURVE",
"421 359 OFFCURVE",
"421 274 CURVE SMOOTH",
"421 183 OFFCURVE",
"388 109 OFFCURVE",
"300 109 CURVE SMOOTH"
);
}
);
width = 607;
},
{
anchors = (
{
name = top;
position = "{301, 506}";
}
);
layerId = "EADB5E4A-85D8-40DB-A3FC-C2FF30FE6B12";
paths = (
{
closed = 1;
nodes = (
"484 523 LINE",
"446 545 LINE",
"75 -17 LINE",
"114 -40 LINE"
);
},
{
closed = 1;
nodes = (
"412 -7 OFFCURVE",
"507 103 OFFCURVE",
"507 271 CURVE SMOOTH",
"507 418 OFFCURVE",
"421 513 OFFCURVE",
"287 513 CURVE SMOOTH",
"146 513 OFFCURVE",
"52 402 OFFCURVE",
"52 234 CURVE SMOOTH",
"52 88 OFFCURVE",
"138.01 -6.99 OFFCURVE",
"272 -7 CURVE SMOOTH"
);
},
{
closed = 1;
nodes = (
"167 41 OFFCURVE",
"108 108 OFFCURVE",
"108 231 CURVE SMOOTH",
"108 376 OFFCURVE",
"176 465 OFFCURVE",
"286 465 CURVE SMOOTH",
"389 465 OFFCURVE",
"451 395 OFFCURVE",
"451 274 CURVE SMOOTH",
"451 128 OFFCURVE",
"384 41 OFFCURVE",
"276 41 CURVE SMOOTH"
);
}
);
width = 559;
}
);
leftKerningGroup = o;
leftMetricsKey = o;
rightKerningGroup = o;
rightMetricsKey = o;
unicode = 00F8;
},
{
color = 3;
glyphname = oe;
lastChange = "2016-09-21 13:15:46 +0000";
layers = (
{
anchors = (
{
name = bottom;
position = "{472, 0}";
},
{
name = top;
position = "{512, 511}";
}
);
layerId = "E3EC4F6D-0AFB-4C34-B4C6-20524166427F";
paths = (
{
closed = 1;
nodes = (
"465 -8 OFFCURVE",
"548 106 OFFCURVE",
"548 280 CURVE SMOOTH",
"548 420 OFFCURVE",
"471 520 OFFCURVE",
"302 520 CURVE SMOOTH",
"144 520 OFFCURVE",
"35 415 OFFCURVE",
"35 242 CURVE SMOOTH",
"35 91 OFFCURVE",
"137 -8 OFFCURVE",
"293 -8 CURVE SMOOTH"
);
},
{
closed = 1;
nodes = (
"227 110 OFFCURVE",
"191 152 OFFCURVE",
"191 239 CURVE SMOOTH",
"191 327 OFFCURVE",
"224 401 OFFCURVE",
"309 401 CURVE SMOOTH",
"378 401 OFFCURVE",
"414 358 OFFCURVE",
"414 274 CURVE SMOOTH",
"414 184 OFFCURVE",
"381 110 OFFCURVE",
"300 110 CURVE SMOOTH"
);
},
{
closed = 1;
nodes = (
"753 -8 OFFCURVE",
"826 15 OFFCURVE",
"871 54 CURVE",
"837 159 LINE",
"792 126 OFFCURVE",
"745 109 OFFCURVE",
"694 109 CURVE SMOOTH",
"613 109 OFFCURVE",
"569 154 OFFCURVE",
"569 244 CURVE SMOOTH",
"569 362 OFFCURVE",
"611 411 OFFCURVE",
"682 411 CURVE SMOOTH",
"732 411 OFFCURVE",
"768 373 OFFCURVE",
"764 286 CURVE",
"804 302 LINE",
"562 302 LINE",
"555 224 LINE",
"891 224 LINE",
"913 418 OFFCURVE",
"818 520 OFFCURVE",
"680 520 CURVE SMOOTH",
"529 520 OFFCURVE",
"439 406 OFFCURVE",
"439 241 CURVE SMOOTH",
"439 100 OFFCURVE",
"526 -8 OFFCURVE",
"682 -8 CURVE SMOOTH"
);
}
);
width = 928;
},
{
anchors = (
{
name = bottom;
position = "{460, 0}";
},
{
name = top;
position = "{500, 506}";
}
);
layerId = "EADB5E4A-85D8-40DB-A3FC-C2FF30FE6B12";
paths = (
{
closed = 1;
nodes = (
"412 -7 OFFCURVE",
"499 109 OFFCURVE",
"499 252 CURVE SMOOTH",
"499 427 OFFCURVE",
"421 513 OFFCURVE",
"288 513 CURVE SMOOTH",
"146 513 OFFCURVE",
"52 402 OFFCURVE",
"52 234 CURVE SMOOTH",
"52 88 OFFCURVE",
"138.01 -6.99 OFFCURVE",
"273 -7 CURVE SMOOTH"
);
},
{
closed = 1;
nodes = (
"167 41 OFFCURVE",
"108 108 OFFCURVE",
"108 231 CURVE SMOOTH",
"108 376 OFFCURVE",
"176 465 OFFCURVE",
"286 465 CURVE SMOOTH",
"389 465 OFFCURVE",
"451 395 OFFCURVE",
"451 274 CURVE SMOOTH",
"451 128 OFFCURVE",
"384 41 OFFCURVE",
"276 41 CURVE SMOOTH"
);
},
{
closed = 1;
nodes = (
"745 -7 OFFCURVE",
"824 19 OFFCURVE",
"866 60 CURVE",
"846 102 LINE",
"795 60 OFFCURVE",
"734 41 OFFCURVE",
"683 41 CURVE SMOOTH",
"565 41 OFFCURVE",
"505 115 OFFCURVE",
"505 231 CURVE SMOOTH",
"505 377 OFFCURVE",
"572 468 OFFCURVE",
"696 468 CURVE SMOOTH",
"791 468 OFFCURVE",
"853 401 OFFCURVE",
"838 264 CURVE",
"860 288 LINE",
"489 288 LINE",
"487 244 LINE",
"887 244 LINE",
"906 427 OFFCURVE",
"823 513 OFFCURVE",
"693 513 CURVE SMOOTH",
"542 513 OFFCURVE",
"458 401 OFFCURVE",
"458 234 CURVE SMOOTH",
"458 88 OFFCURVE",
"535 -7 OFFCURVE",
"683.01 -6.99 CURVE SMOOTH"
);
}
);
width = 936;
}
);
leftKerningGroup = o;
leftMetricsKey = o;
rightKerningGroup = e;
rightMetricsKey = e;
unicode = 0153;
},
{
color = 3;
glyphname = p;
lastChange = "2016-09-21 13:15:46 +0000";
layers = (
{
anchors = (
{
name = bottom;
position = "{279, 0}";
},
{
name = top;
position = "{319, 511}";
}
);
layerId = "E3EC4F6D-0AFB-4C34-B4C6-20524166427F";
paths = (
{
closed = 1;
nodes = (
"182.009 -186 LINE",
"206 120 LINE",
"193 84 LINE",
"225 26 OFFCURVE",
"280 -8 OFFCURVE",
"357 -8 CURVE SMOOTH",
"502 -8 OFFCURVE",
"600 108 OFFCURVE",
"600 276 CURVE SMOOTH",
"600 428 OFFCURVE",
"512 520 OFFCURVE",
"384 520 CURVE SMOOTH",
"307 520 OFFCURVE",
"245 482 OFFCURVE",
"216 423 CURVE",
"223 410 LINE",
"220 507 LINE",
"72 507 LINE",
"74 459 OFFCURVE",
"73 410 OFFCURVE",
"69 362 CURVE SMOOTH",
"25 -186 LINE"
);
},
{
closed = 1;
nodes = (
"255 110 OFFCURVE",
"215 156 OFFCURVE",
"215 247 CURVE SMOOTH",
"215 340 OFFCURVE",
"259 401 OFFCURVE",
"331 401 CURVE SMOOTH",
"403 401 OFFCURVE",
"443 353 OFFCURVE",
"443 265 CURVE SMOOTH",
"443 169 OFFCURVE",
"400 110 OFFCURVE",
"325 110 CURVE SMOOTH"
);
}
);
width = 633;
},
{
anchors = (
{
name = bottom;
position = "{274, 0}";
},
{
name = top;
position = "{314, 506}";
}
);
layerId = "EADB5E4A-85D8-40DB-A3FC-C2FF30FE6B12";
paths = (
{
closed = 1;
nodes = (
"104 -186 LINE",
"130 139 LINE",
"116 132 LINE",
"134 44 OFFCURVE",
"207 -7 OFFCURVE",
"302 -7 CURVE SMOOTH",
"441 -7 OFFCURVE",
"536 103 OFFCURVE",
"536 271 CURVE SMOOTH",
"536 418 OFFCURVE",
"449 513 OFFCURVE",
"322 513 CURVE SMOOTH",
"239 513 OFFCURVE",
"160 465 OFFCURVE",
"136 384 CURVE",
"148 395 LINE",
"147 501 LINE",
"97 501 LINE",
"99 455 OFFCURVE",
"98 408 OFFCURVE",
"94 362 CURVE SMOOTH",
"52 -186 LINE"
);
},
{
closed = 1;
nodes = (
"196 41 OFFCURVE",
"137 108 OFFCURVE",
"137 231 CURVE SMOOTH",
"137 376 OFFCURVE",
"204 465 OFFCURVE",
"315 465 CURVE SMOOTH",
"418 465 OFFCURVE",
"480 395 OFFCURVE",
"480 274 CURVE SMOOTH",
"480 129 OFFCURVE",
"413 41 OFFCURVE",
"305 41 CURVE SMOOTH"
);
}
);
width = 588;
}
);
leftKerningGroup = n;
widthMetricsKey = b;
rightKerningGroup = o;
unicode = 0070;
userData = {
anchors = (
);
b = {
};
com.typemytype.robofont.layerData = {
b = {
anchors = (
);
components = (
);
contours = (
);
lib = {
};
name = p;
unicodes = (
);
width = 1181;
};
};
components = (
);
contours = (
);
lib = {
};
name = p;
unicodes = (
);
width = 1207;
};
},
{
color = 3;
glyphname = thorn;
lastChange = "2016-09-21 13:15:46 +0000";
layers = (
{
anchors = (
{
name = bottom;
position = "{298, 0}";
},
{
name = top;
position = "{338, 511}";
}
);
layerId = "E3EC4F6D-0AFB-4C34-B4C6-20524166427F";
paths = (
{
closed = 1;
nodes = (
"182.009 -186 LINE",
"206 120 LINE",
"193 84 LINE",
"225 26 OFFCURVE",
"280 -8 OFFCURVE",
"357 -8 CURVE SMOOTH",
"502 -8 OFFCURVE",
"600 108 OFFCURVE",
"600 276 CURVE SMOOTH",
"600 428 OFFCURVE",
"512 520 OFFCURVE",
"384 520 CURVE SMOOTH",
"307 520 OFFCURVE",
"245 482 OFFCURVE",
"216 423 CURVE",
"227 392 LINE",
"254 728 LINE",
"97 728 LINE",
"25 -186 LINE"
);
},
{
closed = 1;
nodes = (
"255 110 OFFCURVE",
"215 156 OFFCURVE",
"215 247 CURVE SMOOTH",
"215 340 OFFCURVE",
"259 401 OFFCURVE",
"331 401 CURVE SMOOTH",
"403 401 OFFCURVE",
"443 353 OFFCURVE",
"443 265 CURVE SMOOTH",
"443 169 OFFCURVE",
"400 110 OFFCURVE",
"325 110 CURVE SMOOTH"
);
}
);
width = 633;
},
{
anchors = (
{
name = bottom;
position = "{274, 0}";
},
{
name = top;
position = "{314, 506}";
}
);
layerId = "EADB5E4A-85D8-40DB-A3FC-C2FF30FE6B12";
paths = (
{
closed = 1;
nodes = (
"104 -186 LINE",
"130 139 LINE",
"116 132 LINE",
"134 44 OFFCURVE",
"207 -7 OFFCURVE",
"302 -7 CURVE SMOOTH",
"441 -7 OFFCURVE",
"536 103 OFFCURVE",
"536 271 CURVE SMOOTH",
"536 418 OFFCURVE",
"449 513 OFFCURVE",
"322 513 CURVE SMOOTH",
"239 513 OFFCURVE",
"160 465 OFFCURVE",
"136 384 CURVE",
"147 367 LINE",
"177 728 LINE",
"124 728 LINE",
"52 -186 LINE"
);
},
{
closed = 1;
nodes = (
"196 41 OFFCURVE",
"137 108 OFFCURVE",
"137 231 CURVE SMOOTH",
"137 376 OFFCURVE",
"204 465 OFFCURVE",
"315 465 CURVE SMOOTH",
"418 465 OFFCURVE",
"480 395 OFFCURVE",
"480 274 CURVE SMOOTH",
"480 129 OFFCURVE",
"413 41 OFFCURVE",
"305 41 CURVE SMOOTH"
);
}
);
width = 588;
}
);
leftKerningGroup = h;
rightKerningGroup = o;
rightMetricsKey = o;
unicode = 00FE;
},
{
color = 3;
glyphname = q;
lastChange = "2016-09-21 13:15:46 +0000";
layers = (
{
anchors = (
{
name = bottom;
position = "{297, 0}";
},
{
name = top;
position = "{337, 511}";
}
);
layerId = "E3EC4F6D-0AFB-4C34-B4C6-20524166427F";
paths = (
{
closed = 1;
nodes = (
"538 -186 LINE",
"582 362 LINE SMOOTH",
"586 410 OFFCURVE",
"592 459 OFFCURVE",
"602 507 CURVE",
"454 507 LINE",
"435 410 LINE",
"444 424 LINE",
"410 486 OFFCURVE",
"354 520 OFFCURVE",
"277 520 CURVE SMOOTH",
"133 520 OFFCURVE",
"35 403 OFFCURVE",
"35 236 CURVE SMOOTH",
"35 84 OFFCURVE",
"123 -8 OFFCURVE",
"251 -8 CURVE SMOOTH",
"327 -8 OFFCURVE",
"389 28 OFFCURVE",
"418 88 CURVE",
"405 120 LINE",
"381 -186 LINE"
);
},
{
closed = 1;
nodes = (
"232 110 OFFCURVE",
"191 158 OFFCURVE",
"191 245 CURVE SMOOTH",
"191 341 OFFCURVE",
"236 401 OFFCURVE",
"309 401 CURVE SMOOTH",
"379 401 OFFCURVE",
"419 355 OFFCURVE",
"419 263 CURVE SMOOTH",
"419 171 OFFCURVE",
"375 110 OFFCURVE",
"304 110 CURVE SMOOTH"
);
}
);
width = 633;
},
{
anchors = (
{
name = bottom;
position = "{273, 0}";
},
{
name = top;
position = "{313, 506}";
}
);
layerId = "EADB5E4A-85D8-40DB-A3FC-C2FF30FE6B12";
paths = (
{
closed = 1;
nodes = (
"467 -186 LINE",
"510 362 LINE SMOOTH",
"515 408 OFFCURVE",
"521 455 OFFCURVE",
"529 501 CURVE",
"479 501 LINE",
"463 395 LINE",
"472 374 LINE",
"452 462 OFFCURVE",
"381 513 OFFCURVE",
"285 513 CURVE SMOOTH",
"146 513 OFFCURVE",
"51 403 OFFCURVE",
"51 236 CURVE SMOOTH",
"51 88 OFFCURVE",
"137 -7 OFFCURVE",
"264 -7 CURVE SMOOTH",
"348 -7 OFFCURVE",
"427 41 OFFCURVE",
"450 122 CURVE",
"440 139 LINE",
"414 -186 LINE"
);
},
{
closed = 1;
nodes = (
"168 41 OFFCURVE",
"106 112 OFFCURVE",
"106 232 CURVE SMOOTH",
"106 377 OFFCURVE",
"174 465 OFFCURVE",
"284 465 CURVE SMOOTH",
"390 465 OFFCURVE",
"450 398 OFFCURVE",
"450 275 CURVE SMOOTH",
"450 130 OFFCURVE",
"383 41 OFFCURVE",
"273 41 CURVE SMOOTH"
);
}
);
width = 588;
}
);
leftKerningGroup = o;
widthMetricsKey = d;
rightKerningGroup = q;
unicode = 0071;
userData = {
anchors = (
);
b = {
};
com.typemytype.robofont.layerData = {
b = {
anchors = (
);
components = (
);
contours = (
);
lib = {
};
name = p;
unicodes = (
);
width = 1181;
};
};
components = (
);
contours = (
);
lib = {
};
name = p;
unicodes = (
);
width = 1207;
};
},
{
color = 3;
glyphname = r;
lastChange = "2016-09-21 13:15:46 +0000";
layers = (
{
anchors = (
{
name = bottom;
position = "{119, 0}";
},
{
name = top;
position = "{262, 511}";
}
);
layerId = "E3EC4F6D-0AFB-4C34-B4C6-20524166427F";
paths = (
{
closed = 1;
nodes = (
"197.009 0 LINE",
"218 263 LINE SMOOTH",
"224 344 OFFCURVE",
"270 383 OFFCURVE",
"348 383 CURVE SMOOTH",
"374 383 OFFCURVE",
"399 378 OFFCURVE",
"424 366 CURVE",
"435.009 509 LINE",
"422 515 OFFCURVE",
"401 519 OFFCURVE",
"380 519 CURVE SMOOTH",
"303 519 OFFCURVE",
"231 475 OFFCURVE",
"210 402 CURVE",
"224 373 LINE",
"220 507 LINE",
"72 507 LINE",
"74 459 OFFCURVE",
"72 410 OFFCURVE",
"69 362 CURVE SMOOTH",
"40 0 LINE"
);
}
);
width = 414;
},
{
anchors = (
{
name = bottom;
position = "{92, 0}";
},
{
name = top;
position = "{233, 506}";
}
);
layerId = "EADB5E4A-85D8-40DB-A3FC-C2FF30FE6B12";
paths = (
{
closed = 1;
nodes = (
"119 0 LINE",
"143 296 LINE SMOOTH",
"148 374 OFFCURVE",
"194 465 OFFCURVE",
"308 465 CURVE SMOOTH",
"326 465 OFFCURVE",
"338 464 OFFCURVE",
"351 461 CURVE",
"357 509 LINE",
"344 512 OFFCURVE",
"331 513 OFFCURVE",
"315 513 CURVE SMOOTH",
"237 513 OFFCURVE",
"165 469 OFFCURVE",
"137 394 CURVE",
"148 381 LINE",
"147 501 LINE",
"97 501 LINE",
"99 455 OFFCURVE",
"97 408 OFFCURVE",
"94 362 CURVE SMOOTH",
"65 0 LINE"
);
}
);
width = 343;
}
);
leftKerningGroup = n;
leftMetricsKey = n;
rightKerningGroup = r;
unicode = 0072;
userData = {
anchors = (
);
b = {
};
com.typemytype.robofont.layerData = {
b = {
anchors = (
);
components = (
);
contours = (
);
lib = {
};
name = r;
unicodes = (
);
width = 715;
};
};
components = (
);
contours = (
);
lib = {
};
name = r;
unicodes = (
);
width = 763;
};
},
{
color = 3;
glyphname = s;
lastChange = "2016-09-21 13:15:46 +0000";
layers = (
{
anchors = (
{
name = bottom;
position = "{232, 0}";
},
{
name = top;
position = "{282, 511}";
}
);
layerId = "E3EC4F6D-0AFB-4C34-B4C6-20524166427F";
paths = (
{
closed = 1;
nodes = (
"380 -8 OFFCURVE",
"466 51 OFFCURVE",
"466 153 CURVE SMOOTH",
"466 325 OFFCURVE",
"191 287 OFFCURVE",
"191 366 CURVE SMOOTH",
"191 392 OFFCURVE",
"218 408 OFFCURVE",
"271 408 CURVE SMOOTH",
"323 408 OFFCURVE",
"379 389 OFFCURVE",
"430 353 CURVE",
"479 458 LINE",
"429 496 OFFCURVE",
"350 520 OFFCURVE",
"274 520 CURVE SMOOTH",
"143 520 OFFCURVE",
"53 455 OFFCURVE",
"51 359 CURVE SMOOTH",
"46 182 OFFCURVE",
"326 222 OFFCURVE",
"326 144 CURVE SMOOTH",
"326 120 OFFCURVE",
"304 103 OFFCURVE",
"248 103 CURVE SMOOTH",
"184 103 OFFCURVE",
"117 124 OFFCURVE",
"61 162 CURVE",
"10 54 LINE",
"81 12 OFFCURVE",
"155 -8 OFFCURVE",
"245 -8 CURVE SMOOTH"
);
}
);
width = 504;
},
{
anchors = (
{
name = bottom;
position = "{225, 0}";
},
{
name = top;
position = "{276, 506}";
}
);
layerId = "EADB5E4A-85D8-40DB-A3FC-C2FF30FE6B12";
paths = (
{
closed = 1;
nodes = (
"347 -7 OFFCURVE",
"426 46 OFFCURVE",
"426 133 CURVE SMOOTH",
"426 310 OFFCURVE",
"137 242 OFFCURVE",
"137 370 CURVE SMOOTH",
"137 433 OFFCURVE",
"187 465 OFFCURVE",
"272 465 CURVE SMOOTH",
"324 465 OFFCURVE",
"372 445 OFFCURVE",
"417 403 CURVE",
"442 446 LINE",
"404 489 OFFCURVE",
"340 513 OFFCURVE",
"271 513 CURVE SMOOTH",
"156 513 OFFCURVE",
"82 458 OFFCURVE",
"82 368 CURVE SMOOTH",
"82 193 OFFCURVE",
"370 258 OFFCURVE",
"370 130 CURVE SMOOTH",
"370 70 OFFCURVE",
"320 41 OFFCURVE",
"231 41 CURVE SMOOTH",
"167 41 OFFCURVE",
"120 59 OFFCURVE",
"65 102 CURVE",
"40 60 LINE",
"86 18 OFFCURVE",
"156.01 -6.99 OFFCURVE",
"230 -7 CURVE SMOOTH"
);
}
);
width = 493;
}
);
leftKerningGroup = s;
rightKerningGroup = s;
unicode = 0073;
userData = {
anchors = (
);
b = {
};
com.typemytype.robofont.layerData = {
b = {
anchors = (
);
components = (
);
contours = (
);
lib = {
};
name = s;
unicodes = (
);
width = 1007;
};
};
components = (
);
contours = (
);
lib = {
};
name = s;
unicodes = (
);
width = 1006.7600;
};
},
{
color = 3;
glyphname = germandbls;
lastChange = "2016-09-21 13:15:46 +0000";
layers = (
{
layerId = "E3EC4F6D-0AFB-4C34-B4C6-20524166427F";
paths = (
{
closed = 1;
nodes = (
"197.009 0 LINE",
"236 482 LINE SMOOTH",
"243 579 OFFCURVE",
"288 624 OFFCURVE",
"374 624 CURVE SMOOTH",
"433 624 OFFCURVE",
"472 597 OFFCURVE",
"472 547 CURVE SMOOTH",
"472 491 OFFCURVE",
"436 451 OFFCURVE",
"324 423 CURVE",
"315 308 LINE",
"468 270 OFFCURVE",
"532 230 OFFCURVE",
"532 172 CURVE SMOOTH",
"532 130 OFFCURVE",
"502 106 OFFCURVE",
"454 106 CURVE SMOOTH",
"410 106 OFFCURVE",
"351 127 OFFCURVE",
"297 162 CURVE",
"246 54 LINE",
"301 14 OFFCURVE",
"376 -8 OFFCURVE",
"449 -8 CURVE SMOOTH",
"584 -8 OFFCURVE",
"676 70 OFFCURVE",
"676 178 CURVE SMOOTH",
"676 288 OFFCURVE",
"600 355 OFFCURVE",
"424 383 CURVE",
"421 355 LINE",
"565 398 OFFCURVE",
"619 470 OFFCURVE",
"619 562 CURVE SMOOTH",
"619 674 OFFCURVE",
"522 737 OFFCURVE",
"378 737 CURVE SMOOTH",
"189 737 OFFCURVE",
"91 639 OFFCURVE",
"76 459 CURVE SMOOTH",
"40 0 LINE"
);
}
);
width = 702;
},
{
layerId = "EADB5E4A-85D8-40DB-A3FC-C2FF30FE6B12";
paths = (
{
closed = 1;
nodes = (
"119 0 LINE",
"160 510 LINE SMOOTH",
"169 628 OFFCURVE",
"226 685 OFFCURVE",
"340 685 CURVE SMOOTH",
"419 685 OFFCURVE",
"459 650 OFFCURVE",
"459 581 CURVE SMOOTH",
"459 500 OFFCURVE",
"397 437 OFFCURVE",
"271 387 CURVE",
"268 343 LINE",
"441 295 OFFCURVE",
"511 242 OFFCURVE",
"511 155 CURVE SMOOTH",
"511 85 OFFCURVE",
"463 41 OFFCURVE",
"383 41 CURVE SMOOTH",
"322 41 OFFCURVE",
"276 59 OFFCURVE",
"223 102 CURVE",
"198 60 LINE",
"243 19 OFFCURVE",
"313 -7 OFFCURVE",
"380 -7 CURVE SMOOTH",
"489 -7 OFFCURVE",
"566 60 OFFCURVE",
"566 155 CURVE SMOOTH",
"566 265 OFFCURVE",
"487 335 OFFCURVE",
"316 373 CURVE",
"315 362 LINE",
"442 411 OFFCURVE",
"511 488 OFFCURVE",
"511 580 CURVE SMOOTH",
"511 675 OFFCURVE",
"446 732 OFFCURVE",
"339 732 CURVE SMOOTH",
"198 732 OFFCURVE",
"119 654 OFFCURVE",
"106 506 CURVE SMOOTH",
"65 0 LINE"
);
}
);
width = 609;
}
);
leftKerningGroup = h;
leftMetricsKey = l;
rightKerningGroup = germandbls;
unicode = 00DF;
},
{
color = 3;
glyphname = t;
lastChange = "2016-09-21 13:15:46 +0000";
layers = (
{
anchors = (
{
name = bottom;
position = "{232, 0}";
},
{
name = center;
position = "{181, 256}";
},
{
name = top;
position = "{211, 656}";
},
{
name = topright;
position = "{337, 728}";
}
);
layerId = "E3EC4F6D-0AFB-4C34-B4C6-20524166427F";
paths = (
{
closed = 1;
nodes = (
"396 390 LINE",
"405 507 LINE",
"25 507 LINE",
"15 390 LINE"
);
},
{
closed = 1;
nodes = (
"354 122 OFFCURVE",
"340 120 OFFCURVE",
"324 120 CURVE SMOOTH",
"282 120 OFFCURVE",
"249 142 OFFCURVE",
"253 200 CURVE SMOOTH",
"291 676 LINE",
"130 625 LINE",
"96 197 LINE SMOOTH",
"86 69 OFFCURVE",
"147 -8 OFFCURVE",
"275 -8 CURVE SMOOTH",
"307 -8 OFFCURVE",
"337 -5 OFFCURVE",
"365 6 CURVE",
"375 127 LINE"
);
}
);
width = 400;
},
{
anchors = (
{
name = bottom;
position = "{195, 0}";
},
{
name = center;
position = "{165, 253}";
},
{
name = top;
position = "{166, 656}";
},
{
name = topright;
position = "{260, 728}";
}
);
layerId = "EADB5E4A-85D8-40DB-A3FC-C2FF30FE6B12";
paths = (
{
closed = 1;
nodes = (
"326 457 LINE",
"330 501 LINE",
"28 501 LINE",
"25 457 LINE"
);
},
{
closed = 1;
nodes = (
"271 44 OFFCURVE",
"255 42 OFFCURVE",
"236 42 CURVE SMOOTH",
"182 42 OFFCURVE",
"146 62 OFFCURVE",
"153 151 CURVE SMOOTH",
"192 656 LINE",
"137 635 LINE",
"99 137 LINE SMOOTH",
"91 38 OFFCURVE",
"144 -6 OFFCURVE",
"225 -6 CURVE SMOOTH",
"248 -6 OFFCURVE",
"268 -3 OFFCURVE",
"287 2 CURVE",
"290 51 LINE"
);
}
);
width = 331;
}
);
leftKerningGroup = t;
rightKerningGroup = t;
unicode = 0074;
userData = {
anchors = (
);
b = {
};
com.typemytype.robofont.layerData = {
b = {
anchors = (
);
components = (
);
contours = (
{
points = (
{
segmentType = curve;
smooth = 1;
x = 317;
y = 0;
},
{
smooth = 0;
x = 358;
y = 0;
},
{
smooth = 0;
x = 398;
y = 27;
},
{
segmentType = curve;
smooth = 1;
x = 398;
y = 79;
},
{
segmentType = line;
smooth = 0;
x = 398;
y = 876;
},
{
segmentType = line;
smooth = 1;
x = 578;
y = 876;
},
{
smooth = 0;
x = 621;
y = 876;
},
{
smooth = 0;
x = 634;
y = 897;
},
{
segmentType = curve;
smooth = 1;
x = 634;
y = 928;
},
{
smooth = 0;
x = 634;
y = 957;
},
{
smooth = 0;
x = 621;
y = 981;
},
{
segmentType = curve;
smooth = 1;
x = 578;
y = 981;
},
{
segmentType = line;
smooth = 0;
x = 398;
y = 981;
},
{
segmentType = line;
smooth = 1;
x = 398;
y = 1053;
},
{
smooth = 0;
x = 398;
y = 1285;
},
{
smooth = 0;
x = 432;
y = 1318;
},
{
segmentType = curve;
smooth = 1;
x = 544;
y = 1318;
},
{
segmentType = line;
smooth = 1;
x = 629;
y = 1318;
},
{
smooth = 0;
x = 706;
y = 1318;
},
{
smooth = 0;
x = 703;
y = 1438;
},
{
segmentType = curve;
smooth = 1;
x = 630;
y = 1438;
},
{
segmentType = line;
smooth = 1;
x = 510;
y = 1438;
},
{
smooth = 0;
x = 357;
y = 1438;
},
{
smooth = 0;
x = 238;
y = 1371;
},
{
segmentType = curve;
smooth = 1;
x = 238;
y = 1112;
},
{
segmentType = line;
smooth = 0;
x = 238;
y = 981;
},
{
segmentType = line;
smooth = 1;
x = 98;
y = 981;
},
{
smooth = 0;
x = 55;
y = 981;
},
{
smooth = 0;
x = 39;
y = 957;
},
{
segmentType = curve;
smooth = 1;
x = 39;
y = 928;
},
{
smooth = 0;
x = 39;
y = 899;
},
{
smooth = 0;
x = 55;
y = 876;
},
{
segmentType = curve;
smooth = 1;
x = 98;
y = 876;
},
{
segmentType = line;
smooth = 0;
x = 238;
y = 876;
},
{
segmentType = line;
smooth = 1;
x = 238;
y = 79;
},
{
smooth = 0;
x = 238;
y = 26;
},
{
smooth = 0;
x = 278;
y = 0;
}
);
}
);
lib = {
};
name = t;
unicodes = (
);
width = 706;
};
};
components = (
);
contours = (
);
lib = {
};
name = t;
unicodes = (
);
width = 768;
};
},
{
color = 3;
glyphname = tbar;
lastChange = "2016-09-21 13:15:46 +0000";
layers = (
{
layerId = "E3EC4F6D-0AFB-4C34-B4C6-20524166427F";
paths = (
{
closed = 1;
nodes = (
"367 232 LINE",
"375 342 LINE",
"36 342 LINE",
"28 232 LINE"
);
},
{
closed = 1;
nodes = (
"400 390 LINE",
"409 507 LINE",
"29 507 LINE",
"20 390 LINE"
);
},
{
closed = 1;
nodes = (
"359 122 OFFCURVE",
"344 120 OFFCURVE",
"329 120 CURVE SMOOTH",
"286 120 OFFCURVE",
"252 142 OFFCURVE",
"257 200 CURVE SMOOTH",
"296 676 LINE",
"134 625 LINE",
"100 197 LINE SMOOTH",
"90 69 OFFCURVE",
"151 -8 OFFCURVE",
"279 -8 CURVE SMOOTH",
"311 -8 OFFCURVE",
"341 -5 OFFCURVE",
"369 6 CURVE",
"379 127 LINE"
);
}
);
width = 409;
},
{
layerId = "EADB5E4A-85D8-40DB-A3FC-C2FF30FE6B12";
paths = (
{
closed = 1;
nodes = (
"296 268 LINE",
"300 312 LINE",
"39 312 LINE",
"35 268 LINE"
);
},
{
closed = 1;
nodes = (
"332 457 LINE",
"335 501 LINE",
"33 501 LINE",
"30 457 LINE"
);
},
{
closed = 1;
nodes = (
"276 44 OFFCURVE",
"260 42 OFFCURVE",
"241 42 CURVE SMOOTH",
"187 42 OFFCURVE",
"151 62 OFFCURVE",
"158 151 CURVE SMOOTH",
"197 656 LINE",
"143 635 LINE",
"104 137 LINE SMOOTH",
"97 38 OFFCURVE",
"149 -6 OFFCURVE",
"230 -6 CURVE SMOOTH",
"253 -6 OFFCURVE",
"273 -3 OFFCURVE",
"292 2 CURVE",
"296 51 LINE"
);
}
);
width = 342;
}
);
leftKerningGroup = t;
leftMetricsKey = "=t+5";
rightKerningGroup = t;
rightMetricsKey = "=t+5";
unicode = 0167;
userData = {
com.typemytype.robofont.layerData = {
b = {
anchors = (
);
components = (
);
contours = (
);
lib = {
};
name = tbar;
unicodes = (
);
width = 706;
};
};
};
},
{
color = 3;
glyphname = u;
lastChange = "2016-09-21 13:15:46 +0000";
layers = (
{
anchors = (
{
name = bottom;
position = "{284, 0}";
},
{
name = ogonek;
position = "{502, 10}";
},
{
name = top;
position = "{324, 511}";
},
{
name = topright;
position = "{444, 511}";
}
);
layerId = "E3EC4F6D-0AFB-4C34-B4C6-20524166427F";
paths = (
{
closed = 1;
nodes = (
"300 -8 OFFCURVE",
"366 28 OFFCURVE",
"397 88 CURVE",
"384 101 LINE",
"376 0 LINE",
"529 0 LINE",
"569 507 LINE",
"412 507 LINE",
"389 227 LINE SMOOTH",
"384 158 OFFCURVE",
"348 114 OFFCURVE",
"287 114 CURVE SMOOTH",
"231 114 OFFCURVE",
"206 150 OFFCURVE",
"211 216 CURVE SMOOTH",
"235 507 LINE",
"77 507 LINE",
"54 207 LINE SMOOTH",
"42 67 OFFCURVE",
"101 -8 OFFCURVE",
"222 -8 CURVE SMOOTH"
);
}
);
width = 610;
},
{
anchors = (
{
name = bottom;
position = "{264, 0}";
},
{
name = ogonek;
position = "{461, 10}";
},
{
name = top;
position = "{305, 506}";
},
{
name = topright;
position = "{477, 506}";
}
);
layerId = "EADB5E4A-85D8-40DB-A3FC-C2FF30FE6B12";
paths = (
{
closed = 1;
nodes = (
"332 -7 OFFCURVE",
"403 39 OFFCURVE",
"431 122 CURVE",
"418 108 LINE",
"410 0 LINE",
"462 0 LINE",
"501 501 LINE",
"448 501 LINE",
"426 216 LINE SMOOTH",
"417 107 OFFCURVE",
"352 41 OFFCURVE",
"251 41 CURVE SMOOTH",
"164 41 OFFCURVE",
"122 89 OFFCURVE",
"130 192 CURVE SMOOTH",
"155 501 LINE",
"102 501 LINE",
"77 188 LINE SMOOTH",
"67 59 OFFCURVE",
"130 -7 OFFCURVE",
"247 -7 CURVE SMOOTH"
);
}
);
width = 567;
}
);
leftKerningGroup = u;
leftMetricsKey = "=|n";
rightKerningGroup = u;
unicode = 0075;
userData = {
anchors = (
);
b = {
};
com.typemytype.robofont.layerData = {
b = {
anchors = (
);
components = (
);
contours = (
{
points = (
{
segmentType = curve;
smooth = 1;
x = 915;
y = 991;
},
{
smooth = 0;
x = 875;
y = 991;
},
{
smooth = 0;
x = 834;
y = 965;
},
{
segmentType = curve;
smooth = 1;
x = 834;
y = 916;
},
{
segmentType = line;
smooth = 0;
x = 834;
y = 395;
},
{
smooth = 0;
x = 821;
y = 198;
},
{
smooth = 0;
x = 698;
y = 90;
},
{
segmentType = curve;
smooth = 1;
x = 542;
y = 90;
},
{
smooth = 0;
x = 385;
y = 90;
},
{
smooth = 0;
x = 306;
y = 187;
},
{
segmentType = curve;
smooth = 1;
x = 306;
y = 367;
},
{
segmentType = line;
smooth = 1;
x = 306;
y = 916;
},
{
smooth = 0;
x = 306;
y = 967;
},
{
smooth = 0;
x = 266;
y = 991;
},
{
segmentType = curve;
smooth = 1;
x = 226;
y = 991;
},
{
smooth = 0;
x = 186;
y = 991;
},
{
smooth = 0;
x = 146;
y = 967;
},
{
segmentType = curve;
smooth = 1;
x = 146;
y = 916;
},
{
segmentType = line;
smooth = 1;
x = 146;
y = 369;
},
{
smooth = 0;
x = 146;
y = 96;
},
{
smooth = 0;
x = 294;
y = "-20";
},
{
segmentType = curve;
smooth = 1;
x = 507;
y = "-20";
},
{
smooth = 0;
x = 656;
y = "-20";
},
{
smooth = 0;
x = 786;
y = 49;
},
{
segmentType = curve;
smooth = 0;
x = 834;
y = 179;
},
{
segmentType = line;
smooth = 1;
x = 834;
y = 73;
},
{
smooth = 0;
x = 834;
y = 24;
},
{
smooth = 0;
x = 874;
y = 0;
},
{
segmentType = curve;
smooth = 1;
x = 913;
y = 0;
},
{
smooth = 0;
x = 953;
y = 0;
},
{
smooth = 0;
x = 994;
y = 24;
},
{
segmentType = curve;
smooth = 1;
x = 994;
y = 75;
},
{
segmentType = line;
smooth = 1;
x = 994;
y = 916;
},
{
smooth = 0;
x = 994;
y = 967;
},
{
smooth = 0;
x = 955;
y = 991;
}
);
}
);
lib = {
};
name = u;
unicodes = (
);
width = 1152;
};
};
components = (
);
contours = (
);
lib = {
};
name = u;
unicodes = (
);
width = 1195;
};
},
{
color = 3;
glyphname = uhorn;
lastChange = "2016-09-21 13:15:46 +0000";
layers = (
{
anchors = (
{
name = bottom;
position = "{285, 0}";
},
{
name = top;
position = "{325, 511}";
}
);
layerId = "E3EC4F6D-0AFB-4C34-B4C6-20524166427F";
widthMetricsKey = "=u+25";
paths = (
{
closed = 1;
nodes = (
"559 616 LINE SMOOTH",
"555 536 OFFCURVE",
"525 507 OFFCURVE",
"457 507 CURVE SMOOTH",
"412 507 LINE",
"389 227 LINE SMOOTH",
"384 158 OFFCURVE",
"348 114 OFFCURVE",
"287 114 CURVE SMOOTH",
"231 114 OFFCURVE",
"206 150 OFFCURVE",
"211 216 CURVE SMOOTH",
"235 507 LINE",
"77 507 LINE",
"54 207 LINE SMOOTH",
"42 67 OFFCURVE",
"101 -8 OFFCURVE",
"222 -8 CURVE SMOOTH",
"300 -8 OFFCURVE",
"366 28 OFFCURVE",
"397 88 CURVE",
"384 101 LINE",
"376 0 LINE",
"529 0 LINE",
"567 486 LINE",
"531 435 LINE",
"620 440 OFFCURVE",
"685 506 OFFCURVE",
"692 597 CURVE SMOOTH",
"695 636 LINE",
"560 636 LINE"
);
}
);
width = 635;
},
{
anchors = (
{
name = bottom;
position = "{264, 0}";
},
{
name = top;
position = "{305, 506}";
}
);
layerId = "EADB5E4A-85D8-40DB-A3FC-C2FF30FE6B12";
widthMetricsKey = "=u+25";
paths = (
{
closed = 1;
nodes = (
"584 623 LINE SMOOTH",
"577 538 OFFCURVE",
"541 502 OFFCURVE",
"464 501 CURVE SMOOTH",
"448 501 LINE",
"426 216 LINE SMOOTH",
"417 107 OFFCURVE",
"352 41 OFFCURVE",
"251 41 CURVE SMOOTH",
"164 41 OFFCURVE",
"122 89 OFFCURVE",
"130 192 CURVE SMOOTH",
"155 501 LINE",
"102 501 LINE",
"77 188 LINE SMOOTH",
"67 59 OFFCURVE",
"130 -7 OFFCURVE",
"247 -7 CURVE SMOOTH",
"332 -7 OFFCURVE",
"403 39 OFFCURVE",
"431 122 CURVE",
"418 108 LINE",
"410 0 LINE",
"462 0 LINE",
"500 481 LINE",
"471 464 LINE",
"567 464 OFFCURVE",
"626 519 OFFCURVE",
"633 614 CURVE SMOOTH",
"634 636 LINE",
"585 636 LINE"
);
}
);
width = 576;
}
);
leftKerningGroup = u;
leftMetricsKey = u;
rightKerningGroup = uhorn;
unicode = 01B0;
},
{
color = 3;
glyphname = uogonek;
lastChange = "2016-09-21 13:15:46 +0000";
layers = (
{
layerId = "E3EC4F6D-0AFB-4C34-B4C6-20524166427F";
paths = (
{
closed = 1;
nodes = (
"569 507 LINE",
"412 507 LINE",
"389 227 LINE SMOOTH",
"384 158 OFFCURVE",
"348 114 OFFCURVE",
"287 114 CURVE SMOOTH",
"231 114 OFFCURVE",
"206 150 OFFCURVE",
"211 216 CURVE SMOOTH",
"235 507 LINE",
"77 507 LINE",
"54 207 LINE SMOOTH",
"42 67 OFFCURVE",
"101 -8 OFFCURVE",
"222 -8 CURVE SMOOTH",
"300 -8 OFFCURVE",
"366 28 OFFCURVE",
"397 88 CURVE",
"384 101 LINE",
"376 0 LINE",
"417 0 LINE",
"435 33 LINE",
"369 13 OFFCURVE",
"325 -32 OFFCURVE",
"325 -94 CURVE SMOOTH",
"325 -158 OFFCURVE",
"376 -204 OFFCURVE",
"456 -204 CURVE SMOOTH",
"489 -204 OFFCURVE",
"522 -196 OFFCURVE",
"554 -183 CURVE",
"542 -109 LINE",
"520 -118 OFFCURVE",
"501 -122 OFFCURVE",
"483 -122 CURVE SMOOTH",
"449 -122 OFFCURVE",
"428 -103 OFFCURVE",
"428 -70 CURVE SMOOTH",
"428 -30 OFFCURVE",
"459 0 OFFCURVE",
"513 0 CURVE SMOOTH",
"529 0 LINE"
);
}
);
width = 610;
},
{
layerId = "EADB5E4A-85D8-40DB-A3FC-C2FF30FE6B12";
paths = (
{
closed = 1;
nodes = (
"501 501 LINE",
"448 501 LINE",
"426 216 LINE SMOOTH",
"417 107 OFFCURVE",
"352 41 OFFCURVE",
"251 41 CURVE SMOOTH",
"164 41 OFFCURVE",
"122 89 OFFCURVE",
"130 192 CURVE SMOOTH",
"155 501 LINE",
"102 501 LINE",
"77 188 LINE SMOOTH",
"67 59 OFFCURVE",
"130 -7 OFFCURVE",
"247 -7 CURVE SMOOTH",
"332 -7 OFFCURVE",
"403 39 OFFCURVE",
"431 122 CURVE",
"418 108 LINE",
"410 0 LINE",
"426 0 LINE",
"449 39 LINE",
"352 23 OFFCURVE",
"306 -31 OFFCURVE",
"306 -98 CURVE SMOOTH",
"306 -157 OFFCURVE",
"347 -197 OFFCURVE",
"415 -197 CURVE SMOOTH",
"447 -197 OFFCURVE",
"479 -186 OFFCURVE",
"497 -174 CURVE",
"484 -133 LINE",
"461 -148 OFFCURVE",
"437 -154 OFFCURVE",
"420 -154 CURVE SMOOTH",
"377 -154 OFFCURVE",
"356 -132 OFFCURVE",
"356 -89 CURVE SMOOTH",
"356 -42 OFFCURVE",
"390 0 OFFCURVE",
"456 0 CURVE SMOOTH",
"462 0 LINE"
);
}
);
width = 567;
}
);
leftKerningGroup = u;
leftMetricsKey = u;
widthMetricsKey = u;
rightKerningGroup = u;
unicode = 0173;
},
{
color = 3;
glyphname = v;
lastChange = "2016-09-21 13:15:46 +0000";
layers = (
{
anchors = (
{
name = bottom;
position = "{257, 0}";
},
{
name = top;
position = "{298, 511}";
}
);
layerId = "E3EC4F6D-0AFB-4C34-B4C6-20524166427F";
paths = (
{
closed = 1;
nodes = (
"321 0 LINE",
"586 506 LINE",
"428 506 LINE",
"253 146 LINE",
"287 146 LINE",
"167 506 LINE",
"8 506 LINE",
"189 0 LINE"
);
}
);
width = 552;
},
{
anchors = (
{
name = bottom;
position = "{243, 0}";
},
{
name = top;
position = "{283, 506}";
}
);
layerId = "EADB5E4A-85D8-40DB-A3FC-C2FF30FE6B12";
paths = (
{
closed = 1;
nodes = (
"271 0 LINE",
"523 501 LINE",
"467 501 LINE",
"233 27 LINE",
"253 27 LINE",
"94 501 LINE",
"39 501 LINE",
"213 0 LINE"
);
}
);
width = 523;
}
);
leftKerningGroup = v;
rightKerningGroup = v;
unicode = 0076;
userData = {
com.typemytype.robofont.layerData = {
b = {
anchors = (
);
components = (
);
contours = (
{
points = (
{
segmentType = line;
smooth = 0;
x = 518;
y = 0;
},
{
smooth = 0;
x = 589;
y = 0;
},
{
smooth = 0;
x = 618;
y = 36;
},
{
segmentType = curve;
smooth = 1;
x = 654;
y = 121;
},
{
segmentType = line;
smooth = 1;
x = 979;
y = 890;
},
{
smooth = 0;
x = 1000;
y = 940;
},
{
smooth = 0;
x = 968;
y = 991;
},
{
segmentType = curve;
smooth = 1;
x = 907;
y = 991;
},
{
smooth = 0;
x = 878;
y = 991;
},
{
smooth = 0;
x = 850;
y = 975;
},
{
segmentType = curve;
smooth = 1;
x = 836;
y = 940;
},
{
segmentType = line;
smooth = 0;
x = 518;
y = 166;
}
);
},
{
points = (
{
segmentType = curve;
smooth = 0;
x = 518;
y = 0;
},
{
segmentType = line;
smooth = 0;
x = 518;
y = 166;
},
{
segmentType = line;
smooth = 1;
x = 200;
y = 940;
},
{
smooth = 0;
x = 186;
y = 975;
},
{
smooth = 0;
x = 158;
y = 991;
},
{
segmentType = curve;
smooth = 1;
x = 129;
y = 991;
},
{
smooth = 0;
x = 68;
y = 991;
},
{
smooth = 0;
x = 36;
y = 940;
},
{
segmentType = curve;
smooth = 1;
x = 57;
y = 890;
},
{
segmentType = line;
smooth = 1;
x = 382;
y = 121;
},
{
smooth = 0;
x = 418;
y = 36;
},
{
smooth = 0;
x = 447;
y = 0;
}
);
}
);
lib = {
};
name = v;
unicodes = (
);
width = 1027;
};
};
};
},
{
color = 3;
glyphname = w;
lastChange = "2016-09-21 13:15:46 +0000";
layers = (
{
anchors = (
{
name = bottom;
position = "{427, 0}";
},
{
name = top;
position = "{467, 511}";
}
);
layerId = "E3EC4F6D-0AFB-4C34-B4C6-20524166427F";
paths = (
{
closed = 1;
nodes = (
"317 0 LINE",
"485 373 LINE",
"417 373 LINE",
"536 0 LINE",
"668 0 LINE",
"914 507 LINE",
"758 507 LINE",
"599 153 LINE",
"622 153 LINE",
"519 507 LINE",
"413 507 LINE",
"254 153 LINE",
"280 153 LINE",
"175 507 LINE",
"18 507 LINE",
"184 0 LINE"
);
}
);
width = 893;
},
{
anchors = (
{
name = bottom;
position = "{411, 0}";
},
{
name = top;
position = "{451, 506}";
}
);
layerId = "EADB5E4A-85D8-40DB-A3FC-C2FF30FE6B12";
paths = (
{
closed = 1;
nodes = (
"254 0 LINE",
"466 482 LINE",
"430 482 LINE",
"566 0 LINE",
"624 0 LINE",
"843 501 LINE",
"786 501 LINE",
"583 26 LINE",
"609 26 LINE",
"478 501 LINE",
"420 501 LINE",
"214 26 LINE",
"240 26 LINE",
"112 501 LINE",
"57 501 LINE",
"196 0 LINE"
);
}
);
width = 861;
}
);
leftKerningGroup = v;
rightKerningGroup = v;
unicode = 0077;
userData = {
anchors = (
);
b = {
};
com.typemytype.robofont.layerData = {
b = {
anchors = (
);
components = (
);
contours = (
{
points = (
{
segmentType = curve;
smooth = 1;
x = 477;
y = 0;
},
{
smooth = 0;
x = 524;
y = 0;
},
{
smooth = 0;
x = 564;
y = 30;
},
{
segmentType = curve;
smooth = 0;
x = 588;
y = 96;
},
{
segmentType = line;
smooth = 0;
x = 859;
y = 839;
},
{
segmentType = line;
smooth = 0;
x = 859;
y = 991;
},
{
smooth = 0;
x = 808;
y = 991;
},
{
smooth = 0;
x = 771;
y = 959;
},
{
segmentType = curve;
smooth = 1;
x = 750;
y = 899;
},
{
segmentType = line;
smooth = 0;
x = 488;
y = 173;
},
{
segmentType = line;
smooth = 1;
x = 223;
y = 936;
},
{
smooth = 0;
x = 210;
y = 974;
},
{
smooth = 0;
x = 183;
y = 991;
},
{
segmentType = curve;
smooth = 1;
x = 152;
y = 991;
},
{
smooth = 0;
x = 112;
y = 991;
},
{
smooth = 0;
x = 79;
y = 962;
},
{
segmentType = curve;
smooth = 1;
x = 79;
y = 916;
},
{
smooth = 0;
x = 79;
y = 909;
},
{
smooth = 0;
x = 81;
y = 899;
},
{
segmentType = curve;
smooth = 0;
x = 84;
y = 888;
},
{
segmentType = line;
smooth = 1;
x = 372;
y = 88;
},
{
smooth = 0;
x = 394;
y = 26;
},
{
smooth = 0;
x = 433;
y = 0;
}
);
},
{
points = (
{
segmentType = curve;
smooth = 1;
x = 1241;
y = 0;
},
{
smooth = 0;
x = 1285;
y = 0;
},
{
smooth = 0;
x = 1324;
y = 26;
},
{
segmentType = curve;
smooth = 1;
x = 1346;
y = 88;
},
{
segmentType = line;
smooth = 0;
x = 1634;
y = 888;
},
{
smooth = 0;
x = 1637;
y = 899;
},
{
smooth = 0;
x = 1639;
y = 909;
},
{
segmentType = curve;
smooth = 1;
x = 1639;
y = 916;
},
{
smooth = 0;
x = 1639;
y = 962;
},
{
smooth = 0;
x = 1606;
y = 991;
},
{
segmentType = curve;
smooth = 1;
x = 1566;
y = 991;
},
{
smooth = 0;
x = 1535;
y = 991;
},
{
smooth = 0;
x = 1508;
y = 974;
},
{
segmentType = curve;
smooth = 1;
x = 1495;
y = 936;
},
{
segmentType = line;
smooth = 0;
x = 1230;
y = 173;
},
{
segmentType = line;
smooth = 1;
x = 968;
y = 899;
},
{
smooth = 0;
x = 947;
y = 959;
},
{
smooth = 0;
x = 910;
y = 991;
},
{
segmentType = curve;
smooth = 0;
x = 859;
y = 991;
},
{
segmentType = line;
smooth = 0;
x = 859;
y = 839;
},
{
segmentType = line;
smooth = 0;
x = 1130;
y = 96;
},
{
smooth = 0;
x = 1154;
y = 30;
},
{
smooth = 0;
x = 1194;
y = 0;
}
);
}
);
lib = {
};
name = w;
unicodes = (
);
width = 1699;
};
};
components = (
);
contours = (
);
lib = {
};
name = w;
unicodes = (
);
width = 1742;
};
},
{
color = 3;
glyphname = x;
lastChange = "2016-09-21 13:15:46 +0000";
layers = (
{
anchors = (
{
name = bottom;
position = "{259, 0}";
},
{
name = top;
position = "{300, 511}";
}
);
layerId = "E3EC4F6D-0AFB-4C34-B4C6-20524166427F";
paths = (
{
closed = 1;
nodes = (
"564 0 LINE",
"371 260 LINE",
"287 370 LINE",
"190 507 LINE",
"8 507 LINE",
"191 262 LINE",
"274 153 LINE",
"381 0 LINE"
);
},
{
closed = 1;
nodes = (
"274 153 LINE",
"371 260 LINE",
"592 507 LINE",
"404 507 LINE",
"287 370 LINE",
"191 262 LINE",
"-44 0 LINE",
"143 0 LINE"
);
}
);
width = 559;
},
{
anchors = (
{
name = bottom;
position = "{244, 0}";
},
{
name = top;
position = "{284, 506}";
}
);
layerId = "EADB5E4A-85D8-40DB-A3FC-C2FF30FE6B12";
paths = (
{
closed = 1;
nodes = (
"481 0 LINE",
"297 257 LINE",
"265 299 LINE",
"122 501 LINE",
"55 501 LINE",
"231 259 LINE",
"261 218 LINE",
"415 0 LINE"
);
},
{
closed = 1;
nodes = (
"261 218 LINE",
"297 257 LINE",
"509 501 LINE",
"443 501 LINE",
"265 299 LINE",
"231 259 LINE",
"4 0 LINE",
"71 0 LINE"
);
}
);
width = 526;
}
);
leftKerningGroup = x;
rightKerningGroup = x;
unicode = 0078;
userData = {
com.typemytype.robofont.layerData = {
b = {
anchors = (
);
components = (
);
contours = (
);
lib = {
};
name = x;
unicodes = (
);
width = 1039;
};
};
};
},
{
color = 3;
glyphname = y;
lastChange = "2016-09-21 13:15:46 +0000";
layers = (
{
anchors = (
{
name = bottom;
position = "{417, 0}";
},
{
name = top;
position = "{297, 511}";
}
);
layerId = "E3EC4F6D-0AFB-4C34-B4C6-20524166427F";
paths = (
{
closed = 1;
nodes = (
"287 146 LINE",
"167 507 LINE",
"8 507 LINE",
"203 -39 LINE"
);
},
{
closed = 1;
nodes = (
"157 -182 OFFCURVE",
"251 -134 OFFCURVE",
"323 5 CURVE SMOOTH",
"586 507 LINE",
"428 507 LINE",
"253 146 LINE",
"208 83 LINE",
"177 26 LINE SMOOTH",
"147 -30 OFFCURVE",
"105 -58 OFFCURVE",
"9 -78 CURVE",
"36 -198 LINE"
);
}
);
width = 552;
},
{
anchors = (
{
name = bottom;
position = "{369, 0}";
},
{
name = top;
position = "{283, 506}";
}
);
layerId = "EADB5E4A-85D8-40DB-A3FC-C2FF30FE6B12";
paths = (
{
closed = 1;
nodes = (
"253 27 LINE",
"94 501 LINE",
"39 501 LINE",
"220 -22 LINE"
);
},
{
closed = 1;
nodes = (
"126 -178 OFFCURVE",
"198 -139 OFFCURVE",
"257 -24 CURVE SMOOTH",
"523 501 LINE",
"467 501 LINE",
"233 27 LINE",
"222 15 LINE",
"202 -23 LINE SMOOTH",
"161 -103 OFFCURVE",
"118 -133 OFFCURVE",
"23 -155 CURVE",
"31 -197 LINE"
);
}
);
width = 523;
}
);
leftKerningGroup = v;
leftMetricsKey = v;
rightKerningGroup = v;
rightMetricsKey = v;
unicode = 0079;
userData = {
com.typemytype.robofont.layerData = {
b = {
anchors = (
);
components = (
);
contours = (
{
points = (
{
segmentType = line;
smooth = 0;
x = 502;
y = 10;
},
{
segmentType = line;
smooth = 0;
x = 585;
y = 181;
},
{
segmentType = line;
smooth = 1;
x = 241;
y = 931;
},
{
smooth = 0;
x = 225;
y = 966;
},
{
smooth = 0;
x = 201;
y = 984;
},
{
segmentType = curve;
smooth = 1;
x = 171;
y = 984;
},
{
smooth = 0;
x = 117;
y = 984;
},
{
smooth = 0;
x = 64;
y = 936;
},
{
segmentType = curve;
smooth = 0;
x = 91;
y = 887;
}
);
},
{
points = (
{
segmentType = curve;
smooth = 1;
x = 365;
y = "-388";
},
{
smooth = 0;
x = 396;
y = "-388";
},
{
smooth = 0;
x = 424;
y = "-373";
},
{
segmentType = curve;
smooth = 1;
x = 442;
y = "-334";
},
{
segmentType = line;
smooth = 1;
x = 1009;
y = 888;
},
{
smooth = 0;
x = 1013;
y = 898;
},
{
smooth = 0;
x = 1016;
y = 908;
},
{
segmentType = curve;
smooth = 1;
x = 1016;
y = 918;
},
{
smooth = 0;
x = 1018;
y = 962;
},
{
smooth = 0;
x = 978;
y = 990;
},
{
segmentType = curve;
smooth = 1;
x = 938;
y = 990;
},
{
smooth = 0;
x = 910;
y = 990;
},
{
smooth = 0;
x = 883;
y = 977;
},
{
segmentType = curve;
smooth = 0;
x = 866;
y = 941;
},
{
segmentType = line;
smooth = 1;
x = 299;
y = "-286";
},
{
smooth = 0;
x = 272;
y = "-344";
},
{
smooth = 0;
x = 316;
y = "-388";
}
);
}
);
lib = {
};
name = y;
unicodes = (
);
width = 1029;
};
};
};
},
{
color = 3;
glyphname = z;
lastChange = "2016-09-21 13:15:46 +0000";
layers = (
{
anchors = (
{
name = bottom;
position = "{244, 0}";
},
{
name = top;
position = "{294, 511}";
}
);
layerId = "E3EC4F6D-0AFB-4C34-B4C6-20524166427F";
paths = (
{
closed = 1;
nodes = (
"477 0 LINE",
"487 117 LINE",
"187 117 LINE",
"193 84 LINE",
"498 402 LINE",
"507 507 LINE",
"71 507 LINE",
"62 390 LINE",
"347 390 LINE",
"338 423 LINE",
"37 110 LINE",
"28 0 LINE"
);
}
);
width = 531;
},
{
anchors = (
{
name = bottom;
position = "{237, 0}";
},
{
name = top;
position = "{281, 506}";
}
);
layerId = "EADB5E4A-85D8-40DB-A3FC-C2FF30FE6B12";
paths = (
{
closed = 1;
nodes = (
"447 0 LINE",
"451 44 LINE",
"63 44 LINE",
"78 10 LINE",
"473 460 LINE",
"475 501 LINE",
"84 501 LINE",
"81 457 LINE",
"449 457 LINE",
"434 491 LINE",
"34 36 LINE",
"31 0 LINE"
);
}
);
width = 514;
}
);
leftKerningGroup = z;
rightKerningGroup = z;
unicode = 007A;
},
{
color = 3;
glyphname = fi;
lastChange = "2016-09-21 13:15:46 +0000";
layers = (
{
layerId = "E3EC4F6D-0AFB-4C34-B4C6-20524166427F";
paths = (
{
closed = 1;
nodes = (
"586 0 LINE",
"626 507 LINE",
"25 507 LINE",
"15 390 LINE",
"460 390 LINE",
"429 0 LINE"
);
},
{
closed = 1;
nodes = (
"640 603 LINE",
"651 752 LINE",
"481 752 LINE",
"470 603 LINE"
);
},
{
closed = 1;
nodes = (
"238 0 LINE",
"279 525 LINE SMOOTH",
"285 605 OFFCURVE",
"301 618 OFFCURVE",
"385 618 CURVE SMOOTH",
"409 618 LINE",
"417 731 LINE",
"376 731 LINE SMOOTH",
"197 731 OFFCURVE",
"134 685 OFFCURVE",
"123 538 CURVE SMOOTH",
"81 0 LINE"
);
}
);
width = 665;
},
{
layerId = "EADB5E4A-85D8-40DB-A3FC-C2FF30FE6B12";
paths = (
{
closed = 1;
nodes = (
"436 0 LINE",
"475 501 LINE",
"29 501 LINE",
"26 457 LINE",
"419 457 LINE",
"383 0 LINE"
);
},
{
closed = 1;
nodes = (
"497 635 LINE",
"503 710 LINE",
"427 710 LINE",
"421 635 LINE"
);
},
{
closed = 1;
nodes = (
"141 0 LINE",
"185 554 LINE SMOOTH",
"194 668 OFFCURVE",
"215 687 OFFCURVE",
"321 687 CURVE SMOOTH",
"346 687 LINE",
"350 731 LINE",
"322 731 LINE SMOOTH",
"187 731 OFFCURVE",
"143 686 OFFCURVE",
"133 570 CURVE SMOOTH",
"88 0 LINE"
);
}
);
width = 540;
}
);
leftKerningGroup = f;
leftMetricsKey = f;
rightKerningGroup = i;
unicode = FB01;
},
{
glyphname = ordfeminine;
lastChange = "2016-09-21 13:15:46 +0000";
layers = (
{
layerId = "E3EC4F6D-0AFB-4C34-B4C6-20524166427F";
paths = (
{
closed = 1;
nodes = (
"178 414 OFFCURVE",
"210 433 OFFCURVE",
"227 477 CURVE",
"226 487 LINE",
"221 419 LINE",
"342 419 LINE",
"354 578 LINE SMOOTH",
"363 680 OFFCURVE",
"323 733 OFFCURVE",
"215 733 CURVE SMOOTH",
"164 733 OFFCURVE",
"114 723 OFFCURVE",
"75 707 CURVE",
"92 618 LINE",
"122 632 OFFCURVE",
"160 640 OFFCURVE",
"191 640 CURVE SMOOTH",
"224 640 OFFCURVE",
"235 632 OFFCURVE",
"234 612 CURVE SMOOTH",
"228 538 LINE SMOOTH",
"226 512 OFFCURVE",
"207 497 OFFCURVE",
"183 497 CURVE SMOOTH",
"164 497 OFFCURVE",
"153 505 OFFCURVE",
"153 520 CURVE SMOOTH",
"153 536 OFFCURVE",
"168 544 OFFCURVE",
"195 544 CURVE SMOOTH",
"242 544 LINE",
"247 601 LINE",
"203 601 LINE SMOOTH",
"89 601 OFFCURVE",
"37 574 OFFCURVE",
"37 509 CURVE SMOOTH",
"37 459 OFFCURVE",
"80 414 OFFCURVE",
"135 414 CURVE SMOOTH"
);
}
);
width = 351;
},
{
layerId = "EADB5E4A-85D8-40DB-A3FC-C2FF30FE6B12";
paths = (
{
closed = 1;
nodes = (
"209 422 OFFCURVE",
"246 448 OFFCURVE",
"262 493 CURVE",
"255 493 LINE",
"250 428 LINE",
"300 428 LINE",
"314 616 LINE SMOOTH",
"320 690 OFFCURVE",
"281 733 OFFCURVE",
"207 733 CURVE SMOOTH",
"164 733 OFFCURVE",
"119 720 OFFCURVE",
"85 696 CURVE",
"99 659 LINE",
"133 681 OFFCURVE",
"168 693 OFFCURVE",
"202 693 CURVE SMOOTH",
"247 693 OFFCURVE",
"268 669 OFFCURVE",
"264 621 CURVE SMOOTH",
"259 552 LINE SMOOTH",
"255 499 OFFCURVE",
"218 463 OFFCURVE",
"167 463 CURVE SMOOTH",
"134 463 OFFCURVE",
"110 486 OFFCURVE",
"110 513 CURVE SMOOTH",
"110 556 OFFCURVE",
"143 569 OFFCURVE",
"244 569 CURVE SMOOTH",
"267 569 LINE",
"270 601 LINE",
"244 601 LINE SMOOTH",
"107 601 OFFCURVE",
"57 576 OFFCURVE",
"57 510 CURVE SMOOTH",
"57 459 OFFCURVE",
"99 422 OFFCURVE",
"160 422 CURVE SMOOTH"
);
}
);
width = 338;
}
);
leftKerningGroup = ord;
rightKerningGroup = ord;
unicode = 00AA;
},
{
glyphname = ordmasculine;
lastChange = "2016-09-21 13:15:46 +0000";
layers = (
{
layerId = "E3EC4F6D-0AFB-4C34-B4C6-20524166427F";
paths = (
{
closed = 1;
nodes = (
"320 414 OFFCURVE",
"398 479 OFFCURVE",
"398 586 CURVE SMOOTH",
"398 675 OFFCURVE",
"333 733 OFFCURVE",
"228 733 CURVE SMOOTH",
"116 733 OFFCURVE",
"40 668 OFFCURVE",
"40 561 CURVE SMOOTH",
"40 473 OFFCURVE",
"105 414 OFFCURVE",
"210 414 CURVE SMOOTH"
);
},
{
closed = 1;
nodes = (
"187 515 OFFCURVE",
"168 536 OFFCURVE",
"168 568 CURVE SMOOTH",
"168 609 OFFCURVE",
"188 633 OFFCURVE",
"223 633 CURVE SMOOTH",
"252 633 OFFCURVE",
"272 615 OFFCURVE",
"272 581 CURVE SMOOTH",
"272 540 OFFCURVE",
"250 515 OFFCURVE",
"216 515 CURVE SMOOTH"
);
}
);
width = 386;
},
{
layerId = "EADB5E4A-85D8-40DB-A3FC-C2FF30FE6B12";
paths = (
{
closed = 1;
nodes = (
"280 422 OFFCURVE",
"340 491 OFFCURVE",
"340 592 CURVE SMOOTH",
"340 677 OFFCURVE",
"287 733 OFFCURVE",
"206 733 CURVE SMOOTH",
"111 733 OFFCURVE",
"51 664 OFFCURVE",
"51 564 CURVE SMOOTH",
"51 479 OFFCURVE",
"103 422 OFFCURVE",
"185 422 CURVE SMOOTH"
);
},
{
closed = 1;
nodes = (
"131 465 OFFCURVE",
"102 499 OFFCURVE",
"102 564 CURVE SMOOTH",
"102 641 OFFCURVE",
"138 692 OFFCURVE",
"205 692 CURVE SMOOTH",
"258 692 OFFCURVE",
"287 656 OFFCURVE",
"287 592 CURVE SMOOTH",
"287 511 OFFCURVE",
"251 465 OFFCURVE",
"185 465 CURVE SMOOTH"
);
}
);
width = 340;
}
);
leftKerningGroup = ord;
rightKerningGroup = ord;
unicode = 00BA;
},
